<?xml version="1.0" encoding="UTF-8" standalone="no"?>
<!-- Created with Inkscape (http://www.inkscape.org/) -->

<svg
   xmlns:dc="http://purl.org/dc/elements/1.1/"
   xmlns:cc="http://creativecommons.org/ns#"
   xmlns:rdf="http://www.w3.org/1999/02/22-rdf-syntax-ns#"
   xmlns:svg="http://www.w3.org/2000/svg"
   xmlns="http://www.w3.org/2000/svg"
   xmlns:sodipodi="http://sodipodi.sourceforge.net/DTD/sodipodi-0.dtd"
   xmlns:inkscape="http://www.inkscape.org/namespaces/inkscape"
   version="1.1"
   width="150"
   height="30"
   id="svg2"
   inkscape:version="0.48.4 r9939"
   sodipodi:docname="title.svg">
  <sodipodi:namedview
     pagecolor="#ffffff"
     bordercolor="#666666"
     borderopacity="1"
     objecttolerance="10"
     gridtolerance="10"
     guidetolerance="10"
     inkscape:pageopacity="0"
     inkscape:pageshadow="2"
     inkscape:window-width="1920"
     inkscape:window-height="1004"
     id="namedview8"
     showgrid="false"
     inkscape:zoom="5.5060048"
     inkscape:cx="106.18446"
     inkscape:cy="-0.33890583"
     inkscape:window-x="0"
     inkscape:window-y="24"
     inkscape:window-maximized="1"
     inkscape:current-layer="svg2" />
  <defs
     id="defs4" />
  <metadata
     id="metadata7">
    <rdf:RDF>
      <cc:Work
         rdf:about="">
        <dc:format>image/svg+xml</dc:format>
        <dc:type
           rdf:resource="http://purl.org/dc/dcmitype/StillImage" />
        <dc:title />
      </cc:Work>
    </rdf:RDF>
  </metadata>
  <path
     style="font-size:21px;font-style:normal;font-variant:normal;font-weight:normal;font-stretch:normal;text-align:start;line-height:125%;letter-spacing:0px;word-spacing:0px;writing-mode:lr-tb;text-anchor:start;fill:#fffb22;fill-opacity:1;stroke:none;font-family:Sans;-inkscape-font-specification:Sans"
     d="m 12.625488,6.8738 0,1.5688 -1.804687,0 c -0.676763,0 -1.1484426,0.1367 -1.4150393,0.4102 -0.2597699,0.2734 -0.3896526,0.7656 -0.3896484,1.4765 l 0,1.0152 3.1069337,0 0,1.4663 -3.1069337,0 0,10.018 -1.8969727,0 0,-10.018 -1.8046875,0 0,-1.4663 1.8046875,0 0,-0.7998 C 7.1191383,9.2664 7.4165013,8.3367 8.0112305,7.7556 8.6059533,7.1677 9.5493117,6.8738 10.841309,6.8738 l 1.784179,0"
     id="path2986"
     inkscape:connector-curvature="0" />
  <path
     style="font-size:21px;font-style:normal;font-variant:normal;font-weight:normal;font-stretch:normal;text-align:start;line-height:125%;letter-spacing:0px;word-spacing:0px;writing-mode:lr-tb;text-anchor:start;fill:#fffb22;fill-opacity:1;stroke:none;font-family:Sans;-inkscape-font-specification:Sans"
     d="m 24.017578,16.615 0,0.9228 -8.674805,0 c 0.08203,1.2989 0.471677,2.2901 1.168946,2.9737 0.704096,0.6767 1.681634,1.0151 2.932617,1.0151 0.724601,0 1.425284,-0.089 2.102051,-0.2666 0.683583,-0.1777 1.360341,-0.4443 2.030273,-0.7998 l 0,1.7842 c -0.676768,0.2871 -1.370615,0.5058 -2.081543,0.6562 -0.710946,0.1504 -1.432137,0.2256 -2.163574,0.2256 -1.832037,0 -3.284672,-0.5332 -4.35791,-1.5996 -1.066408,-1.0664 -1.599611,-2.5088 -1.59961,-4.3272 -10e-7,-1.8798 0.505858,-3.3701 1.517579,-4.4707 1.018551,-1.1074 2.389155,-1.6611 4.111816,-1.6611 1.544914,0 2.765127,0.499 3.660644,1.4971 0.902333,0.9912 1.353504,2.3413 1.353516,4.0503 m -1.886719,-0.5537 c -0.01368,-1.0323 -0.304208,-1.856 -0.871582,-2.4712 -0.560555,-0.6153 -1.305671,-0.9229 -2.235351,-0.9229 -1.05274,0 -1.896978,0.2974 -2.532715,0.8921 -0.62891,0.5947 -0.991214,1.4321 -1.086914,2.5122 l 6.726562,-0.01"
     id="path2988"
     inkscape:connector-curvature="0" />
  <path
     style="font-size:21px;font-style:normal;font-variant:normal;font-weight:normal;font-stretch:normal;text-align:start;line-height:125%;letter-spacing:0px;word-spacing:0px;writing-mode:lr-tb;text-anchor:start;fill:#fffb22;fill-opacity:1;stroke:none;font-family:Sans;-inkscape-font-specification:Sans"
     d="m 28.980469,8.0837 0,3.2608 3.88623,0 0,1.4663 -3.88623,0 0,6.2343 c -4e-6,0.9366 0.126461,1.5381 0.379394,1.8047 0.259761,0.2666 0.78271,0.3999 1.568848,0.3999 l 1.937988,0 0,1.5791 -1.937988,0 c -1.456059,0 -2.460941,-0.27 -3.014649,-0.81 -0.553713,-0.5469 -0.830568,-1.5381 -0.830566,-2.9737 l 0,-6.2343 -1.384277,0 0,-1.4663 1.384277,0 0,-3.2608 1.896973,0"
     id="path2990"
     inkscape:connector-curvature="0" />
  <path
     style="font-size:21px;font-style:normal;font-variant:normal;font-weight:normal;font-stretch:normal;text-align:start;line-height:125%;letter-spacing:0px;word-spacing:0px;writing-mode:lr-tb;text-anchor:start;fill:#fffb22;fill-opacity:1;stroke:none;font-family:Sans;-inkscape-font-specification:Sans"
     d="m 43.623047,11.7854 0,1.7637 c -0.533213,-0.294 -1.069834,-0.5127 -1.609863,-0.6563 -0.533212,-0.1504 -1.07325,-0.2256 -1.620118,-0.2256 -1.223638,0 -2.173833,0.3897 -2.850586,1.169 -0.676761,0.7724 -1.015139,1.8593 -1.015136,3.2607 -3e-6,1.4014 0.338375,2.4917 1.015136,3.271 0.676753,0.7725 1.626948,1.1587 2.850586,1.1587 0.546868,0 1.086906,-0.072 1.620118,-0.2153 0.540029,-0.1504 1.07665,-0.3726 1.609863,-0.6665 l 0,1.7431 c -0.526377,0.2461 -1.073251,0.4307 -1.640625,0.5537 -0.560555,0.1231 -1.158699,0.1846 -1.794434,0.1846 -1.729497,0 -3.103519,-0.5435 -4.12207,-1.6304 -1.018556,-1.0869 -1.527833,-2.5532 -1.527832,-4.3989 -10e-7,-1.873 0.512694,-3.3462 1.538086,-4.4194 1.032223,-1.0733 2.443842,-1.6099 4.234863,-1.6099 0.581047,0 1.14843,0.062 1.702149,0.1846 0.553701,0.1162 1.090322,0.2939 1.609863,0.5332"
     id="path2992"
     inkscape:connector-curvature="0" />
  <path
     style="font-size:21px;font-style:normal;font-variant:normal;font-weight:normal;font-stretch:normal;text-align:start;line-height:125%;letter-spacing:0px;word-spacing:0px;writing-mode:lr-tb;text-anchor:start;fill:#fffb22;fill-opacity:1;stroke:none;font-family:Sans;-inkscape-font-specification:Sans"
     d="m 56.471191,15.8972 0,6.9316 -1.886718,0 0,-6.8701 c -1e-5,-1.0869 -0.211924,-1.9004 -0.635743,-2.4404 -0.423836,-0.54 -1.059578,-0.8101 -1.907226,-0.8101 -1.018561,0 -1.821783,0.3248 -2.409668,0.9742 -0.587895,0.6494 -0.88184,1.5346 -0.881836,2.6557 l 0,6.4907 -1.896973,0 0,-15.955 1.896973,0 0,6.2548 c 0.451168,-0.6904 0.980952,-1.2065 1.589355,-1.5483 0.615229,-0.3418 1.322748,-0.5127 2.122559,-0.5127 1.319327,0 2.317373,0.4102 2.994141,1.2305 0.676746,0.8135 1.015125,2.0132 1.015136,3.5991"
     id="path2994"
     inkscape:connector-curvature="0" />
  <path
     style="font-size:21px;font-style:normal;font-variant:normal;font-weight:normal;font-stretch:normal;text-align:start;line-height:125%;letter-spacing:0px;word-spacing:0px;writing-mode:lr-tb;text-anchor:start;fill:#fffb22;fill-opacity:1;stroke:none;font-family:Sans;-inkscape-font-specification:Sans"
     d="m 60.336914,7.5198 2.071289,0 0,6.2753 7.526367,0 0,-6.2753 2.071289,0 0,15.309 -2.071289,0 0,-7.2905 -7.526367,0 0,7.2905 -2.071289,0 0,-15.309"
     id="path2996"
     inkscape:connector-curvature="0" />
  <path
     style="font-size:21px;font-style:normal;font-variant:normal;font-weight:normal;font-stretch:normal;text-align:start;line-height:125%;letter-spacing:0px;word-spacing:0px;writing-mode:lr-tb;text-anchor:start;fill:#fffb22;fill-opacity:1;stroke:none;font-family:Sans;-inkscape-font-specification:Sans"
     d="m 85.869141,16.615 0,0.9228 -8.674805,0 c 0.08203,1.2989 0.471676,2.2901 1.168945,2.9737 0.704097,0.6767 1.681635,1.0151 2.932617,1.0151 0.724602,0 1.425285,-0.089 2.102051,-0.2666 0.683584,-0.1777 1.360341,-0.4443 2.030274,-0.7998 l 0,1.7842 c -0.676769,0.2871 -1.370616,0.5058 -2.081543,0.6562 -0.710946,0.1504 -1.432137,0.2256 -2.163575,0.2256 -1.832036,0 -3.284671,-0.5332 -4.35791,-1.5996 -1.066408,-1.0664 -1.59961,-2.5088 -1.599609,-4.3272 -1e-6,-1.8798 0.505858,-3.3701 1.517578,-4.4707 1.018551,-1.1074 2.389155,-1.6611 4.111816,-1.6611 1.544914,0 2.765128,0.499 3.660645,1.4971 0.902332,0.9912 1.353504,2.3413 1.353516,4.0503 m -1.886719,-0.5537 c -0.01368,-1.0323 -0.304209,-1.856 -0.871582,-2.4712 -0.560556,-0.6153 -1.305672,-0.9229 -2.235352,-0.9229 -1.05274,0 -1.896977,0.2974 -2.532715,0.8921 -0.628909,0.5947 -0.991214,1.4321 -1.086914,2.5122 l 6.726563,-0.01"
     id="path2998"
     inkscape:connector-curvature="0" />
  <path
     style="font-size:21px;font-style:normal;font-variant:normal;font-weight:normal;font-stretch:normal;text-align:start;line-height:125%;letter-spacing:0px;word-spacing:0px;writing-mode:lr-tb;text-anchor:start;fill:#fffb22;fill-opacity:1;stroke:none;font-family:Sans;-inkscape-font-specification:Sans"
     d="m 94.185059,17.0559 c -1.52442,0 -2.580571,0.1743 -3.168457,0.5229 -0.587895,0.3487 -0.88184,0.9434 -0.881836,1.7842 -4e-6,0.6699 0.218746,1.2031 0.65625,1.5996 0.444331,0.3897 1.045893,0.5845 1.804687,0.5845 1.045892,0 1.883293,-0.3691 2.512207,-1.1074 0.635734,-0.7451 0.953604,-1.7329 0.953613,-2.9634 l 0,-0.4204 -1.876464,0 m 3.763183,-0.7793 0,6.5522 -1.886719,0 0,-1.7431 c -0.430672,0.6972 -0.967293,1.2134 -1.609863,1.5483 -0.642585,0.3281 -1.428717,0.4922 -2.358398,0.4922 -1.175785,0 -2.112308,-0.3281 -2.809571,-0.9844 -0.690431,-0.6631 -1.035645,-1.5483 -1.035644,-2.6557 -10e-7,-1.292 0.430662,-2.2661 1.291992,-2.9224 0.868161,-0.6562 2.160152,-0.9844 3.875977,-0.9844 l 2.645507,0 0,-0.1845 c -9e-6,-0.8682 -0.287118,-1.5381 -0.861328,-2.0098 -0.56739,-0.4785 -1.367194,-0.7178 -2.399414,-0.7178 -0.656255,0 -1.295414,0.079 -1.91748,0.2359 -0.622074,0.1572 -1.220218,0.393 -1.794434,0.7075 l 0,-1.7432 c 0.690427,-0.2666 1.360348,-0.4648 2.009766,-0.5947 0.649409,-0.1367 1.281733,-0.2051 1.896972,-0.2051 1.661126,0 2.901847,0.4307 3.722168,1.292 0.820302,0.8613 1.230458,2.167 1.230469,3.917"
     id="path3000"
     inkscape:connector-curvature="0" />
  <path
     style="font-size:21px;font-style:normal;font-variant:normal;font-weight:normal;font-stretch:normal;text-align:start;line-height:125%;letter-spacing:0px;word-spacing:0px;writing-mode:lr-tb;text-anchor:start;fill:#fffb22;fill-opacity:1;stroke:none;font-family:Sans;-inkscape-font-specification:Sans"
     d="m 109.40186,13.0876 0,-6.2138 1.88671,0 0,15.955 -1.88671,0 0,-1.7226 c -0.3965,0.6836 -0.89894,1.1929 -1.50733,1.5278 -0.60157,0.3281 -1.32618,0.4922 -2.17383,0.4922 -1.3877,0 -2.51904,-0.5537 -3.39404,-1.6611 -0.86817,-1.1074 -1.30225,-2.5635 -1.30225,-4.3682 0,-1.8047 0.43408,-3.2607 1.30225,-4.3682 0.875,-1.1074 2.00634,-1.6611 3.39404,-1.6611 0.84765,0 1.57226,0.1675 2.17383,0.5025 0.60839,0.3281 1.11083,0.8339 1.50733,1.5175 m -6.4292,4.0093 c -1e-5,1.3877 0.28368,2.478 0.85107,3.271 0.57421,0.7861 1.36035,1.1792 2.3584,1.1792 0.99804,0 1.78417,-0.3931 2.3584,-1.1792 0.57421,-0.793 0.86132,-1.8833 0.86133,-3.271 -1e-5,-1.3877 -0.28712,-2.4746 -0.86133,-3.2607 -0.57423,-0.793 -1.36036,-1.1895 -2.3584,-1.1895 -0.99805,0 -1.78419,0.3965 -2.3584,1.1895 -0.56739,0.7861 -0.85108,1.873 -0.85107,3.2607"
     id="path3002"
     inkscape:connector-curvature="0" />
  <path
     style="font-size:21px;font-style:normal;font-variant:normal;font-weight:normal;font-stretch:normal;text-align:start;line-height:125%;letter-spacing:0px;word-spacing:0px;writing-mode:lr-tb;text-anchor:start;fill:#fffb22;fill-opacity:1;stroke:none;font-family:Sans;-inkscape-font-specification:Sans"
     d="m 124.99805,16.615 0,0.9228 -8.67481,0 c 0.082,1.2989 0.47168,2.2901 1.16895,2.9737 0.70409,0.6767 1.68163,1.0151 2.93261,1.0151 0.72461,0 1.42529,-0.089 2.10206,-0.2666 0.68358,-0.1777 1.36034,-0.4443 2.03027,-0.7998 l 0,1.7842 c -0.67677,0.2871 -1.37062,0.5058 -2.08154,0.6562 -0.71095,0.1504 -1.43214,0.2256 -2.16358,0.2256 -1.83203,0 -3.28467,-0.5332 -4.35791,-1.5996 -1.06641,-1.0664 -1.59961,-2.5088 -1.59961,-4.3272 0,-1.8798 0.50586,-3.3701 1.51758,-4.4707 1.01855,-1.1074 2.38916,-1.6611 4.11182,-1.6611 1.54491,0 2.76512,0.499 3.66064,1.4971 0.90233,0.9912 1.35351,2.3413 1.35352,4.0503 m -1.88672,-0.5537 c -0.0137,-1.0323 -0.30421,-1.856 -0.87158,-2.4712 -0.56056,-0.6153 -1.30568,-0.9229 -2.23536,-0.9229 -1.05274,0 -1.89697,0.2974 -2.53271,0.8921 -0.62891,0.5947 -0.99121,1.4321 -1.08691,2.5122 l 6.72656,-0.01"
     id="path3004"
     inkscape:connector-curvature="0" />
  <path
     style="font-size:21px;font-style:normal;font-variant:normal;font-weight:normal;font-stretch:normal;text-align:start;line-height:125%;letter-spacing:0px;word-spacing:0px;writing-mode:lr-tb;text-anchor:start;fill:#fffb22;fill-opacity:1;stroke:none;font-family:Sans;-inkscape-font-specification:Sans"
     d="m 134.74951,13.1081 c -0.21192,-0.123 -0.44434,-0.2119 -0.69726,-0.2666 -0.24611,-0.062 -0.51954,-0.092 -0.82032,-0.092 -1.06641,0 -1.88672,0.3486 -2.46093,1.0458 -0.56739,0.6905 -0.85108,1.6851 -0.85108,2.9839 l 0,6.0498 -1.89697,0 0,-11.4843 1.89697,0 0,1.7841 c 0.39648,-0.6972 0.91259,-1.2133 1.54834,-1.5483 0.63574,-0.3418 1.4082,-0.5127 2.31738,-0.5127 0.12988,0 0.27343,0.01 0.43067,0.031 0.15722,0.014 0.33153,0.038 0.52295,0.072 l 0.0102,1.938"
     id="path3006"
     inkscape:connector-curvature="0" />
  <path
     style="font-size:21px;font-style:normal;font-variant:normal;font-weight:normal;font-stretch:normal;text-align:start;line-height:125%;letter-spacing:0px;word-spacing:0px;writing-mode:lr-tb;text-anchor:start;fill:#fffb22;fill-opacity:1;stroke:none;font-family:Sans;-inkscape-font-specification:Sans"
     d="m 144.07031,11.6828 0,1.7842 c -0.53321,-0.2734 -1.08692,-0.4785 -1.66113,-0.6152 -0.57423,-0.1367 -1.16895,-0.2051 -1.78418,-0.2051 -0.93653,0 -1.64063,0.1436 -2.1123,0.4307 -0.46485,0.2871 -0.69727,0.7178 -0.69727,1.292 0,0.4375 0.16748,0.7827 0.50244,1.0356 0.33496,0.2461 1.0083,0.482 2.02002,0.7075 l 0.646,0.1436 c 1.33983,0.2871 2.29003,0.6938 2.85058,1.2202 0.56738,0.5195 0.85107,1.2476 0.85108,2.1841 -1e-5,1.0664 -0.42384,1.9106 -1.27149,2.5327 -0.84083,0.6221 -1.99952,0.9331 -3.47607,0.9331 -0.61524,0 -1.25782,-0.062 -1.92774,-0.1846 -0.66308,-0.1162 -1.36377,-0.2939 -2.10205,-0.5332 l 0,-1.9482 c 0.69727,0.3623 1.38428,0.6357 2.06104,0.8203 0.67675,0.1777 1.34667,0.2666 2.00976,0.2666 0.88867,0 1.57226,-0.1504 2.05079,-0.4512 0.4785,-0.3076 0.71776,-0.7382 0.71777,-1.292 -1e-5,-0.5127 -0.17433,-0.9057 -0.52295,-1.1792 -0.3418,-0.2734 -1.09717,-0.5366 -2.26611,-0.7895 l -0.65625,-0.1538 c -1.16895,-0.2461 -2.01319,-0.6221 -2.53272,-1.128 -0.51953,-0.5126 -0.7793,-1.2133 -0.7793,-2.102 0,-1.0801 0.38282,-1.9141 1.14844,-2.502 0.76562,-0.5878 1.85254,-0.8818 3.26074,-0.8818 0.69726,0 1.35351,0.051 1.96875,0.1538 0.61523,0.1026 1.18261,0.2564 1.70215,0.4614"
     id="path3008"
     inkscape:connector-curvature="0" />
</svg>
