<?xml version="1.0" encoding="UTF-8" standalone="no"?>
<!-- Created with Inkscape (http://www.inkscape.org/) -->

<svg
   xmlns:dc="http://purl.org/dc/elements/1.1/"
   xmlns:cc="http://creativecommons.org/ns#"
   xmlns:rdf="http://www.w3.org/1999/02/22-rdf-syntax-ns#"
   xmlns:svg="http://www.w3.org/2000/svg"
   xmlns="http://www.w3.org/2000/svg"
   xmlns:sodipodi="http://sodipodi.sourceforge.net/DTD/sodipodi-0.dtd"
   xmlns:inkscape="http://www.inkscape.org/namespaces/inkscape"
   width="505"
   height="125"
   id="svg2"
   version="1.1"
   inkscape:version="0.48.3.1 r9886"
   sodipodi:docname="title.svg">
  <defs
     id="defs4">
    <inkscape:path-effect
       effect="skeletal"
       id="path-effect3986"
       is_visible="true"
       pattern="m 2.736764,990.53767 0,10.00003 10,-5.00003 z"
       copytype="single_stretched"
       prop_scale="1"
       scale_y_rel="false"
       spacing="0"
       normal_offset="0"
       tang_offset="0"
       prop_units="false"
       vertical_pattern="false"
       fuse_tolerance="0" />
    <inkscape:path-effect
       effect="skeletal"
       id="path-effect3982"
       is_visible="true"
       pattern="m 0,992.36218 0,10.00002 10,-5.00002 z"
       copytype="single_stretched"
       prop_scale="1"
       scale_y_rel="false"
       spacing="0"
       normal_offset="0"
       tang_offset="0"
       prop_units="false"
       vertical_pattern="false"
       fuse_tolerance="0" />
    <inkscape:path-effect
       effect="skeletal"
       id="path-effect3978"
       is_visible="true"
       pattern="M 0,0 0,10 10,5 z"
       copytype="single_stretched"
       prop_scale="1"
       scale_y_rel="false"
       spacing="0"
       normal_offset="0"
       tang_offset="0"
       prop_units="false"
       vertical_pattern="false"
       fuse_tolerance="0" />
    <inkscape:path-effect
       effect="skeletal"
       id="path-effect3974"
       is_visible="true"
       pattern="m 0,992.36218 0,10.00002 10,-5.00002 z"
       copytype="single_stretched"
       prop_scale="1"
       scale_y_rel="false"
       spacing="0"
       normal_offset="0"
       tang_offset="0"
       prop_units="false"
       vertical_pattern="false"
       fuse_tolerance="0" />
    <inkscape:path-effect
       effect="skeletal"
       id="path-effect3970"
       is_visible="true"
       pattern="m 0,992.36218 0,10.00002 10,-5.00002 z"
       copytype="single_stretched"
       prop_scale="1"
       scale_y_rel="false"
       spacing="0"
       normal_offset="0"
       tang_offset="0"
       prop_units="false"
       vertical_pattern="false"
       fuse_tolerance="0" />
    <inkscape:path-effect
       effect="skeletal"
       id="path-effect3966"
       is_visible="true"
       pattern="m 0,992.36218 0,10.00002 10,-5.00002 z"
       copytype="single_stretched"
       prop_scale="1"
       scale_y_rel="false"
       spacing="0"
       normal_offset="0"
       tang_offset="0"
       prop_units="false"
       vertical_pattern="false"
       fuse_tolerance="0" />
    <inkscape:path-effect
       effect="skeletal"
       id="path-effect3962"
       is_visible="true"
       pattern="M 0,0 0,10 10,5 z"
       copytype="single_stretched"
       prop_scale="1"
       scale_y_rel="false"
       spacing="0"
       normal_offset="0"
       tang_offset="0"
       prop_units="false"
       vertical_pattern="false"
       fuse_tolerance="0" />
    <inkscape:path-effect
       effect="skeletal"
       id="path-effect3958"
       is_visible="true"
       pattern="m 0,992.36218 0,10.00002 10,-5.00002 z"
       copytype="single_stretched"
       prop_scale="1"
       scale_y_rel="false"
       spacing="0"
       normal_offset="0"
       tang_offset="0"
       prop_units="false"
       vertical_pattern="false"
       fuse_tolerance="0" />
    <inkscape:path-effect
       effect="skeletal"
       id="path-effect3954"
       is_visible="true"
       pattern="m 0,992.36218 0,10.00002 10,-5.00002 z"
       copytype="single_stretched"
       prop_scale="1"
       scale_y_rel="false"
       spacing="0"
       normal_offset="0"
       tang_offset="0"
       prop_units="false"
       vertical_pattern="false"
       fuse_tolerance="0" />
    <inkscape:path-effect
       effect="skeletal"
       id="path-effect3950"
       is_visible="true"
       pattern="m 0,992.36218 0,10.00002 10,-5.00002 z"
       copytype="single_stretched"
       prop_scale="1"
       scale_y_rel="false"
       spacing="0"
       normal_offset="0"
       tang_offset="0"
       prop_units="false"
       vertical_pattern="false"
       fuse_tolerance="0" />
    <inkscape:path-effect
       effect="skeletal"
       id="path-effect3946"
       is_visible="true"
       pattern="m 0,992.36218 0,10.00002 10,-5.00002 z"
       copytype="single_stretched"
       prop_scale="1"
       scale_y_rel="false"
       spacing="0"
       normal_offset="0"
       tang_offset="0"
       prop_units="false"
       vertical_pattern="false"
       fuse_tolerance="0" />
    <inkscape:path-effect
       effect="skeletal"
       id="path-effect3942"
       is_visible="true"
       pattern="m 0,992.36218 0,10.00002 10,-5.00002 z"
       copytype="single_stretched"
       prop_scale="1"
       scale_y_rel="false"
       spacing="0"
       normal_offset="0"
       tang_offset="0"
       prop_units="false"
       vertical_pattern="false"
       fuse_tolerance="0" />
    <inkscape:path-effect
       effect="skeletal"
       id="path-effect3938"
       is_visible="true"
       pattern="m 0,992.36218 0,10.00002 10,-5.00002 z"
       copytype="single_stretched"
       prop_scale="1"
       scale_y_rel="false"
       spacing="0"
       normal_offset="0"
       tang_offset="0"
       prop_units="false"
       vertical_pattern="false"
       fuse_tolerance="0" />
    <inkscape:path-effect
       effect="skeletal"
       id="path-effect3934"
       is_visible="true"
       pattern="m 0,992.36218 0,10.00002 10,-5.00002 z"
       copytype="single_stretched"
       prop_scale="1"
       scale_y_rel="false"
       spacing="0"
       normal_offset="0"
       tang_offset="0"
       prop_units="false"
       vertical_pattern="false"
       fuse_tolerance="0" />
    <inkscape:path-effect
       effect="skeletal"
       id="path-effect3930"
       is_visible="true"
       pattern="M 0,0 0,10 10,5 z"
       copytype="single_stretched"
       prop_scale="1"
       scale_y_rel="false"
       spacing="0"
       normal_offset="0"
       tang_offset="0"
       prop_units="false"
       vertical_pattern="false"
       fuse_tolerance="0" />
    <inkscape:path-effect
       effect="skeletal"
       id="path-effect3926"
       is_visible="true"
       pattern="m 0,992.36218 0,10.00002 10,-5.00002 z"
       copytype="single_stretched"
       prop_scale="1"
       scale_y_rel="false"
       spacing="0"
       normal_offset="0"
       tang_offset="0"
       prop_units="false"
       vertical_pattern="false"
       fuse_tolerance="0" />
    <inkscape:path-effect
       effect="skeletal"
       id="path-effect3922"
       is_visible="true"
       pattern="m 0,992.36218 0,10.00002 10,-5.00002 z"
       copytype="single_stretched"
       prop_scale="1"
       scale_y_rel="false"
       spacing="0"
       normal_offset="0"
       tang_offset="0"
       prop_units="false"
       vertical_pattern="false"
       fuse_tolerance="0" />
    <inkscape:path-effect
       effect="skeletal"
       id="path-effect3918"
       is_visible="true"
       pattern="m 0,992.36218 0,10.00002 10,-5.00002 z"
       copytype="single_stretched"
       prop_scale="1"
       scale_y_rel="false"
       spacing="0"
       normal_offset="0"
       tang_offset="0"
       prop_units="false"
       vertical_pattern="false"
       fuse_tolerance="0" />
    <inkscape:path-effect
       effect="skeletal"
       id="path-effect3914"
       is_visible="true"
       pattern="m 0,992.36218 0,10.00002 10,-5.00002 z"
       copytype="single_stretched"
       prop_scale="1"
       scale_y_rel="false"
       spacing="0"
       normal_offset="0"
       tang_offset="0"
       prop_units="false"
       vertical_pattern="false"
       fuse_tolerance="0" />
    <inkscape:path-effect
       effect="skeletal"
       id="path-effect3910"
       is_visible="true"
       pattern="m 0,992.36218 0,10.00002 10,-5.00002 z"
       copytype="single_stretched"
       prop_scale="1"
       scale_y_rel="false"
       spacing="0"
       normal_offset="0"
       tang_offset="0"
       prop_units="false"
       vertical_pattern="false"
       fuse_tolerance="0" />
    <inkscape:path-effect
       effect="skeletal"
       id="path-effect3906"
       is_visible="true"
       pattern="m 0,992.36218 0,10.00002 10,-5.00002 z"
       copytype="single_stretched"
       prop_scale="1"
       scale_y_rel="false"
       spacing="0"
       normal_offset="0"
       tang_offset="0"
       prop_units="false"
       vertical_pattern="false"
       fuse_tolerance="0" />
    <inkscape:path-effect
       effect="skeletal"
       id="path-effect3902"
       is_visible="true"
       pattern="m 0,992.36218 0,10.00002 10,-5.00002 z"
       copytype="single_stretched"
       prop_scale="1"
       scale_y_rel="false"
       spacing="0"
       normal_offset="0"
       tang_offset="0"
       prop_units="false"
       vertical_pattern="false"
       fuse_tolerance="0" />
    <inkscape:path-effect
       effect="skeletal"
       id="path-effect3898"
       is_visible="true"
       pattern="m 0,992.36218 0,10.00002 10,-5.00002 z"
       copytype="single_stretched"
       prop_scale="1"
       scale_y_rel="false"
       spacing="0"
       normal_offset="0"
       tang_offset="0"
       prop_units="false"
       vertical_pattern="false"
       fuse_tolerance="0" />
    <inkscape:path-effect
       effect="skeletal"
       id="path-effect3894"
       is_visible="true"
       pattern="m 0,992.36218 0,10.00002 10,-5.00002 z"
       copytype="single_stretched"
       prop_scale="1"
       scale_y_rel="false"
       spacing="0"
       normal_offset="0"
       tang_offset="0"
       prop_units="false"
       vertical_pattern="false"
       fuse_tolerance="0" />
    <inkscape:path-effect
       effect="skeletal"
       id="path-effect3890"
       is_visible="true"
       pattern="m 0,992.36218 0,10.00002 10,-5.00002 z"
       copytype="single_stretched"
       prop_scale="1"
       scale_y_rel="false"
       spacing="0"
       normal_offset="0"
       tang_offset="0"
       prop_units="false"
       vertical_pattern="false"
       fuse_tolerance="0" />
    <inkscape:path-effect
       effect="skeletal"
       id="path-effect3886"
       is_visible="true"
       pattern="m 0,992.36218 0,10.00002 10,-5.00002 z"
       copytype="single_stretched"
       prop_scale="1"
       scale_y_rel="false"
       spacing="0"
       normal_offset="0"
       tang_offset="0"
       prop_units="false"
       vertical_pattern="false"
       fuse_tolerance="0" />
    <inkscape:path-effect
       effect="skeletal"
       id="path-effect3882"
       is_visible="true"
       pattern="m -4.5612734,996.9235 0,10 10,-5 z"
       copytype="single_stretched"
       prop_scale="1"
       scale_y_rel="false"
       spacing="0"
       normal_offset="0"
       tang_offset="0"
       prop_units="false"
       vertical_pattern="false"
       fuse_tolerance="0" />
    <inkscape:path-effect
       effect="skeletal"
       id="path-effect3878"
       is_visible="true"
       pattern="m 0,992.36218 0,10.00002 10,-5.00002 z"
       copytype="single_stretched"
       prop_scale="1"
       scale_y_rel="false"
       spacing="0"
       normal_offset="0"
       tang_offset="0"
       prop_units="false"
       vertical_pattern="false"
       fuse_tolerance="0" />
    <inkscape:path-effect
       effect="skeletal"
       id="path-effect3874"
       is_visible="true"
       pattern="m 0,992.36218 0,10.00002 10,-5.00002 z"
       copytype="single_stretched"
       prop_scale="1"
       scale_y_rel="false"
       spacing="0"
       normal_offset="0"
       tang_offset="0"
       prop_units="false"
       vertical_pattern="false"
       fuse_tolerance="0" />
    <inkscape:path-effect
       effect="skeletal"
       id="path-effect3870"
       is_visible="true"
       pattern="M 0,5 C 0,2.24 2.24,0 5,0 7.76,0 10,2.24 10,5 10,7.76 7.76,10 5,10 2.24,10 0,7.76 0,5 z"
       copytype="single_stretched"
       prop_scale="1"
       scale_y_rel="false"
       spacing="0"
       normal_offset="0"
       tang_offset="0"
       prop_units="false"
       vertical_pattern="false"
       fuse_tolerance="0" />
    <inkscape:path-effect
       effect="skeletal"
       id="path-effect3866"
       is_visible="true"
       pattern="M 0,0 0,10 10,5 z"
       copytype="single_stretched"
       prop_scale="1"
       scale_y_rel="false"
       spacing="0"
       normal_offset="0"
       tang_offset="0"
       prop_units="false"
       vertical_pattern="false"
       fuse_tolerance="0" />
  </defs>
  <sodipodi:namedview
     id="base"
     pagecolor="#000000"
     bordercolor="#666666"
     borderopacity="1.0"
     inkscape:pageopacity="0"
     inkscape:pageshadow="2"
     inkscape:zoom="2.1923702"
     inkscape:cx="300.95151"
     inkscape:cy="30.785692"
     inkscape:document-units="px"
     inkscape:current-layer="layer1"
     showgrid="false"
     inkscape:window-width="1680"
     inkscape:window-height="973"
     inkscape:window-x="0"
     inkscape:window-y="24"
     inkscape:window-maximized="1" />
  <metadata
     id="metadata7">
    <rdf:RDF>
      <cc:Work
         rdf:about="">
        <dc:format>image/svg+xml</dc:format>
        <dc:type
           rdf:resource="http://purl.org/dc/dcmitype/StillImage" />
        <dc:title />
      </cc:Work>
    </rdf:RDF>
  </metadata>
  <g
     inkscape:groupmode="layer"
     id="layer2"
     inkscape:label="Debug Background"
     style="display:none"
     transform="translate(0,65)">
    <rect
       style="fill:#000000;fill-opacity:1;stroke:none"
       id="rect4029"
       width="512.68713"
       height="231.25656"
       x="-26.455385"
       y="-85.048492"
       ry="7.8571429" />
  </g>
  <g
     inkscape:label="Layer 1"
     inkscape:groupmode="layer"
     id="layer1"
     transform="translate(0,-927.36218)"
     style="display:inline">
    <text
       xml:space="preserve"
       style="font-size:28px;font-style:normal;font-variant:normal;font-weight:normal;font-stretch:normal;line-height:125%;letter-spacing:0px;word-spacing:0px;writing-mode:lr-tb;fill:#ff8300;fill-opacity:1;stroke:none;font-family:Arial;-inkscape-font-specification:Arial"
       x="16.667517"
       y="47.472069"
       id="text2985"
       sodipodi:linespacing="125%"
       transform="translate(0,952.36218)"><tspan
         sodipodi:role="line"
         id="tspan2987"
         x="16.667517"
         y="47.472069" /></text>
    <g
       id="g5591"
       transform="translate(27.913199,-13.610592)">
      <g
         id="g5563">
        <path
           style="fill:#ff8300;fill-opacity:1;fill-rule:evenodd;stroke:none"
           d="m -19.04553,993.11588 -8.433928,5.37302 c 1.115418,1.6565 2.635588,2.816 4.405845,3.4029 1.772292,0.5135 3.296667,0.6106 4.491574,0.4509 2.914234,-0.3021 5.317713,-1.0651 7.287959,-1.7415 2.1086331,-0.64494 3.7774919,-1.30432 5.114481,-1.43143 0.4845499,0.0183 0.5872055,-0.0809 0.228033,-0.10093 -0.6144772,-0.21802 -1.0312448,-0.61225 -1.4236109,-1.28793 4.2589103,8.65319 7.57600827,17.93799 10.9749705,27.35019 1.2716776,3.5447 2.6131979,7.2095 4.318852,10.8497 3.9e-6,0 7.7e-6,0 1.15e-5,0 1.3421971,2.9283 3.0801919,5.9548 5.5386889,8.689 7e-6,1e-4 1.4e-5,1e-4 2.1e-5,1e-4 2.281096,2.4972 5.201159,4.4229 8.516114,5.4958 5e-6,0 1.1e-5,0 1.6e-5,0 3.967205,1.1898 7.906283,1.2448 11.488177,0.7635 5.248947,-0.6521 10.186251,-2.1023 14.853777,-3.7475 6.837134,-2.3886 13.409342,-5.2682 19.836785,-8.2717 8e-6,0 1.6e-5,0 2.3e-5,0 18.950692,-8.8366 39.647471,-14.1876 60.511631,-14.3176 16.07838,-0.119 32.19964,2.8352 47.47591,8.2114 6.14804,2.1647 12.17471,4.7169 18.07866,7.5528 4.66434,2.2402 9.26057,4.6811 13.85667,7.1706 0,0 1e-5,0 1e-5,0 1.73604,0.9407 3.48541,1.8955 5.26923,2.8221 1.3281,0.692 2.71316,1.393 4.1926,2.0043 0.8921,0.4025 2.03784,0.8175 3.4506,0.9445 2e-5,0 3e-5,0 4e-5,0 0.47845,0.062 1.10934,-0.01 1.85061,-0.2742 0.35733,-0.1144 0.57647,-0.4222 0.61844,-0.8854 7.99384,0.594 15.86769,-0.9951 23.26771,-3.498 8.18151,-2.8183 15.93625,-6.4552 23.75975,-9.686 10e-6,0 10e-6,-10e-5 2e-5,-10e-5 8.63095,-3.5576 17.43956,-6.666 26.53283,-8.3941 10e-6,0 10e-6,0 10e-6,0 10.71947,-2.0389 21.81543,-2.135 32.63316,-0.4217 35.33195,2.5444 70.64911,5.0869 105.95147,7.6275 -35.24533,-3.237 -70.47587,-6.4721 -105.6916,-9.7054 -10.99158,-1.9657 -22.33381,-2.0923 -33.38102,-0.2077 -9.39609,1.6047 -18.47097,4.594 -27.27633,8.032 -10e-6,0 -2e-5,0 -2e-5,0 -7.98427,3.1114 -15.75445,6.5751 -23.73275,9.1392 -7.76223,2.5472 -15.8371,4.2668 -23.79627,3.9127 -0.21148,-0.02 -0.39559,0.028 -0.51117,0.1063 0.18181,-0.036 0.19121,-0.074 0.0667,-0.053 0,0 0,0 0,0 -0.49841,-0 -1.16839,-0.3244 -2.04109,-0.6668 -1.25466,-0.5427 -2.50646,-1.2128 -3.79863,-1.9141 -1.71109,-0.9317 -3.41756,-1.9077 -5.14299,-2.8869 -4.56784,-2.5932 -9.18101,-5.1598 -13.91638,-7.5519 -10e-6,0 -2e-5,0 -3e-5,0 -5.98417,-3.0227 -12.12772,-5.7677 -18.43547,-8.1311 -15.6889,-5.8805 -32.39187,-9.283 -49.26111,-9.5049 -21.89765,-0.2638 -43.672698,4.8581 -63.646527,13.7266 -8e-6,0 -1.6e-5,0 -2.3e-5,0 -6.38178,2.8229 -12.770504,5.4802 -19.264387,7.5979 -4.474534,1.4451 -8.879722,2.6779 -13.221689,3.0942 -2.9308,0.2442 -5.710792,0.2382 -7.976074,-0.5963 -6e-6,0 -1.1e-5,0 -1.7e-5,0 -1.781026,-0.5822 -3.440497,-1.7601 -4.751403,-3.2385 -2e-6,0 -4e-6,0 -6e-6,-10e-5 -1.576379,-1.7315 -2.776222,-4.0529 -3.946754,-6.5936 -1.429222,-3.183 -2.594767,-6.6102 -3.798982,-10.1545 -3.1959827,-9.4704 -6.4507686,-19.1235 -10.8160833,-28.51663 -0.9463192,-1.83482 -2.4213466,-3.1164 -4.2583048,-3.72941 -1.8084095,-0.48832 -3.2724404,-0.53939 -4.3006671,-0.34476 -5.7e-6,0 -1.14e-5,0 -1.71e-5,10e-6 -2.7793687,0.35269 -5.0554717,1.09871 -6.9036747,1.68589 -2.103424,0.59207 -3.802506,1.17654 -5.142242,1.20237 -0.499566,-0.029 -0.713921,0.0194 -0.5522,-0.01 0.322244,0.0991 0.55563,0.29018 0.850071,0.65796 z"
           id="path3872"
           inkscape:path-effect="#path-effect3874"
           inkscape:original-d="m -23.262494,995.80239 c 3.513326,5.51481 17.791121,-5.13761 20.2056575,-0.0852 20.2158035,42.30171 9.0928405,67.31381 69.6514285,39.76831 90.794988,-41.29877 151.733398,22.5109 155.995548,15.0522 32.54165,1.9339 57.80368,-29.7691 107.18993,-21.438 l 105.82154,8.6664"
           inkscape:connector-curvature="0"
           sodipodi:nodetypes="cssccc" />
        <path
           style="fill:#ff8300;fill-opacity:1;fill-rule:evenodd;stroke:none"
           d="m 43.932586,1052.648 5.184804,8.551 c 10.905183,-7.0885 22.707021,-12.9431 34.964588,-17.7745 12.225272,-4.8321 24.900332,-8.6319 37.910132,-10.8425 10.43782,-0.5392 20.89932,-0.603 31.22066,0.8123 6.60715,0.9012 13.138,2.4773 19.30401,5.034 0,0 0,0 10e-6,0 4.7522,1.9647 9.2889,4.5515 13.85834,7.0966 4.75806,2.4744 9.64023,4.924 14.76014,6.8363 -0.60148,0.1344 -1.20402,0.2868 -1.80762,0.4571 0.61274,-0.1337 1.22654,-0.2855 1.84141,-0.4551 -5.01102,-1.9385 -9.68817,-4.6912 -14.2349,-7.7743 -4.40125,-2.8128 -8.80783,-5.6869 -13.58273,-8.0136 -6.19298,-3.01 -12.83988,-5.0572 -19.60208,-6.3908 -10.58219,-2.079 -21.41893,-2.6738 -32.16946,-2.7427 -13.58796,1.4795 -27.012514,4.6026 -40.060895,8.8424 -12.939243,4.2129 -25.600089,9.5721 -37.586409,16.3638 z"
           id="path3876"
           inkscape:path-effect="#path-effect3878"
           inkscape:original-d="m 46.524988,1056.9235 c 21.678266,-13.1445 49.969395,-23.4027 75.261012,-26.9116 53.31453,-1.1832 56.62503,13.7063 79.36616,22.3503 l -1.82451,0.4561"
           inkscape:connector-curvature="0"
           sodipodi:nodetypes="cccc" />
        <path
           style="fill:#ff8300;fill-opacity:1;fill-rule:evenodd;stroke:none"
           d="m 7.2188732,1055.6565 9.9949298,-0.3184 c -0.365414,-2.634 -1.37338,-4.5007 -2.653842,-5.5771 -1.2552,-1.1802 -2.412913,-1.9467 -3.34912,-2.4844 -1e-6,0 -2e-6,0 -3e-6,0 -0.963537,-0.6108 -1.717848,-0.9963 -2.1578476,-1.345 0,0 0,0 0,0 -3e-7,0 -5e-7,0 -8e-7,0 -0.1826487,-0.3571 -0.3643043,-0.1177 -0.1011626,0.6421 -0.8729985,-5.8153 -2.7504015,-11.2397 -5.095062,-16.2806 -5e-7,0 -1e-6,0 -1.5e-6,0 -0.9971443,-2.1599 -2.0985161,-4.2836 -3.32912954,-6.3359 -0.8489875,-1.4273 -1.80192266,-2.9157 -2.98618646,-4.3072 -2.0066028,-2.2542 -5.053117,-2.7966 -7.5487345,-1.6718 0,0 0,0 0,0 -2.389685,1.123 -3.847827,3.5869 -3.639345,6.1325 0,0 0,0 0,0 0.542925,4.3735 2.924188,8.2295 6.1839971,10.7696 1.1005124,0.8575 2.2856948,1.5872 3.524371,2.1803 1.1e-6,0 2.1e-6,0 3.2e-6,0 0.3706541,0.1775 0.7466568,0.3431 1.1282394,0.4914 1.1e-6,0 2.2e-6,0 3.2e-6,0 0.1047233,0.041 0.2098286,0.08 0.3154514,0.1172 6e-7,0 1.1e-6,0 1.7e-6,0 0.028752,0.01 0.056958,0.017 0.084666,0.027 0.010013,0 0.020176,0.01 0.030087,0.012 5.07e-5,0 7.61e-5,0 7.61e-5,0 0,0 -2.54e-5,0 -7.61e-5,0 -0.00991,-0 -0.019913,-0.01 -0.029606,-0.013 -0.026825,-0.013 -0.052933,-0.027 -0.078369,-0.042 -0.099069,-0.052 -0.1968511,-0.1059 -0.2938477,-0.1609 -1e-6,0 -2e-6,0 -3e-6,0 -0.3544579,-0.2009 -0.6989011,-0.4169 -1.0357924,-0.6432 -9e-7,0 -1.9e-6,0 -2.8e-6,0 -1.1256675,-0.7564 -2.1622822,-1.627 -3.0852297,-2.5907 -8e-7,0 -1.6e-6,0 -2.3e-6,0 -2.7106549,-2.8334 -4.277498,-6.6367 -4.159969,-10.2845 0.0055,-1.282 1.1847524,-2.5034 2.3454235,-2.825 3e-7,0 7e-7,0 1e-6,0 1.0900361,-0.3342 2.5283655,0.2287 2.849841,1.0673 0.7561824,1.1863 1.3511377,2.5489 1.96653,3.9967 0.8419213,2.0169 1.5566447,4.0905 2.1816111,6.1993 2e-7,0 3e-7,0 5e-7,0 1.45586913,4.9605 2.41997045,9.974 2.4007863,14.8237 0.399149,2.4587 1.3421242,4.1548 2.3936965,4.9731 7e-7,0 1.4e-6,0 2.1e-6,0 1.086639,1.1051 2.0944645,1.899 2.8495417,2.509 5e-7,0 9e-7,0 1.3e-6,0 0.8074505,0.701 1.4063092,1.1868 1.6069685,1.5735 -0.011528,0.2893 -0.00684,0.136 -0.3128963,-0.6348 z"
           id="path3880"
           inkscape:path-effect="#path-effect3882"
           inkscape:original-d="m 12.216338,1055.4973 c -0.119175,-3.741 -7.1436555,-5.395 -7.3996448,-8.5926 -0.8485219,-10.5989 -6.1527246,-22.2162 -8.9796537,-25.9717 -2.7206855,-3.6144 -8.4135245,-1.0741 -8.1916725,3.1092 0.523934,9.8793 9.9748975,13.6661 9.9748975,13.6661"
           inkscape:connector-curvature="0"
           sodipodi:nodetypes="csssc" />
        <path
           style="fill:#ff8300;fill-opacity:1;fill-rule:evenodd;stroke:none"
           d="m 74.84626,1056.6907 6.30303,7.7636 c 6.280428,-5.4587 12.424355,-10.7575 19.20133,-14.8117 7.52769,-4.5443 16.06113,-7.5747 24.9108,-8.7857 0,0 0,0 0,0 6.05922,-0.7223 12.08785,-1.2431 18.0775,-1.0648 3.6062,0.063 7.33564,0.5074 11.18299,0.8029 1.30799,0.5981 2.58847,1.2122 3.80835,1.9078 0,0 0,0 0,0 0.85434,0.4784 1.63736,0.9221 2.25856,1.4481 0.32178,0.3935 0.58258,0.4742 0.45639,0.3562 0,0 0,0 0,0 -0.032,-0.1482 8.2e-4,-0.3116 0.0855,-0.5245 0,0 0,0 0,0 0.11805,-0.1679 0.16011,-0.2368 0.1702,-0.2063 -0.0856,0.1434 -0.4574,0.2229 -0.97094,0.3928 -0.73226,0.1965 -1.53417,0.3081 -2.37863,0.4055 -2.40191,0.2712 -4.87083,0.3255 -7.36919,0.3625 -6.35757,0.091 -12.76057,-0.076 -19.16654,0.036 -2.93179,0.051 -5.87299,0.1477 -8.79565,0.4347 -2.13266,0.2075 -4.30813,0.4607 -6.30749,1.2244 2.04872,-0.6192 4.19925,-0.7081 6.33604,-0.7672 2.91577,-0.078 5.83048,0.036 8.74754,0.1924 6.3661,0.3427 12.71969,0.9649 19.1333,1.3312 2.50732,0.1449 5.05372,0.2678 7.64472,0.1658 0,0 1e-5,0 1e-5,0 0.90605,-0.033 1.85591,-0.1029 2.83809,-0.2833 0.61298,-0.078 1.39592,-0.2954 2.2404,-0.8341 0.31637,-0.1942 0.63457,-0.5427 0.91169,-1.0555 0.23097,-0.53 0.2928,-1.0584 0.19106,-1.5488 0,0 0,0 0,0 -0.34427,-1.1888 -0.9318,-1.932 -1.41981,-2.2722 0,0 0,0 0,0 -0.87907,-0.8333 -1.81675,-1.4827 -2.69977,-2.0435 0,0 0,0 -1e-5,0 -1.50182,-0.9325 -3.04756,-1.7653 -4.59106,-2.5555 -3.87439,-0.6104 -7.83408,-1.3974 -11.98588,-1.8432 -6.34489,-0.6313 -12.70355,-0.5509 -18.96242,-0.2433 -1e-5,0 -1e-5,0 -1e-5,0 -9.7726,0.6367 -19.45657,3.2802 -28.313271,7.7778 -7.845977,4.0155 -14.850778,9.1691 -21.536829,14.2376 z"
           id="path3884"
           inkscape:path-effect="#path-effect3886"
           inkscape:original-d="m 77.997775,1060.5725 c 12.838874,-10.4236 25.818305,-20.7067 46.981115,-22.8064 16.9047,-1.4134 22.44707,0.014 30.1044,0.9123 27.30555,13.294 -26.45538,3.547 -38.77082,7.7541"
           inkscape:connector-curvature="0"
           sodipodi:nodetypes="cccc" />
        <path
           style="fill:#ff8300;fill-opacity:1;fill-rule:evenodd;stroke:none"
           d="m 246.32692,1059.8528 9.08622,4.1762 c 1.45348,-4.1935 6.12934,-7.4433 11.10453,-10.6223 5.99927,-3.6506 12.77268,-6.4976 19.64948,-9.6215 8.77891,-1.7183 17.17807,-4.1508 25.60229,-5.8009 0,0 0,0 1e-5,0 8.01873,-1.4958 16.04989,-2.563 23.54534,-0.8716 16.97563,0.6791 33.89866,1.4053 50.76481,2.472 7.49695,0.4729 14.98138,1.0033 22.43772,1.8224 3.53292,0.3879 7.07524,0.8962 10.64343,1.2186 5.02143,0.4532 10.04989,0.5451 15.07247,0.6139 -5.01217,-0.3305 -10.02777,-0.6846 -14.98149,-1.3943 -3.51934,-0.5037 -7.01565,-1.1936 -10.55282,-1.7698 -7.43767,-1.2119 -14.91984,-2.1369 -22.39516,-3.0009 -10e-6,0 -10e-6,0 -10e-6,0 -16.74852,-1.9348 -33.49818,-3.5187 -50.19908,-5.0409 -8.45726,-2.2681 -17.23048,-1.6642 -25.41588,-0.4047 0,0 0,0 0,0 -9.1052,1.3306 -17.94841,3.4041 -26.69675,4.6792 -7.15117,2.7581 -14.61081,5.4412 -21.8844,9.2211 -5.86734,2.8911 -12.0448,7.2265 -15.78071,14.3235 z"
           id="path3888"
           inkscape:path-effect="#path-effect3890"
           inkscape:original-d="m 250.87003,1061.9409 c 4.64794,-10.1125 19.79587,-15.8504 34.20956,-21.8942 17.25063,-2.9462 35.60471,-9.2028 50.63013,-5.4735 93.24057,6.095 68.31398,7.4645 98.5235,8.6664"
           inkscape:connector-curvature="0"
           sodipodi:nodetypes="cccc" />
        <path
           style="fill:#ff8300;fill-opacity:1;fill-rule:evenodd;stroke:none"
           d="m 272.26965,1057.055 4.63802,8.8594 c 6.65946,-3.7139 12.65826,-7.7985 18.88439,-10.814 7.89884,-3.8776 16.65485,-6.2122 25.62526,-7.3538 9.0186,-0.8982 17.92254,-1.9757 26.80971,-2.4902 0,0 0,0 10e-6,0 7.38717,-0.3619 14.63751,-0.7207 21.3105,1.0937 18.29524,0.4961 36.50907,0.9097 54.64579,1.8885 0,0 10e-6,0 10e-6,0 8.55048,0.3436 17.22022,0.9249 26.00758,1.3931 2.9e-4,0.1478 0.003,0.2978 0.007,0.4498 0.004,-0.152 0.006,-0.3062 0.007,-0.4624 -8.53345,-0.7128 -17.14842,-1.7772 -25.90134,-2.847 -18.0287,-1.9752 -36.06371,-3.3683 -54.00211,-4.8184 -7.33749,-2.3698 -15.01705,-2.4828 -22.24523,-2.4063 0,0 -10e-6,0 -10e-6,0 -9.16247,0.027 -18.25315,0.6129 -27.2458,1.0098 -9.69885,0.6708 -19.43433,2.7013 -28.63042,6.5431 -7.14627,3.0229 -13.57038,6.8634 -19.90989,9.9547 z"
           id="path3892"
           inkscape:path-effect="#path-effect3894"
           inkscape:original-d="m 274.58866,1061.4847 c 13.08963,-6.8526 23.12774,-15.0614 46.52498,-17.3328 18.23526,-1.3112 37.57021,-3.3554 48.80563,0 64.58546,3.4691 53.51894,3.649 80.27841,5.4735 l 0,0.4561"
           inkscape:connector-curvature="0"
           sodipodi:nodetypes="ccccc" />
        <path
           style="fill:#ff8300;fill-opacity:1;fill-rule:evenodd;stroke:none"
           d="m 182.03055,978.32747 -9.19404,3.93318 c 2.93611,6.5618 5.78783,13.32028 9.09347,19.99835 2.71454,5.5825 5.87953,11.4512 10.5411,16.5292 5.28282,5.6073 10.67555,11.271 16.54372,16.5551 0,0 0,0 0,10e-5 2.46446,2.2701 5.28223,4.7385 8.84207,6.5969 1.97616,0.9403 3.80211,1.3742 5.33106,1.663 1.83055,0.3412 3.68718,1.0962 5.53638,2.0403 1e-5,0 1e-5,0 1e-5,0 4.98288,-0.6251 9.95131,-1.5784 14.77744,-3.0485 3.52523,-1.2405 6.85022,-2.7764 10.05183,-4.3813 0,0 0,0 10e-6,0 3.39126,-1.695 6.69167,-3.4042 10.02205,-4.8893 4.54216,-2.03 9.24941,-3.7422 14.05148,-5.205 12.47647,-3.7674 25.62807,-5.4481 38.8187,-5.5813 0,0 10e-6,0 10e-6,0 16.09996,1.2514 32.21139,2.5033 48.3343,3.7558 26.19216,1.9995 52.38403,3.9991 78.57563,5.9986 -26.111,-2.8659 -52.22172,-5.7317 -78.33216,-8.5976 -16.1101,-1.7883 -32.23167,-3.5772 -48.36471,-5.3666 0,0 -1e-5,0 -1e-5,0 -13.56357,-0.3225 -27.27255,0.9621 -40.54744,4.4534 -5.04259,1.3533 -10.03405,2.9851 -14.91123,4.9703 -3.59167,1.4657 -7.03572,3.1031 -10.42874,4.6631 -3.14155,1.4384 -6.26047,2.7646 -9.41081,3.7456 0,0 0,0 0,0 -3.61727,1.3396 -7.39375,2.2229 -11.22089,2.8504 0,0 -1e-5,0 -1e-5,0 -1.51129,-1.171 -3.29516,-2.1305 -5.34059,-2.6515 -1.47485,-0.3794 -2.67805,-0.6404 -3.42768,-1.1281 -2.36783,-1.2471 -4.53736,-3.3958 -6.97552,-5.6804 -1e-5,0 -1e-5,0 -1e-5,-1e-4 -5.39575,-5.1804 -10.43004,-10.8447 -15.50979,-16.5953 0,0 0,0 0,0 -3.55732,-3.9937 -6.03384,-9.2104 -8.57731,-14.6822 -2.93149,-6.43479 -5.50322,-13.1576 -8.27832,-19.94613 z"
           id="path3896"
           inkscape:path-effect="#path-effect3898"
           inkscape:original-d="m 177.43353,980.29406 c 5.76047,13.46547 11.32022,27.93454 18.2451,35.57794 28.82034,31.5885 23.75666,20.1635 33.75342,26.4554 21.18273,-3.0116 23.6195,-10.0639 47.43724,-16.8767 12.52734,-3.5312 25.7882,-5.1157 39.68308,-5.0174 l 48.3495,4.5612 78.4539,7.2981"
           inkscape:connector-curvature="0"
           sodipodi:nodetypes="ccccccc" />
        <path
           style="fill:#ff8300;fill-opacity:1;fill-rule:evenodd;stroke:none"
           d="m 7.7128335,979.52463 -9.0398842,4.27562 c 5.5056204,11.05884 11.0164574,22.13055 16.5325107,33.21515 1.954554,5.7448 4.052591,12.4803 8.843819,18.1385 4e-6,0 8e-6,0 1.2e-5,0 1.121065,1.2501 2.309311,2.2123 3.450123,2.9754 1.515985,0.7989 2.880646,1.5037 3.967762,2.2271 7.968348,-1.8983 16.055915,-4.3975 23.244168,-8.7069 4e-6,0 8e-6,0 1.1e-5,0 3.91417,-2.7103 6.968567,-5.9538 10.019747,-8.7375 6.110919,-3.7585 12.343651,-7.2336 18.929306,-9.7433 4.186915,-1.6071 8.500651,-2.8052 12.870154,-3.2214 3.254625,-0.3261 6.641348,-0.1721 10.100078,0.037 1e-5,0 1e-5,0 2e-5,0 3.40346,0.2187 6.92075,0.3881 10.49639,0.07 13.98782,2.1221 28.04718,4.2583 42.17809,6.4085 17.09162,7.9969 34.23352,16.0101 51.42569,24.0397 -16.86533,-8.6951 -33.78094,-17.4065 -50.74683,-26.1343 -14.14898,-2.7152 -28.36951,-5.4445 -42.66159,-8.1877 -3.36292,0.1656 -6.81068,-0.1471 -10.33938,-0.4964 -3.49871,-0.3606 -7.106043,-0.6526 -10.811947,-0.4475 -4.92458,0.2931 -9.731814,1.4062 -14.307548,2.977 -7.272762,2.5162 -14.123981,5.9979 -20.703498,9.7406 -3.568727,2.9603 -6.690679,6.0353 -10.100543,8.1391 -2e-6,0 -3e-6,0 -5e-6,0 -5.211353,3.841 -11.420292,6.1242 -17.756582,8.1699 -0.462835,-1.0564 -0.968597,-1.8183 -1.378733,-2.3832 0,0 -1e-6,0 -2e-6,0 -0.813978,-0.6211 -1.495983,-1.1837 -1.921833,-1.7623 -10e-7,0 -10e-7,0 -2e-6,0 -3.397218,-4.0219 -4.770283,-10.0411 -6.893098,-16.3017 C 17.98232,1002.3987 12.850185,990.96809 7.7128335,979.52463 z"
           id="path3900"
           inkscape:path-effect="#path-effect3902"
           inkscape:original-d="m 3.1928914,981.66244 15.9644566,33.75346 c 7.174614,21.1249 9.39871,17.4973 13.227693,21.8941 20.403576,-5.6256 24.077253,-11.2512 30.560531,-16.8767 31.948998,-18.8849 39.038618,-11.253 54.279158,-12.3155 l 42.41984,7.2981 51.08626,25.087"
           inkscape:connector-curvature="0"
           sodipodi:nodetypes="ccccccc" />
        <path
           style="fill:#ff8300;fill-opacity:1;fill-rule:evenodd;stroke:none"
           d="m 199.16649,980.65615 -8.80024,4.74934 c 5.51446,9.33149 11.03495,18.67511 16.56146,28.03071 2.50441,5.01 5.6343,9.8974 9.71974,14.0439 2.98627,2.9791 6.2783,5.3183 9.4731,7.4932 1.43774,0.9717 3.6809,2.199 6.67419,2.1931 0,0 0,0 0,0 1.68591,-0.2224 3.04253,-0.9749 3.97562,-1.9814 1.39639,-1.8788 2.22266,-3.895 2.79369,-5.754 -7.00007,-10.9773 -13.97516,-21.7147 -20.92525,-32.21234 0,0 0,0 0,0 -4.0742,-4.8205 -7.92709,-9.70354 -11.55867,-14.64912 -0.005,0.15548 -0.004,0.30924 0.002,0.46128 0.006,-0.15204 0.006,-0.30236 0.002,-0.45095 3.66644,5.08921 7.11158,10.24097 10.33541,15.45527 0,0 0,0 1e-5,1e-5 6.12556,10.78835 12.22613,21.33685 18.30171,31.64545 -0.70723,0.9946 -1.36869,1.8167 -2.22371,2.1078 -0.4343,0.3112 -0.83313,0.5447 -1.04177,0.453 -0.64495,0.2449 -1.66991,-0.8148 -3.3606,-1.7173 -2.90879,-2.3573 -5.69565,-4.6567 -7.85974,-7.2693 -3.22882,-3.7946 -5.61238,-8.356 -7.61311,-13.1574 -4.81237,-9.8017 -9.63077,-19.61542 -14.4552,-29.44125 z"
           id="path3904"
           inkscape:path-effect="#path-effect3906"
           inkscape:original-d="m 194.76637,983.03082 15.50833,28.73598 c 5.77761,12.5826 11.55523,16.6918 17.33284,20.9819 3.34493,2.0039 6.68987,4.2742 10.0348,-3.1929 l -19.61348,-31.9289 -10.94705,-15.0522 0,0.45612"
           inkscape:connector-curvature="0"
           sodipodi:nodetypes="ccccccc" />
        <path
           style="fill:#ff8300;fill-opacity:1;fill-rule:evenodd;stroke:none"
           d="m 285.92829,979.1601 -9.9077,1.35566 c 1.34395,9.28748 4.70569,19.13955 11.97762,26.42724 5.7417,5.2992 12.84909,8.0656 19.74925,9.4451 1e-5,0 1e-5,0 1e-5,0 47.46346,1.6677 94.34048,4.3853 140.63105,8.1528 0,0 0,0 1e-5,0 -0.15157,-0.1578 -0.3054,-0.3106 -0.4615,-0.4586 0.14799,0.1561 0.29825,0.3073 0.45078,0.4536 0,0 -1e-5,0 -1e-5,0 -47.06348,-4.1387 -93.54052,-9.3273 -139.43111,-15.5658 -5.84408,-1.6507 -11.3675,-4.0438 -14.83508,-8.0606 -5.1803,-5.30882 -7.11607,-13.48797 -8.17332,-21.7494 z"
           id="path3908"
           inkscape:path-effect="#path-effect3910"
           inkscape:original-d="m 280.97444,979.83793 c 3.21543,23.49967 14.52995,29.78877 27.36764,32.84117 l 140.03109,11.8593 -0.45613,-0.4561"
           inkscape:connector-curvature="0"
           sodipodi:nodetypes="cccc" />
        <path
           style="fill:#ff8300;fill-opacity:1;fill-rule:evenodd;stroke:none"
           d="m 229.118,982.24643 -9.4067,3.3933 c 3.4591,8.29987 7.34298,16.48797 11.92647,24.29507 3.70945,5.8782 7.65125,11.343 11.45801,16.6677 7.52278,1.1623 15.00344,0.4453 21.73524,-1.7861 2.73563,-0.9679 5.48053,-2.2757 7.7977,-4.2222 0,0 0,0 1e-5,0 1.64572,-1.237 3.04375,-3.2207 3.11533,-5.603 3.34281,-1.5421 6.87476,-3.0154 10.69424,-3.0535 2.54813,-0.066 5.23834,0.9077 6.85159,3.022 -1.39395,-2.2649 -4.06969,-3.6253 -6.83226,-3.8198 -4.09432,-0.2298 -8.23417,1.1738 -12.11212,2.8761 -0.21387,1.7257 -1.69469,3.2361 -3.30897,4.5151 -2.10111,1.4632 -4.61648,2.3226 -7.21622,2.9924 -6.05011,1.6918 -12.29354,2.0557 -17.94759,0.9507 0,0 0,0 0,0 -2.86194,-5.3854 -5.58082,-10.6506 -7.72508,-15.9489 -3.60444,-7.82626 -6.50037,-15.97808 -9.02965,-24.27887 z"
           id="path3912"
           inkscape:path-effect="#path-effect3914"
           inkscape:original-d="m 224.41465,983.94308 c 7.49489,20.77692 13.75673,30.45652 20.0696,40.59532 12.68751,2.183 30.0361,-2.4873 30.56054,-10.0348 9.1159,-4.0958 15.21087,-3.9624 18.24509,0.4561"
           inkscape:connector-curvature="0"
           sodipodi:nodetypes="cccc" />
        <path
           style="fill:#ff8300;fill-opacity:1;fill-rule:evenodd;stroke:none"
           d="m 16.191402,960.60916 -9.5764376,2.87962 c 6.6987896,17.79607 13.2119206,35.71405 19.8991316,53.56212 0.784993,2.1015 1.524055,4.3259 2.625929,6.4008 10e-7,0 10e-7,0 10e-7,0 0.559989,1.0429 1.293309,1.8823 1.966132,2.7117 0,0 1e-6,0 2e-6,0 1.194967,1.471 2.366297,2.9222 3.51399,4.3535 0.324613,0.1409 0.643382,0.2759 0.957786,0.4073 -0.293763,-0.1727 -0.583162,-0.3417 -0.868197,-0.5071 -0.981392,-1.6102 -1.937668,-3.1984 -2.870308,-4.7669 0,0 -1e-6,0 -2e-6,0 -0.564127,-0.9377 -1.155529,-1.8247 -1.48333,-2.7476 0,0 -1e-6,0 -1e-6,0 -0.764915,-2.0587 -1.163609,-4.2553 -1.678772,-6.499 -4.210622,-18.57363 -8.237223,-37.18374 -12.485924,-55.79444 z"
           id="path3916"
           inkscape:path-effect="#path-effect3918"
           inkscape:original-d="m 11.403183,962.04897 c 19.613476,65.22623 16.876712,59.29653 20.069603,63.85783 3.192892,4.5613 3.192892,4.5613 3.192892,4.5613 l 0.912254,0.4561"
           inkscape:connector-curvature="0" />
        <path
           style="fill:#ff8300;fill-opacity:1;fill-rule:evenodd;stroke:none"
           d="m 30.900042,963.79456 -9.801568,1.98234 c 2.933425,10.21273 6.198627,20.01987 7.813153,30.14686 0.24344,1.47916 0.397014,3.09037 0.674665,4.76474 0.477729,2.821 1.210893,5.5057 1.954325,8.1384 0,0 0,0 0,0 10e-7,0 10e-7,0 10e-7,0 0,0 0,0 0,0 1.277856,4.5363 2.505808,9.1514 4.144012,13.5944 0,0 0,0 0,0 0.187822,0.5116 0.362869,1.0529 0.651624,1.5238 0,0 0,0 0,0 1e-6,0 2e-6,0 2e-6,0 0.03456,0.05 0.06765,0.1134 0.120544,0.1425 0,0 10e-7,0 2e-6,0 0.0071,0 0.01564,0.01 0.02351,0 0.0036,-0 0.0073,-0 0.0094,-0.01 3.4e-4,-6e-4 5.03e-4,-9e-4 5.03e-4,-9e-4 0,0 -1.64e-4,3e-4 -5.09e-4,9e-4 -0.0021,0 -0.0059,0.01 -0.0096,0.01 -0.0081,0 -0.01705,-0 -0.0243,-0.01 -0.0509,-0.034 -0.06638,-0.096 -0.08679,-0.1545 -10e-7,0 -10e-7,0 -10e-7,0 -0.205472,-0.5065 -0.281538,-1.0462 -0.386729,-1.5899 0,0 0,0 0,0 -0.881663,-4.6331 -1.320499,-9.3077 -1.840532,-14.0176 -1e-6,0 -1e-6,0 -1e-6,0 -0.295184,-2.7088 -0.57007,-5.3832 -0.56863,-7.9829 -0.0011,-1.49763 0.112289,-3.07493 0.118758,-4.77117 0.05544,-10.76469 -1.572297,-21.45119 -2.791818,-31.77247 z"
           id="path3920"
           inkscape:path-effect="#path-effect3922"
           inkscape:original-d="m 25.999258,964.78573 c 8.210292,40.59537 3.649019,27.36764 6.84191,43.78827 3.192892,16.4205 3.649019,15.5083 3.649019,15.5083"
           inkscape:connector-curvature="0" />
        <path
           style="fill:#ff8300;fill-opacity:1;fill-rule:evenodd;stroke:none"
           d="m 44.682871,964.739 -9.999584,0.0935 c 0.435336,12.97238 0.775358,26.00019 1.400137,39.04874 0.148622,3.1111 0.45096,6.102 0.675662,8.9998 -0.04315,1.3176 0.507639,2.986 1.845643,4.6994 7e-6,0 1.4e-5,0 2.1e-5,0 1.388807,1.333 2.899064,1.9888 4.304265,2.0374 3.125103,0.096 5.565034,-0.8051 7.299908,-1.7759 4e-6,0 7e-6,0 1.1e-5,0 2.068496,-0.988 3.975103,-2.1387 5.762333,-3.3444 0.621247,-0.4171 1.237259,-0.8467 1.846498,-1.29 0.174215,-0.1268 0.35056,-0.2566 0.528612,-0.39 -0.128273,0.05 -0.254802,0.098 -0.379652,0.1455 -8e-6,0 -1.6e-5,0 -2.4e-5,0 0.01091,-0.01 0.02181,-0.017 0.03269,-0.025 0.0039,-0 0.0079,-0.01 0.01184,-0.01 10.198321,-3.171 20.475069,-6.3674 30.830279,-9.5892 2e-6,0 3e-6,0 5e-6,0 12.683818,-0.2975 25.439488,-0.5982 38.267018,-0.9022 10.38154,1.6857 20.82637,3.388 31.33447,5.1069 9.74736,5.1838 19.56517,10.4049 29.45344,15.6632 0.46378,0.4426 0.92924,0.8864 1.3964,1.3315 -0.4451,-0.4672 -0.89189,-0.9356 -1.34037,-1.4053 -9.57317,-5.6888 -19.21679,-11.4148 -28.93086,-17.178 -1e-5,0 -1e-5,0 -1e-5,0 -10.47375,-2.2342 -21.01078,-4.4849 -31.61108,-6.7523 -13.0197,-0.30403 -26.11125,-0.60476 -39.274647,-0.90217 -4e-6,0 -7e-6,0 -1e-5,0 -10.930728,2.85977 -21.939917,5.74507 -33.027569,8.65587 -0.0044,0 -0.0088,0.01 -0.01311,0.01 -0.01202,0.01 -0.02406,0.016 -0.03611,0.025 -0.212516,0.1106 -0.426979,0.2224 -0.643335,0.3354 -7e-6,0 -1.4e-5,0 -2e-5,0 -0.150954,0.1021 -0.305718,0.2047 -0.463945,0.3086 -10e-7,0 -2e-6,0 -4e-6,0 -0.553154,0.3629 -1.115899,0.7159 -1.686879,1.0604 -1e-6,0 -3e-6,0 -4e-6,0 -1.668137,1.0012 -3.324974,1.9034 -4.997056,2.5941 -1.719641,0.5795 -2.977584,1.1871 -3.620326,0.9082 0.0091,-0.09 0.120939,0.028 0.569859,0.3196 10e-7,0 2e-6,0 3e-6,0 0.197006,0.4488 0.346879,0.3442 0.214213,-0.039 -0.08739,-3.032 -0.243873,-5.9639 -0.236592,-8.7891 0.0059,-12.94527 0.295535,-25.92145 0.487879,-38.9491 z"
           id="path3924"
           inkscape:path-effect="#path-effect3926"
           inkscape:original-d="m 39.683079,964.78573 c 0.456127,48.80567 0.456127,39.22697 0.912254,47.89337 0.456127,8.6664 15.964457,-2.7368 15.964457,-2.7368 l 31.928913,-9.1225 38.770827,0 31.47278,5.9296 29.19215,16.4206 1.36838,1.3684"
           inkscape:connector-curvature="0"
           sodipodi:nodetypes="cscccccc" />
        <path
           style="fill:#ff8300;fill-opacity:1;fill-rule:evenodd;stroke:none"
           d="m 228.35322,948.94625 -6.05235,7.9605 c -0.006,-0.006 -0.0117,-0.0115 -0.0173,-0.0168 -0.0146,-0.014 -0.0277,-0.0263 -0.0391,-0.0371 -0.047,-0.0445 -0.0663,-0.0648 -0.0565,-0.0632 -0.0215,-0.0529 0.0375,0.006 0.19021,0.15434 0,0 0,0 0,0 0,0 0,0 0,10e-6 0.74279,0.75307 1.4438,1.85314 2.24929,3.13251 0,10e-6 1e-5,10e-6 1e-5,10e-6 4.55652,7.38178 7.82723,15.86437 11.12142,24.47982 0,0 0,0 0,0 0,0 0,10e-6 0,10e-6 2.78241,7.31945 5.56307,14.6072 8.14655,21.95342 0.70367,2.0061 1.46137,4.0134 2.32474,5.9928 1.21061,3.0121 3.52939,5.862 6.83786,7.1251 0,0 0,0 0,0 3.83314,1.1636 7.54684,-0.4443 10.00343,-2.836 2.17928,-2.0353 4.02665,-4.2207 6.30461,-5.7616 1.81035,-1.2758 4.21984,-1.7051 6.62198,-1.9896 0,0 0,0 0,0 2.5062,-0.2847 5.01468,-0.5449 7.53006,-0.7495 0,0 0,0 0,0 0.61599,-0.05 1.23219,-0.097 1.84913,-0.1366 0.15422,-0.01 0.30846,-0.019 0.46279,-0.028 0.054,-0 0.10747,-0.01 0.16146,-0.01 1.7e-4,0 2.6e-4,0 2.6e-4,0 0,0 -9e-5,0 -2.6e-4,0 -0.054,-0 -0.10759,-0 -0.1616,-0.01 -0.15452,-0.01 -0.3091,-0.011 -0.46368,-0.015 -0.61841,-0.018 -1.23727,-0.028 -1.85609,-0.036 0,0 0,0 0,0 -2.52691,-0.03 -5.05634,-0 -7.58427,0.047 -2.46069,0.04 -5.05904,0.2744 -7.40395,1.5453 -2.6522,1.4808 -4.82599,3.5716 -7.03711,5.2995 -2.28706,1.6742 -5.23834,2.7447 -7.21535,1.6112 -1e-5,0 -1e-5,0 -1e-5,0 0,0 0,0 0,0 -2.04978,-0.8553 -3.36547,-3.1669 -4.22323,-5.5325 -0.63467,-1.9154 -1.17093,-3.8755 -1.66638,-5.8665 -1.91056,-7.63386 -4.01727,-15.20511 -6.10743,-22.74698 0,0 0,0 0,0 -2.45397,-8.91642 -5.06637,-18.06399 -9.3615,-26.87034 0,0 -1e-5,0 -1e-5,-10e-6 -0.71829,-1.50736 -1.62034,-3.1726 -2.89273,-4.87449 0,0 0,0 0,-10e-6 -0.25152,-0.34396 -0.6139,-0.76593 -1.10595,-1.24844 -0.0963,-0.0954 -0.22434,-0.20992 -0.38581,-0.34144 -0.0393,-0.032 -0.0806,-0.0651 -0.12412,-0.0989 -0.0161,-0.0125 -0.0323,-0.0251 -0.0491,-0.0377 z"
           id="path3932"
           inkscape:path-effect="#path-effect3934"
           inkscape:original-d="m 225.32691,952.92642 c 0,0 4.56127,2.73676 13.68381,30.56053 9.12255,27.82375 6.84191,22.35025 9.12255,28.27985 2.28064,5.9297 7.75417,9.5787 14.13995,4.1052 6.38578,-5.4735 6.84191,-6.8419 13.68382,-7.298 6.84191,-0.4562 10.0348,-0.4562 10.0348,-0.4562"
           inkscape:connector-curvature="0"
           sodipodi:nodetypes="cssscc" />
        <path
           style="fill:#ff8300;fill-opacity:1;fill-rule:evenodd;stroke:none"
           d="m 52.400922,944.5706 -9.927358,1.20332 c 1.547476,9.86683 3.096096,19.75955 4.645861,29.67814 1.087053,9.84925 1.91758,19.59441 2.491583,29.23544 0.06083,0.026 0.12166,0.053 0.182459,0.079 0.166005,0.072 0.332038,0.1439 0.498089,0.2158 3.4e-5,0 6.7e-5,0 1e-4,0 0.63762,0.2759 1.275508,0.5507 1.913584,0.8242 0.118948,-0.1021 0.242907,-0.2057 0.371275,-0.3114 10e-7,0 3e-6,0 5e-6,0 0.468263,-0.3854 0.952732,-0.7631 1.449812,-1.1361 1e-6,0 1e-6,0 2e-6,0 1.634647,-1.2251 3.339939,-2.351 5.112683,-3.3514 10e-7,0 2e-6,0 3e-6,0 2.211864,-1.24085 4.485454,-2.29306 6.834825,-2.96098 2.361873,-0.65279 4.771317,-0.98835 6.999351,-0.56935 9.35381,1.68787 18.735286,0.72644 27.737564,-0.95267 0,0 1e-5,0 1e-5,-10e-6 7.52544,-1.36808 14.97648,-3.23838 22.34827,-2.05433 4.19837,0.66758 8.3924,1.31799 12.55318,2.17193 0,0 1e-5,0 1e-5,0 0.59967,0.12314 1.19852,0.24461 1.78755,0.40879 0.12048,0.0341 0.25048,0.0454 0.34986,0.11897 5.9e-4,4.1e-4 8.2e-4,6.2e-4 8.2e-4,6.2e-4 0,0 -2e-4,-2.4e-4 -7.3e-4,-7.3e-4 -0.0943,-0.0801 -0.22717,-0.10254 -0.34242,-0.14273 -0.57784,-0.20368 -1.17054,-0.36612 -1.76044,-0.52902 -4.09879,-1.13218 -8.25528,-2.06634 -12.39714,-3.013 0,0 -1e-5,-10e-6 -1e-5,-10e-6 -7.54338,-1.70275 -15.4202,-0.36304 -22.91677,0.53491 0,0 0,0 0,0 -8.961896,1.03075 -18.034187,1.36628 -26.433142,-0.80515 -3.06785,-0.73228 -6.206942,-0.58195 -9.10572,0.0681 -2.871241,0.62499 -5.600822,1.65227 -8.163518,2.8873 -2.062521,0.9884 -4.05371,2.11651 -5.96518,3.35913 -3e-6,0 -5e-6,0 -7e-6,0 -0.58205,0.37798 -1.1629,0.77124 -1.739635,1.18364 -3e-6,0 -5e-6,0 -7e-6,0 -0.158002,0.113 -0.318893,0.23 -0.482196,0.3518 3e-5,0 6e-5,0 8.9e-5,0 0.563772,0.3325 1.127536,0.6664 1.691361,1.0019 1.4e-5,0 2.9e-5,0 4.4e-5,0 0.146837,0.087 0.293678,0.1748 0.440534,0.2624 0.05383,0.032 0.107629,0.064 0.161473,0.096 1.182136,-9.21216 2.620834,-18.3203 4.316057,-27.32434 -0.882916,-10.15101 -1.766977,-20.3279 -2.652181,-30.53066 z"
           id="path3936"
           inkscape:path-effect="#path-effect3938"
           inkscape:original-d="m 47.437243,945.17226 3.649019,30.1044 -0.912255,28.27994 c 0,0 12.771565,-10.49097 23.262494,-8.21034 20.077058,4.36458 35.577929,-4.10514 49.717879,-1.36838 14.13995,2.73677 14.59608,3.19289 14.59608,3.19289"
           inkscape:connector-curvature="0"
           sodipodi:nodetypes="cccssc" />
        <path
           style="fill:#ff8300;fill-opacity:1;fill-rule:evenodd;stroke:none"
           d="m 137.80557,969.76639 -8.32052,5.54702 c 5.61077,7.19711 11.46726,14.86032 18.81292,21.0565 2.13286,1.80379 4.48797,3.43459 7.06701,4.68019 2.28318,1.0884 4.63873,1.8118 6.98012,2.3231 3.7981,0.8326 7.42285,0.7877 10.84818,1.5269 1.4318,0.3034 2.83074,0.8532 4.09312,1.6589 1.76143,1.1193 3.29587,2.6614 4.70842,4.2956 -1.14245,-1.8333 -2.42906,-3.6158 -4.10056,-5.0978 -1.21911,-1.0746 -2.65239,-1.9263 -4.2027,-2.5176 -3.51367,-1.3424 -7.22083,-1.8993 -10.36174,-3.1484 -2.06326,-0.81009 -4.02318,-1.76076 -5.73442,-2.95083 -1e-5,0 -1e-5,0 -1e-5,0 -1.95874,-1.34283 -3.69537,-3.0293 -5.30544,-4.86994 -5.76992,-6.57424 -9.94092,-14.46941 -14.48438,-22.50364 z"
           id="path3940"
           inkscape:path-effect="#path-effect3942"
           inkscape:original-d="m 133.64531,972.5399 c 14.59607,21.89411 20.0696,26.45538 29.19215,29.1921 9.12255,2.7368 12.77156,0.4562 19.15735,9.1226"
           inkscape:connector-curvature="0" />
        <path
           style="fill:#ff8300;fill-opacity:1;fill-rule:evenodd;stroke:none"
           d="m 162.53781,976.31059 -8.52324,5.23018 c 5.13701,5.76749 10.52609,11.69285 16.66193,16.26443 0,0 0,0 0,0 1.55889,0.89447 3.05096,1.7473 4.47621,2.5585 1.3e-4,0 1.9e-4,0 1.9e-4,0 0,0 -4e-5,0 -1.3e-4,-10e-5 0,0 0,0 0,0 -1.14009,-1.33735 -2.21337,-2.63305 -3.21982,-3.8871 -4.09333,-6.33374 -6.71202,-13.18948 -9.39514,-20.16591 z"
           id="path3944"
           inkscape:path-effect="#path-effect3946"
           inkscape:original-d="m 158.27619,978.92568 c 12.31543,20.0696 16.87671,21.43802 16.87671,21.43802"
           inkscape:connector-curvature="0" />
        <path
           style="fill:#ff8300;fill-opacity:1;fill-rule:evenodd;stroke:none"
           d="m 253.09386,962.33462 -9.92118,1.2532 c 1.67322,8.45752 3.08435,16.97309 4.15468,25.5474 0.60212,4.79631 1.01242,9.72137 1.6494,14.66678 0.16282,1.3154 0.35482,2.7441 0.76181,4.2039 0,0 0,0 0,0 0.1612,0.8467 0.63319,1.937 1.61957,2.9248 1.06471,0.8016 2.16727,1.0229 3.07787,0.866 1.23559,-0.1577 2.26778,-0.5584 3.16881,-0.9488 0,0 10e-6,0 10e-6,0 6.50939,-1.6584 13.0829,-3.3286 19.72051,-5.0107 5e-5,0 8e-5,0 8e-5,0 0,0 -3e-5,0 -8e-5,0 -6.74207,0.7506 -13.54824,1.513 -20.41852,2.2873 -10e-6,0 -10e-6,0 -10e-6,0 -1.00077,0.2435 -1.90098,0.4775 -2.66641,0.4409 -0.36104,-0.08 -0.61815,-0.1091 -0.48027,-0.1816 -0.13238,-0.067 -0.12172,-0.5468 -0.29225,-1.2017 0,0 0,0 0,0 -0.16141,-1.1132 -0.1385,-2.3281 -0.1344,-3.643 0.0457,-4.85274 0.31502,-9.74832 0.38079,-14.75338 0.11909,-8.80916 -0.11188,-17.63639 -0.62041,-26.4511 z"
           id="path3948"
           inkscape:path-effect="#path-effect3950"
           inkscape:original-d="m 248.13327,962.96122 c 5.47353,43.33208 -0.45613,49.71788 9.12255,46.52498 9.57867,-3.1929 20.0696,-3.649 20.0696,-3.649"
           inkscape:connector-curvature="0" />
        <path
           style="fill:#ff8300;fill-opacity:1;fill-rule:evenodd;stroke:none"
           d="m 264.99246,941.10308 -9.99976,-0.0719 c 0.71542,12.11936 1.74288,24.35412 3.96104,36.38258 1.08292,5.96644 2.409,12.13875 5.06836,17.77681 1.01723,2.19404 2.43235,4.6587 4.79629,5.99847 0.65351,0.1224 1.30106,0.2423 1.94265,0.3597 3.7067,0.6719 7.41523,1.3412 11.12565,2.0079 -3.58761,-1.1579 -7.17712,-2.3131 -10.76851,-3.4657 -0.55042,-0.16839 -1.09481,-0.33432 -1.63324,-0.49774 -1.60625,-1.10572 -2.2366,-3.26461 -2.9403,-5.40433 0,0 0,0 0,0 -1.77478,-5.52835 -2.17266,-11.40547 -2.48552,-17.37227 0,0 0,0 0,0 -0.57789,-11.87618 0.0448,-23.76586 0.93334,-35.71348 z"
           id="path3952"
           inkscape:path-effect="#path-effect3954"
           inkscape:original-d="m 259.99258,941.06711 c -0.45613,63.40169 10.94706,59.75269 10.94706,59.75269 l 10.94705,2.7368"
           inkscape:connector-curvature="0"
           sodipodi:nodetypes="ccc" />
        <path
           style="fill:#ff8300;fill-opacity:1;fill-rule:evenodd;stroke:none"
           d="m 301.89543,947.25107 -9.91306,1.3159 c 1.77612,10.06996 3.44515,20.19451 5.19174,30.32548 0.95664,5.57698 1.85769,11.35159 3.43104,17.07055 0.43323,1.60957 0.97963,3.32367 1.80994,5.0266 0,0 0,0 0,0 0.54586,1.1772 1.38156,2.4041 2.59406,3.4704 0,0 0,0 1e-5,0 1.10821,0.9002 2.34552,1.4528 3.58364,1.697 1.40676,0.2722 2.70056,0.287 3.85443,0.2267 5.04059,-0.2023 10.01112,-1.2372 14.65382,-3.0416 3.58379,-1.3579 7.22138,-3.2333 9.97617,-6.17222 1.59332,-1.73782 3.28482,-3.42007 4.97618,-5.12395 2.38282,-2.40053 4.78277,-4.78763 7.18808,-7.17111 3.09115,-3.04699 6.18267,-6.09433 9.27458,-9.14201 2e-5,-2e-5 3e-5,-2e-5 3e-5,-2e-5 0,0 -1e-5,0 -3e-5,10e-6 -3.33877,2.7742 -6.67792,5.54875 -10.01745,8.32364 -2.59988,2.17188 -5.19668,4.3495 -7.78148,6.54527 -1.82365,1.54839 -3.6698,3.09707 -5.46266,4.74544 -2.49719,2.31312 -5.85218,3.6123 -9.29521,4.66085 -4.40092,1.2927 -8.99336,1.836 -13.51203,1.6336 -1.03798,-0.06 -1.95502,-0.1258 -2.67924,-0.3665 0,0 0,0 0,0 -0.5418,-0.1843 -1.01033,-0.431 -1.27161,-0.7458 0,0 0,0 0,0 -0.39935,-0.3637 -0.70121,-1.02963 -1.04249,-1.8161 -0.48469,-1.20773 -0.77579,-2.59667 -1.06757,-4.09769 -1.01199,-5.37296 -1.38451,-10.95006 -1.8857,-16.66863 -0.87817,-10.2062 -1.68296,-20.43824 -2.60519,-30.69581 z"
           id="path3956"
           inkscape:path-effect="#path-effect3958"
           inkscape:original-d="m 296.9389,947.90902 c 6.84191,51.54239 5.47352,56.10368 15.50833,56.10368 10.0348,0 19.61347,-3.649 23.71862,-7.75418 4.10514,-4.10515 22.35024,-20.52573 22.35024,-20.52573"
           inkscape:connector-curvature="0" />
        <path
           style="fill:#ff8300;fill-opacity:1;fill-rule:evenodd;stroke:none"
           d="m 381.62129,973.32006 -6.0712,-7.94612 c -7.76499,6.48209 -15.59476,12.91485 -23.42489,19.36352 -4.32308,3.55941 -8.7718,7.13096 -13.02145,11.02088 -1.1247,1.02288 -2.3065,2.1381 -3.4183,3.4334 -0.62771,0.63891 -1.36968,1.65976 -1.89825,3.12626 -0.38437,1.2291 -0.19369,2.5586 0.57305,3.7779 0.86297,1.058 1.71569,1.6367 2.36451,1.9109 7.22605,3.8024 15.9163,3.5852 22.87865,0.1854 1.89135,-0.9083 3.54149,-2.2972 4.71316,-4.0348 0.97171,-1.3917 1.61169,-3.1424 1.50135,-4.98379 -0.14853,-1.71484 -1.17895,-3.20574 -2.67673,-3.94062 -2.2222,-0.97925 -4.57078,-0.67732 -6.59527,-0.12978 -3.92489,0.96837 -8.02459,2.39158 -10.87914,5.28749 0,0 0,0 -1e-5,0 -0.61398,0.5901 -1.31106,1.3926 -1.18549,2.2852 0.0506,0.3046 0.25781,0.5538 0.51674,0.6865 0.37424,0.1904 0.79806,0.2116 1.20263,0.1942 -0.40457,-0.017 -0.82149,-0.076 -1.15105,-0.2851 -0.22052,-0.1392 -0.38037,-0.3731 -0.39372,-0.616 -0.071,-0.7887 0.65822,-1.4103 1.28042,-1.9767 0,0 10e-6,0 10e-6,0 2.98811,-2.56986 6.99329,-3.5138 10.90093,-4.17721 0,0 0,0 10e-6,0 1.96913,-0.28446 4.00428,-0.42385 5.40656,0.46889 0.80465,0.4543 1.32182,1.4285 1.28586,2.30262 0,0 0,0 0,0 0.0191,1.1368 -0.59784,2.2918 -1.37795,3.312 -0.98381,1.2301 -2.34171,2.1597 -3.81071,2.7215 -6.32333,2.4126 -13.78499,1.8656 -19.08505,-1.639 -0.46682,-0.3766 -0.75069,-0.508 -0.61991,-0.5141 0,0 10e-6,0 10e-6,0 0.18248,0.3704 0.2699,0.579 0.20778,0.8291 0,0 0,0 0,0 -4.6e-4,-0.1377 0.4072,-0.4365 0.92226,-1.0412 0,0 0,0 0,0 0.90905,-0.9039 1.99411,-1.7474 3.15456,-2.6477 4.35847,-3.35452 8.98645,-6.44884 13.64774,-9.66163 8.3507,-5.74803 16.71689,-11.4922 25.05289,-17.31201 z"
           id="path3964"
           inkscape:path-effect="#path-effect3966"
           inkscape:original-d="m 378.58569,969.347 c -40.59533,31.0167 -46.06886,33.2973 -40.59533,36.4902 5.47352,3.1929 13.68382,4.1051 20.98185,0.9122 7.29804,-3.1928 8.66642,-13.22765 -2.28063,-10.94701 -10.94706,2.28064 -14.59608,7.75421 -10.49093,7.75421"
           inkscape:connector-curvature="0" />
        <path
           style="fill:#ff8300;fill-opacity:1;fill-rule:evenodd;stroke:none"
           d="m 403.72088,964.0467 -7.39442,-6.73224 c -8.78971,10.30921 -17.92244,20.95547 -24.80122,33.21478 -1.48501,2.6098 -2.90444,5.50384 -3.77374,8.74048 0,0 0,10e-6 -1e-5,10e-6 -0.50029,1.85767 -0.70443,3.87347 -0.48033,5.93737 0,0 0,0 0,0 0.38841,3.3112 2.00447,6.352 4.49575,8.5022 2.55004,2.2369 6.16074,3.0438 9.53161,1.8688 3.04276,-1.2102 5.801,-2.5306 8.57967,-3.1189 3.38543,-0.745 7.05706,-0.4821 10.22669,0.9697 8.06219,3.747 17.19554,6.1416 26.03635,4.7579 3.55512,-0.5901 7.30097,-0.1567 10.99398,0.5127 5.26359,0.9625 10.50629,2.1976 15.79923,3.1021 -5.21732,-1.27 -10.33912,-2.8605 -15.55951,-4.1959 -3.68348,-0.9474 -7.53215,-1.6583 -11.4703,-1.3117 -8.36607,0.767 -16.68982,-2.1812 -24.13764,-6.1893 -3.85228,-2.0591 -8.35304,-2.7573 -12.69372,-2.1091 -3.47752,0.5399 -6.6198,1.7345 -9.55139,2.6967 -1.18658,0.4823 -2.88083,-0.1905 -3.92415,-1.2101 -1.26879,-1.2574 -2.04709,-3.0971 -2.11808,-4.8395 -0.0651,-1.1171 0.17703,-2.3195 0.57445,-3.5272 0,0 0,0 0,0 0.75378,-2.3056 2.11108,-4.54718 3.60982,-6.88188 7.13789,-10.96829 16.58276,-20.43576 26.05696,-30.18692 z"
           id="path3968"
           inkscape:path-effect="#path-effect3970"
           inkscape:original-d="m 400.02367,960.68058 c -27.82376,30.56054 -30.1044,39.22696 -29.64827,44.24432 0.45612,5.0174 5.0174,10.0348 10.0348,8.2103 5.0174,-1.8245 12.31544,-5.4735 20.52573,-1.3684 8.21029,4.1052 17.78896,6.3858 25.087,5.4736 7.29804,-0.9123 13.68382,1.8245 26.91151,4.5612"
           inkscape:connector-curvature="0" />
        <path
           style="fill:#ff8300;fill-opacity:1;fill-rule:evenodd;stroke:none"
           d="m 414.6591,968.61766 -7.37674,-6.7516 c -6.27808,8.32008 -13.06339,16.53837 -19.28753,25.18479 -0.96036,1.2941 -2.03422,2.79893 -2.71484,4.60622 -0.4934,1.43295 -0.57321,2.76437 -0.62901,3.95567 -0.0199,1.10583 -0.50812,2.27257 -1.2559,3.28804 -0.72447,0.97923 -1.70257,1.83522 -2.73354,2.65572 0,0 0,0 -10e-6,0 -0.82521,0.653 -1.75519,1.2742 -2.52688,2.0637 -0.25269,0.2527 -0.50275,0.5523 -0.61357,0.9075 -0.0908,0.3031 -0.0182,0.6214 0.15236,0.8534 -0.12444,-0.2597 -0.12631,-0.5643 -0.003,-0.793 0.1497,-0.2907 0.41904,-0.4965 0.69601,-0.6961 0.86188,-0.6055 1.84136,-1.0123 2.81836,-1.5283 1.19554,-0.6238 2.39305,-1.3322 3.46693,-2.3047 1.14249,-1.03595 2.06018,-2.41568 2.46441,-4.06695 0.30959,-1.18376 0.5565,-2.27208 1.05294,-3.02879 0,0 0,0 0,0 0.64798,-1.13174 1.74322,-2.09536 2.90123,-3.23346 7.59065,-7.21502 15.66516,-13.91593 23.58843,-21.11214 z"
           id="path3972"
           inkscape:path-effect="#path-effect3974"
           inkscape:original-d="m 410.97073,965.24186 c -24.63088,26.91151 -24.17475,24.63087 -25.087,30.56053 -0.91226,5.92961 -9.57868,7.29801 -8.2103,9.57871"
           inkscape:connector-curvature="0" />
        <path
           style="fill:#ff8300;fill-opacity:1;fill-rule:evenodd;stroke:none"
           d="m 465.38637,951.3737 -4.83424,-8.75388 c -10.14922,6.04782 -20.26708,12.07381 -30.35357,18.07797 -8.71281,7.97641 -17.39568,15.93223 -26.04868,23.86748 -2.81947,2.54053 -5.75565,5.00522 -8.71129,7.49045 -1.64692,1.36274 -3.55069,2.83699 -5.18702,4.83091 -0.49499,0.54266 -0.99847,1.3625 -1.31451,2.47309 -0.21896,1.05238 -0.0626,2.06658 0.41306,2.92598 0.58731,0.9718 1.27132,1.6253 1.88551,2.0565 0.92608,0.7086 1.86609,1.2732 2.76137,1.7781 3.78849,2.1523 7.9477,3.4477 12.15041,4.0353 0,0 1e-5,0 1e-5,0 3.91208,0.5481 7.7399,0.6998 11.40926,1.3947 2.9668,0.5605 5.9271,0.7239 8.83539,0.887 3.80522,0.217 7.60553,0.3349 11.4012,0.4389 3.537,0.097 7.07023,0.1694 10.60213,0.2906 1.3102,0.045 2.61916,0.095 3.92673,0.1779 0.8167,0.052 1.63325,0.095 2.43682,0.2467 -0.79229,-0.2027 -1.61131,-0.2986 -2.422,-0.4019 -1.30226,-0.1662 -2.60897,-0.2997 -3.91473,-0.4279 -3.52079,-0.3457 -7.0463,-0.6427 -10.56504,-0.9638 -3.77885,-0.3448 -7.55259,-0.7027 -11.30538,-1.1575 0,0 0,0 0,0 -2.89497,-0.3527 -5.7626,-0.6903 -8.48319,-1.3937 -3.84263,-0.9743 -7.72517,-1.3848 -11.3971,-2.1402 0,0 0,0 0,0 -3.82533,-0.7922 -7.49382,-2.1938 -10.65597,-4.2891 -0.81889,-0.5427 -1.57998,-1.0592 -2.2097,-1.6214 -0.41033,-0.4058 -0.72255,-0.6758 -0.75503,-0.8727 0.0167,-0.01 0.0186,-0.02 0.0389,0.082 0,0 0,0 0,0 -0.0175,-0.075 0.21691,-0.2813 0.51356,-0.66994 1.23338,-1.38221 2.9857,-2.51307 4.81927,-3.89253 0,0 0,-10e-6 1e-5,-10e-6 3.11234,-2.2956 6.24951,-4.60746 9.33424,-7.04861 8.9839,-7.26896 17.93792,-14.51736 26.86205,-21.7452 10.28723,-5.24702 20.54306,-10.47218 30.76754,-15.67551 z"
           id="path3980"
           inkscape:path-effect="#path-effect3982"
           inkscape:original-d="m 462.96925,946.99676 -30.56054,16.87672 c 0,0 -11.85931,10.49092 -26.45538,22.80636 -14.59608,12.31544 -19.15735,12.77157 -10.94706,17.78896 8.2103,5.0174 14.59608,4.1052 22.80637,5.9297 8.21029,1.8245 32.84117,2.2806 36.94631,3.1929"
           inkscape:connector-curvature="0"
           sodipodi:nodetypes="ccsssc" />
        <path
           style="fill:#ff8300;fill-opacity:1;fill-rule:evenodd;stroke:none"
           d="m 433.8825,982.58321 -5.68434,-8.22732 c -7.10098,5.41969 -14.2179,10.84258 -21.29834,16.32473 -0.96997,0.75119 -1.95444,1.51152 -2.9417,2.29321 -0.20609,1.00658 -0.42923,2.01963 -0.66703,3.04158 0,0 0,0 0,0 -0.0246,0.0391 -0.0492,0.0782 -0.0734,0.11776 0,0 -1e-5,1e-5 -1e-5,1e-5 -0.005,0.008 -0.01,0.0161 -0.0146,0.0242 0.95793,1.85151 1.92367,3.64915 2.89116,5.39828 0,0 0,0 0,0 2.04304,1.7377 4.70163,3.3737 7.93903,4.0213 0,0 0,0 0,0 5.88702,0.9103 11.96881,0.9642 17.84309,-0.3243 0,0 0,0 1e-5,0 3.48254,-0.7839 6.89419,-1.6935 10.2868,-2.5737 5.00934,-1.2982 10.00963,-2.6191 15.00688,-3.94589 4.52376,-1.2011 9.04529,-2.40872 13.56533,-3.62092 0,0 0,0 0,0 1.43446,-0.38469 2.86877,-0.76987 4.30289,-1.15566 0.39734,-0.10689 0.79465,-0.21383 1.19195,-0.32084 0,0 0,0 0,0 0,0 0,0 1e-5,0 0.10454,-0.0282 0.20909,-0.0563 0.31364,-0.0845 0,0 0,0 0,0 0.0267,-0.009 0.0536,-0.0162 0.0807,-0.0228 0.009,-0.002 0.019,-0.005 0.0285,-0.007 1e-5,0 2e-5,0 2e-5,0 0,0 -10e-6,0 -2e-5,0 -0.01,0.002 -0.0191,0.004 -0.0287,0.006 -0.0274,0.005 -0.055,0.01 -0.0829,0.0131 -0.10674,0.0182 -0.21348,0.0363 -0.32022,0.0545 -1e-5,0 -1e-5,0 -1e-5,0 -0.40562,0.069 -0.81125,0.13792 -1.21689,0.20679 0,0 0,0 -10e-6,0 -1.4641,0.24857 -2.92829,0.49649 -4.39255,0.74393 0,0 0,0 -10e-6,0 -4.61395,0.77966 -9.22843,1.55455 -13.84359,2.32258 -5.09869,0.8485 -10.1971,1.69034 -15.29637,2.50783 -3.47678,0.55757 -6.92631,1.13594 -10.3552,1.57174 -5.29181,0.682 -10.67894,0.077 -15.91034,-1.23647 -1.50812,-0.30162 -2.96437,-1.59823 -4.58039,-3.02786 0,0 0,0 0,0 -0.94102,-0.15831 -1.88378,-0.26807 -2.82828,-0.32927 0.011,-0.005 0.016,-0.005 0.021,-0.005 0,0 0,0 0,0 0.0247,0.001 0.0497,0.003 0.0748,0.005 0,0 0,0 0,0 0.0554,0.80296 0.12934,1.60238 0.2203,2.39526 1.0057,-0.65203 2.03246,-1.29983 3.07247,-1.9584 7.53397,-4.76807 15.111,-9.48149 22.69634,-14.20872 z"
           id="path3984"
           inkscape:path-effect="#path-effect3986"
           inkscape:original-d="m 431.04033,978.46955 c -25.087,17.33284 -25.54313,17.78897 -25.54313,17.78897 0,0 4.56127,5.47348 9.12254,6.38578 4.56128,0.9123 9.12255,1.8245 16.87672,0.4561 7.75416,-1.3684 45.1566,-9.57865 45.1566,-9.57865"
           inkscape:connector-curvature="0" />
      </g>
      <text
         sodipodi:linespacing="125%"
         id="text3761"
         y="1048.1493"
         x="4.8125"
         style="font-size:72px;font-style:normal;font-variant:normal;font-weight:normal;font-stretch:normal;text-align:start;line-height:125%;letter-spacing:0px;word-spacing:0px;writing-mode:lr-tb;text-anchor:start;fill:#ffffff;fill-opacity:0.57142861;stroke:none;font-family:Arial;-inkscape-font-specification:Arial"
         xml:space="preserve"><tspan
           style="fill:#ffffff;fill-opacity:0.57142861;stroke:none"
           y="1048.1493"
           x="4.8125"
           id="tspan3763"
           sodipodi:role="line">fetchHeaders</tspan></text>
    </g>
  </g>
</svg>
