<?xml version="1.0" encoding="UTF-8" standalone="no"?>
<!-- Created with Inkscape (http://www.inkscape.org/) -->

<svg
   xmlns:dc="http://purl.org/dc/elements/1.1/"
   xmlns:cc="http://creativecommons.org/ns#"
   xmlns:rdf="http://www.w3.org/1999/02/22-rdf-syntax-ns#"
   xmlns:svg="http://www.w3.org/2000/svg"
   xmlns="http://www.w3.org/2000/svg"
   xmlns:sodipodi="http://sodipodi.sourceforge.net/DTD/sodipodi-0.dtd"
   xmlns:inkscape="http://www.inkscape.org/namespaces/inkscape"
   width="505"
   height="125"
   id="svg2"
   version="1.1"
   inkscape:version="0.48.3.1 r9886"
   sodipodi:docname="title.svg">
  <defs
     id="defs4">
    <inkscape:path-effect
       effect="skeletal"
       id="path-effect3986"
       is_visible="true"
       pattern="m 30.649963,976.92708 0,10.00003 10,-5.00003 z"
       copytype="single_stretched"
       prop_scale="1"
       scale_y_rel="false"
       spacing="0"
       normal_offset="0"
       tang_offset="0"
       prop_units="false"
       vertical_pattern="false"
       fuse_tolerance="0" />
    <inkscape:path-effect
       effect="skeletal"
       id="path-effect3982"
       is_visible="true"
       pattern="m 27.913199,978.75159 0,10.00002 10,-5.00002 z"
       copytype="single_stretched"
       prop_scale="1"
       scale_y_rel="false"
       spacing="0"
       normal_offset="0"
       tang_offset="0"
       prop_units="false"
       vertical_pattern="false"
       fuse_tolerance="0" />
    <inkscape:path-effect
       effect="skeletal"
       id="path-effect3978"
       is_visible="true"
       pattern="M 0,0 0,10 10,5 z"
       copytype="single_stretched"
       prop_scale="1"
       scale_y_rel="false"
       spacing="0"
       normal_offset="0"
       tang_offset="0"
       prop_units="false"
       vertical_pattern="false"
       fuse_tolerance="0" />
    <inkscape:path-effect
       effect="skeletal"
       id="path-effect3974"
       is_visible="true"
       pattern="m 27.913199,978.75159 0,10.00002 10,-5.00002 z"
       copytype="single_stretched"
       prop_scale="1"
       scale_y_rel="false"
       spacing="0"
       normal_offset="0"
       tang_offset="0"
       prop_units="false"
       vertical_pattern="false"
       fuse_tolerance="0" />
    <inkscape:path-effect
       effect="skeletal"
       id="path-effect3970"
       is_visible="true"
       pattern="m 27.913199,978.75159 0,10.00002 10,-5.00002 z"
       copytype="single_stretched"
       prop_scale="1"
       scale_y_rel="false"
       spacing="0"
       normal_offset="0"
       tang_offset="0"
       prop_units="false"
       vertical_pattern="false"
       fuse_tolerance="0" />
    <inkscape:path-effect
       effect="skeletal"
       id="path-effect3966"
       is_visible="true"
       pattern="m 27.913199,978.75159 0,10.00002 10,-5.00002 z"
       copytype="single_stretched"
       prop_scale="1"
       scale_y_rel="false"
       spacing="0"
       normal_offset="0"
       tang_offset="0"
       prop_units="false"
       vertical_pattern="false"
       fuse_tolerance="0" />
    <inkscape:path-effect
       effect="skeletal"
       id="path-effect3962"
       is_visible="true"
       pattern="M 0,0 0,10 10,5 z"
       copytype="single_stretched"
       prop_scale="1"
       scale_y_rel="false"
       spacing="0"
       normal_offset="0"
       tang_offset="0"
       prop_units="false"
       vertical_pattern="false"
       fuse_tolerance="0" />
    <inkscape:path-effect
       effect="skeletal"
       id="path-effect3958"
       is_visible="true"
       pattern="m 27.913199,978.75159 0,10.00002 10,-5.00002 z"
       copytype="single_stretched"
       prop_scale="1"
       scale_y_rel="false"
       spacing="0"
       normal_offset="0"
       tang_offset="0"
       prop_units="false"
       vertical_pattern="false"
       fuse_tolerance="0" />
    <inkscape:path-effect
       effect="skeletal"
       id="path-effect3954"
       is_visible="true"
       pattern="m 27.913199,978.75159 0,10.00002 10,-5.00002 z"
       copytype="single_stretched"
       prop_scale="1"
       scale_y_rel="false"
       spacing="0"
       normal_offset="0"
       tang_offset="0"
       prop_units="false"
       vertical_pattern="false"
       fuse_tolerance="0" />
    <inkscape:path-effect
       effect="skeletal"
       id="path-effect3950"
       is_visible="true"
       pattern="m 27.913199,978.75159 0,10.00002 10,-5.00002 z"
       copytype="single_stretched"
       prop_scale="1"
       scale_y_rel="false"
       spacing="0"
       normal_offset="0"
       tang_offset="0"
       prop_units="false"
       vertical_pattern="false"
       fuse_tolerance="0" />
    <inkscape:path-effect
       effect="skeletal"
       id="path-effect3946"
       is_visible="true"
       pattern="m 27.913199,978.75159 0,10.00002 10,-5.00002 z"
       copytype="single_stretched"
       prop_scale="1"
       scale_y_rel="false"
       spacing="0"
       normal_offset="0"
       tang_offset="0"
       prop_units="false"
       vertical_pattern="false"
       fuse_tolerance="0" />
    <inkscape:path-effect
       effect="skeletal"
       id="path-effect3942"
       is_visible="true"
       pattern="m 27.913199,978.75159 0,10.00002 10,-5.00002 z"
       copytype="single_stretched"
       prop_scale="1"
       scale_y_rel="false"
       spacing="0"
       normal_offset="0"
       tang_offset="0"
       prop_units="false"
       vertical_pattern="false"
       fuse_tolerance="0" />
    <inkscape:path-effect
       effect="skeletal"
       id="path-effect3938"
       is_visible="true"
       pattern="m 27.913199,978.75159 0,10.00002 10,-5.00002 z"
       copytype="single_stretched"
       prop_scale="1"
       scale_y_rel="false"
       spacing="0"
       normal_offset="0"
       tang_offset="0"
       prop_units="false"
       vertical_pattern="false"
       fuse_tolerance="0" />
    <inkscape:path-effect
       effect="skeletal"
       id="path-effect3934"
       is_visible="true"
       pattern="m 27.913199,978.75159 0,10.00002 10,-5.00002 z"
       copytype="single_stretched"
       prop_scale="1"
       scale_y_rel="false"
       spacing="0"
       normal_offset="0"
       tang_offset="0"
       prop_units="false"
       vertical_pattern="false"
       fuse_tolerance="0" />
    <inkscape:path-effect
       effect="skeletal"
       id="path-effect3930"
       is_visible="true"
       pattern="M 0,0 0,10 10,5 z"
       copytype="single_stretched"
       prop_scale="1"
       scale_y_rel="false"
       spacing="0"
       normal_offset="0"
       tang_offset="0"
       prop_units="false"
       vertical_pattern="false"
       fuse_tolerance="0" />
    <inkscape:path-effect
       effect="skeletal"
       id="path-effect3926"
       is_visible="true"
       pattern="m 27.913199,978.75159 0,10.00002 10,-5.00002 z"
       copytype="single_stretched"
       prop_scale="1"
       scale_y_rel="false"
       spacing="0"
       normal_offset="0"
       tang_offset="0"
       prop_units="false"
       vertical_pattern="false"
       fuse_tolerance="0" />
    <inkscape:path-effect
       effect="skeletal"
       id="path-effect3922"
       is_visible="true"
       pattern="m 27.913199,978.75159 0,10.00002 10,-5.00002 z"
       copytype="single_stretched"
       prop_scale="1"
       scale_y_rel="false"
       spacing="0"
       normal_offset="0"
       tang_offset="0"
       prop_units="false"
       vertical_pattern="false"
       fuse_tolerance="0" />
    <inkscape:path-effect
       effect="skeletal"
       id="path-effect3918"
       is_visible="true"
       pattern="m 27.913199,978.75159 0,10.00002 10,-5.00002 z"
       copytype="single_stretched"
       prop_scale="1"
       scale_y_rel="false"
       spacing="0"
       normal_offset="0"
       tang_offset="0"
       prop_units="false"
       vertical_pattern="false"
       fuse_tolerance="0" />
    <inkscape:path-effect
       effect="skeletal"
       id="path-effect3914"
       is_visible="true"
       pattern="m 27.913199,978.75159 0,10.00002 10,-5.00002 z"
       copytype="single_stretched"
       prop_scale="1"
       scale_y_rel="false"
       spacing="0"
       normal_offset="0"
       tang_offset="0"
       prop_units="false"
       vertical_pattern="false"
       fuse_tolerance="0" />
    <inkscape:path-effect
       effect="skeletal"
       id="path-effect3910"
       is_visible="true"
       pattern="m 27.913199,978.75159 0,10.00002 10,-5.00002 z"
       copytype="single_stretched"
       prop_scale="1"
       scale_y_rel="false"
       spacing="0"
       normal_offset="0"
       tang_offset="0"
       prop_units="false"
       vertical_pattern="false"
       fuse_tolerance="0" />
    <inkscape:path-effect
       effect="skeletal"
       id="path-effect3906"
       is_visible="true"
       pattern="m 27.913199,978.75159 0,10.00002 10,-5.00002 z"
       copytype="single_stretched"
       prop_scale="1"
       scale_y_rel="false"
       spacing="0"
       normal_offset="0"
       tang_offset="0"
       prop_units="false"
       vertical_pattern="false"
       fuse_tolerance="0" />
    <inkscape:path-effect
       effect="skeletal"
       id="path-effect3902"
       is_visible="true"
       pattern="m 27.913199,978.75159 0,10.00002 10,-5.00002 z"
       copytype="single_stretched"
       prop_scale="1"
       scale_y_rel="false"
       spacing="0"
       normal_offset="0"
       tang_offset="0"
       prop_units="false"
       vertical_pattern="false"
       fuse_tolerance="0" />
    <inkscape:path-effect
       effect="skeletal"
       id="path-effect3898"
       is_visible="true"
       pattern="m 27.913199,978.75159 0,10.00002 10,-5.00002 z"
       copytype="single_stretched"
       prop_scale="1"
       scale_y_rel="false"
       spacing="0"
       normal_offset="0"
       tang_offset="0"
       prop_units="false"
       vertical_pattern="false"
       fuse_tolerance="0" />
    <inkscape:path-effect
       effect="skeletal"
       id="path-effect3894"
       is_visible="true"
       pattern="m 27.913199,978.75159 0,10.00002 10,-5.00002 z"
       copytype="single_stretched"
       prop_scale="1"
       scale_y_rel="false"
       spacing="0"
       normal_offset="0"
       tang_offset="0"
       prop_units="false"
       vertical_pattern="false"
       fuse_tolerance="0" />
    <inkscape:path-effect
       effect="skeletal"
       id="path-effect3890"
       is_visible="true"
       pattern="m 27.913199,978.75159 0,10.00002 10,-5.00002 z"
       copytype="single_stretched"
       prop_scale="1"
       scale_y_rel="false"
       spacing="0"
       normal_offset="0"
       tang_offset="0"
       prop_units="false"
       vertical_pattern="false"
       fuse_tolerance="0" />
    <inkscape:path-effect
       effect="skeletal"
       id="path-effect3886"
       is_visible="true"
       pattern="m 27.913199,978.75159 0,10.00002 10,-5.00002 z"
       copytype="single_stretched"
       prop_scale="1"
       scale_y_rel="false"
       spacing="0"
       normal_offset="0"
       tang_offset="0"
       prop_units="false"
       vertical_pattern="false"
       fuse_tolerance="0" />
    <inkscape:path-effect
       effect="skeletal"
       id="path-effect3882"
       is_visible="true"
       pattern="m 23.351926,983.31291 0,10 10,-5 z"
       copytype="single_stretched"
       prop_scale="1"
       scale_y_rel="false"
       spacing="0"
       normal_offset="0"
       tang_offset="0"
       prop_units="false"
       vertical_pattern="false"
       fuse_tolerance="0" />
    <inkscape:path-effect
       effect="skeletal"
       id="path-effect3878"
       is_visible="true"
       pattern="m 27.913199,978.75159 0,10.00002 10,-5.00002 z"
       copytype="single_stretched"
       prop_scale="1"
       scale_y_rel="false"
       spacing="0"
       normal_offset="0"
       tang_offset="0"
       prop_units="false"
       vertical_pattern="false"
       fuse_tolerance="0" />
    <inkscape:path-effect
       effect="skeletal"
       id="path-effect3874"
       is_visible="true"
       pattern="m 27.913199,978.75159 0,10.00002 10,-5.00002 z"
       copytype="single_stretched"
       prop_scale="1"
       scale_y_rel="false"
       spacing="0"
       normal_offset="0"
       tang_offset="0"
       prop_units="false"
       vertical_pattern="false"
       fuse_tolerance="0" />
    <inkscape:path-effect
       effect="skeletal"
       id="path-effect3870"
       is_visible="true"
       pattern="M 0,5 C 0,2.24 2.24,0 5,0 7.76,0 10,2.24 10,5 10,7.76 7.76,10 5,10 2.24,10 0,7.76 0,5 z"
       copytype="single_stretched"
       prop_scale="1"
       scale_y_rel="false"
       spacing="0"
       normal_offset="0"
       tang_offset="0"
       prop_units="false"
       vertical_pattern="false"
       fuse_tolerance="0" />
    <inkscape:path-effect
       effect="skeletal"
       id="path-effect3866"
       is_visible="true"
       pattern="M 0,0 0,10 10,5 z"
       copytype="single_stretched"
       prop_scale="1"
       scale_y_rel="false"
       spacing="0"
       normal_offset="0"
       tang_offset="0"
       prop_units="false"
       vertical_pattern="false"
       fuse_tolerance="0" />
  </defs>
  <sodipodi:namedview
     id="base"
     pagecolor="#000000"
     bordercolor="#666666"
     borderopacity="1.0"
     inkscape:pageopacity="0"
     inkscape:pageshadow="2"
     inkscape:zoom="2.1923702"
     inkscape:cx="239.89505"
     inkscape:cy="30.785692"
     inkscape:document-units="px"
     inkscape:current-layer="layer1"
     showgrid="false"
     inkscape:window-width="1680"
     inkscape:window-height="973"
     inkscape:window-x="0"
     inkscape:window-y="24"
     inkscape:window-maximized="1" />
  <metadata
     id="metadata7">
    <rdf:RDF>
      <cc:Work
         rdf:about="">
        <dc:format>image/svg+xml</dc:format>
        <dc:type
           rdf:resource="http://purl.org/dc/dcmitype/StillImage" />
        <dc:title />
      </cc:Work>
    </rdf:RDF>
  </metadata>
  <g
     inkscape:groupmode="layer"
     id="layer2"
     inkscape:label="Debug Background"
     style="display:none"
     transform="translate(0,65)">
    <rect
       style="fill:#000000;fill-opacity:1;stroke:none"
       id="rect4029"
       width="512.68713"
       height="231.25656"
       x="-26.455385"
       y="-85.048492"
       ry="7.8571429" />
  </g>
  <g
     inkscape:label="Layer 1"
     inkscape:groupmode="layer"
     id="layer1"
     transform="translate(0,-927.36218)"
     style="display:inline">
    <text
       xml:space="preserve"
       style="font-size:28px;font-style:normal;font-variant:normal;font-weight:normal;font-stretch:normal;line-height:125%;letter-spacing:0px;word-spacing:0px;writing-mode:lr-tb;fill:#ff8300;fill-opacity:1;stroke:none;font-family:Arial;-inkscape-font-specification:Arial"
       x="16.667517"
       y="47.472069"
       id="text2985"
       sodipodi:linespacing="125%"
       transform="translate(0,952.36218)"><tspan
         sodipodi:role="line"
         id="tspan2987"
         x="16.667517"
         y="47.472069" /></text>
    <g
       id="g3844">
      <g
         id="g3840">
        <path
           style="fill:#ff8300;fill-opacity:1;fill-rule:evenodd;stroke:none"
           d="m 8.8676691,979.50529 -8.43392818,5.37302 c 1.11541848,1.65646 2.63558768,2.81599 4.40584548,3.40289 1.7722918,0.51356 3.2966664,0.61058 4.4915736,0.45092 2.914234,-0.30214 5.317713,-1.06512 7.287959,-1.74153 2.108633,-0.64492 3.777492,-1.3043 5.114481,-1.43141 0.48455,0.0183 0.587205,-0.0809 0.228033,-0.10093 -0.614478,-0.21802 -1.031245,-0.61225 -1.423611,-1.28793 4.25891,8.65315 7.576008,17.93798 10.97497,27.35018 1.271678,3.5447 2.613198,7.2095 4.318853,10.8497 3e-6,0 7e-6,0 1.1e-5,0 1.342197,2.9284 3.080193,5.9548 5.538689,8.689 2.281099,2.4973 5.20117,4.423 8.516135,5.4959 5e-6,0 1.1e-5,0 1.6e-5,0 3.967205,1.1898 7.906283,1.2448 11.488177,0.7635 5.248947,-0.6521 10.186251,-2.1023 14.853777,-3.7475 6.837134,-2.3886 13.409342,-5.2682 19.836785,-8.2717 8e-6,0 1.6e-5,0 2.3e-5,0 18.950692,-8.8366 39.647472,-14.1876 60.511632,-14.3176 16.07838,-0.119 32.19964,2.8352 47.47591,8.2114 6.14804,2.1647 12.17471,4.7169 18.07866,7.5528 0,0 1e-5,10e-5 2e-5,10e-5 4.66433,2.2401 9.26055,4.681 13.85665,7.1705 0,0 1e-5,0 1e-5,0 1.73604,0.9407 3.48541,1.8955 5.26923,2.8221 1.3281,0.692 2.71316,1.393 4.1926,2.0043 0.8921,0.4025 2.03784,0.8175 3.4506,0.9445 2e-5,0 3e-5,0 4e-5,0 0.47845,0.062 1.10934,-0.01 1.85061,-0.2742 0.35733,-0.1144 0.57647,-0.4222 0.61844,-0.8854 7.99384,0.594 15.86769,-0.9951 23.26771,-3.498 8.18151,-2.8183 15.93625,-6.4552 23.75975,-9.686 8.63095,-3.5577 17.43958,-6.6662 26.53286,-8.3942 10.71947,-2.0389 21.81543,-2.135 32.63316,-0.4217 35.33195,2.5444 70.64911,5.0869 105.95147,7.6275 -35.24533,-3.237 -70.47587,-6.4721 -105.6916,-9.7054 -10.99158,-1.9657 -22.33381,-2.0923 -33.38102,-0.2077 -9.39609,1.6047 -18.47098,4.594 -27.27634,8.032 -10e-6,0 -10e-6,0 -10e-6,0 -7.98427,3.1114 -15.75445,6.5751 -23.73275,9.1392 -7.76223,2.5472 -15.8371,4.2668 -23.79627,3.9127 -0.21148,-0.02 -0.39559,0.028 -0.51117,0.1063 0.18181,-0.036 0.19121,-0.074 0.0667,-0.053 -0.49841,-0 -1.16839,-0.3244 -2.04109,-0.6668 -1.25466,-0.5427 -2.50646,-1.2128 -3.79863,-1.9141 -1.71109,-0.9317 -3.41756,-1.9077 -5.14299,-2.8869 -1e-5,0 -2e-5,0 -2e-5,0 -4.56784,-2.5932 -9.18101,-5.1598 -13.91637,-7.5519 -1e-5,0 -1e-5,0 -2e-5,0 -5.98417,-3.0227 -12.12772,-5.7677 -18.43547,-8.1311 -15.6889,-5.8805 -32.39187,-9.283 -49.26111,-9.5049 -21.89765,-0.2638 -43.6727,4.8581 -63.646528,13.7266 -6.381788,2.8229 -12.77052,5.4802 -19.26441,7.5979 -4.474534,1.4451 -8.879723,2.6779 -13.221689,3.0942 -2.9308,0.2442 -5.710793,0.2382 -7.976074,-0.5963 -1.781033,-0.5821 -3.44051,-1.7601 -4.751421,-3.2385 -2e-6,0 -4e-6,0 -6e-6,-10e-5 -1.576378,-1.7315 -2.776221,-4.0529 -3.946753,-6.5936 -1.429223,-3.183 -2.594767,-6.6102 -3.798982,-10.1545 -3.195983,-9.47035 -6.450769,-19.12353 -10.816084,-28.51662 -0.946319,-1.83482 -2.421346,-3.1164 -4.258304,-3.72941 -1.80841,-0.48832 -3.272441,-0.53939 -4.300667,-0.34476 -6e-6,0 -1.2e-5,0 -1.8e-5,10e-6 -2.779368,0.35269 -5.055471,1.09871 -6.903674,1.68589 -2.103424,0.59207 -3.8025062,1.17654 -5.1422416,1.20237 -0.4995662,-0.029 -0.7139217,0.0194 -0.5522008,-0.01 0.3222441,0.0991 0.5556309,0.29018 0.8500715,0.65796 z"
           id="path3872"
           inkscape:path-effect="#path-effect3874"
           inkscape:original-d="m 4.650705,982.1918 c 3.513326,5.51481 17.791121,-5.13761 20.205657,-0.0852 20.215804,42.3017 9.092841,67.3138 69.651429,39.7683 90.794989,-41.29876 151.733399,22.5109 155.995549,15.0522 32.54165,1.9339 57.80368,-29.7691 107.18993,-21.438 l 105.82154,8.6664"
           inkscape:connector-curvature="0"
           sodipodi:nodetypes="cssccc" />
        <path
           style="fill:#ff8300;fill-opacity:1;fill-rule:evenodd;stroke:none"
           d="m 71.845785,1039.0374 5.184804,8.551 c 10.905183,-7.0885 22.707021,-12.9431 34.964591,-17.7745 12.22527,-4.8321 24.90033,-8.6319 37.91012,-10.8425 0,0 0,0 10e-6,0 10.43782,-0.5392 20.89932,-0.603 31.22066,0.8123 6.60715,0.9012 13.138,2.4773 19.30401,5.034 0,0 0,0 1e-5,0 4.7522,1.9647 9.2889,4.5515 13.85834,7.0966 4.75806,2.4744 9.64023,4.924 14.76014,6.8363 -0.60148,0.1344 -1.20402,0.2868 -1.80762,0.4571 0.61274,-0.1337 1.22654,-0.2855 1.84141,-0.4551 -5.01102,-1.9385 -9.68817,-4.6912 -14.2349,-7.7743 -4.40125,-2.8128 -8.80783,-5.6869 -13.58273,-8.0136 -6.19298,-3.01 -12.83988,-5.0572 -19.60208,-6.3908 -10.58219,-2.079 -21.41893,-2.6738 -32.16946,-2.7427 0,0 0,0 0,0 -13.58796,1.4795 -27.01252,4.6026 -40.0609,8.8424 -12.939239,4.2129 -25.600085,9.5721 -37.586405,16.3638 z"
           id="path3876"
           inkscape:path-effect="#path-effect3878"
           inkscape:original-d="m 74.438187,1043.3129 c 21.678266,-13.1445 49.969393,-23.4027 75.261013,-26.9116 53.31453,-1.1832 56.62503,13.7063 79.36616,22.3503 l -1.82451,0.4561"
           inkscape:connector-curvature="0"
           sodipodi:nodetypes="cccc" />
        <path
           style="fill:#ff8300;fill-opacity:1;fill-rule:evenodd;stroke:none"
           d="m 35.132072,1042.0459 9.99493,-0.3184 c -0.365414,-2.634 -1.37338,-4.5007 -2.653842,-5.5771 -1.2552,-1.1802 -2.412912,-1.9467 -3.349119,-2.4844 -0.963539,-0.6108 -1.717851,-0.9963 -2.15785,-1.345 0,0 -1e-6,0 -1e-6,0 -0.182648,-0.3571 -0.364303,-0.1177 -0.101161,0.6421 -0.872997,-5.8153 -2.750399,-11.2397 -5.095058,-16.2806 -1e-6,0 -1e-6,0 -2e-6,0 -0.997143,-2.1599 -2.098515,-4.2836 -3.329128,-6.3359 -0.848987,-1.4273 -1.801922,-2.9157 -2.986187,-4.3072 -2.006605,-2.2542 -5.053124,-2.7966 -7.548747,-1.6718 -2.38969,1.123 -3.847835,3.5869 -3.639354,6.1325 0.569693,4.393 2.959616,8.2553 6.209978,10.7886 1.70629,0.9492 3.391907,1.8855 5.05685,2.809 5.5e-5,0 8.2e-5,0 8.2e-5,0 0,0 -2.4e-5,0 -7.1e-5,0 -1.536948,-1.1693 -3.053223,-2.3256 -4.548825,-3.4691 -2.720102,-2.8402 -4.278285,-6.6372 -4.133988,-10.2655 0.0055,-1.282 1.184747,-2.5034 2.345413,-2.8249 1e-6,0 1e-6,0 2e-6,0 1.09003,-0.3343 2.528356,0.2286 2.849828,1.0672 0.756182,1.1863 1.351137,2.5489 1.96653,3.9967 0.841922,2.0169 1.556646,4.0905 2.181613,6.1993 1.45587,4.9605 2.419973,9.974 2.40079,14.8237 0.399149,2.4587 1.342125,4.1548 2.393698,4.9731 1e-6,0 1e-6,0 2e-6,0 1.086639,1.1051 2.094465,1.899 2.849543,2.509 0,0 1e-6,0 1e-6,0 0.807451,0.701 1.40631,1.1868 1.606969,1.5735 -0.01153,0.2893 -0.0068,0.136 -0.312896,-0.6348 z"
           id="path3880"
           inkscape:path-effect="#path-effect3882"
           inkscape:original-d="m 40.129537,1041.8867 c -0.119175,-3.741 -7.143656,-5.395 -7.399645,-8.5926 -0.848522,-10.5989 -6.152724,-22.2162 -8.979654,-25.9717 -2.720685,-3.6144 -8.413524,-1.0741 -8.191672,3.1092 0.523934,9.8793 9.974897,13.6661 9.974897,13.6661"
           inkscape:connector-curvature="0"
           sodipodi:nodetypes="csssc" />
        <path
           style="fill:#ff8300;fill-opacity:1;fill-rule:evenodd;stroke:none"
           d="m 102.75946,1043.0801 6.30302,7.7636 c 6.28043,-5.4587 12.42436,-10.7575 19.20134,-14.8117 7.52769,-4.5443 16.06113,-7.5747 24.9108,-8.7857 0,0 0,0 0,0 6.05922,-0.7223 12.08785,-1.2431 18.0775,-1.0648 3.6062,0.063 7.33564,0.5074 11.18299,0.8029 1.30799,0.5981 2.58847,1.2122 3.80835,1.9078 0,0 0,0 0,0 0.85434,0.4784 1.63736,0.9221 2.25856,1.4481 0.32178,0.3935 0.58258,0.4742 0.45639,0.3562 0,0 0,0 0,0 -0.032,-0.1482 8.2e-4,-0.3116 0.0855,-0.5245 0,0 0,0 0,0 0.11805,-0.1679 0.16011,-0.2368 0.1702,-0.2063 -0.0856,0.1434 -0.4574,0.2229 -0.97094,0.3928 -0.73226,0.1965 -1.53417,0.3081 -2.37863,0.4055 -2.40191,0.2712 -4.87083,0.3255 -7.36919,0.3625 -6.35757,0.091 -12.76057,-0.076 -19.16654,0.036 -2.93179,0.051 -5.87299,0.1477 -8.79565,0.4347 -2.13266,0.2075 -4.30813,0.4607 -6.30749,1.2244 2.04872,-0.6192 4.19925,-0.7081 6.33604,-0.7672 2.91577,-0.078 5.83048,0.036 8.74754,0.1924 6.3661,0.3427 12.71969,0.9649 19.1333,1.3312 2.50732,0.1449 5.05372,0.2678 7.64472,0.1658 0.90606,-0.033 1.85592,-0.1029 2.8381,-0.2833 0.61298,-0.078 1.39592,-0.2954 2.2404,-0.8341 0.31637,-0.1942 0.63457,-0.5427 0.91169,-1.0555 1e-5,0 1e-5,-1e-4 1e-5,-1e-4 0.23096,-0.5299 0.29279,-1.0583 0.19105,-1.5487 -0.34427,-1.1888 -0.9318,-1.932 -1.4198,-2.2722 -10e-6,0 -10e-6,0 -10e-6,0 -0.87907,-0.8333 -1.81675,-1.4827 -2.69977,-2.0435 0,0 -1e-5,0 -1e-5,0 -1.50182,-0.9325 -3.04756,-1.7653 -4.59106,-2.5555 -3.87439,-0.6104 -7.83408,-1.3974 -11.98588,-1.8432 -6.34489,-0.6313 -12.70355,-0.5509 -18.96242,-0.2433 -1e-5,0 -1e-5,0 -1e-5,0 -9.7726,0.6367 -19.45657,3.2802 -28.31327,7.7778 -7.84598,4.0155 -14.85078,9.1691 -21.53683,14.2376 z"
           id="path3884"
           inkscape:path-effect="#path-effect3886"
           inkscape:original-d="m 105.91097,1046.9619 c 12.83888,-10.4236 25.81831,-20.7067 46.98112,-22.8064 16.9047,-1.4134 22.44707,0.014 30.1044,0.9123 27.30555,13.294 -26.45538,3.547 -38.77082,7.7541"
           inkscape:connector-curvature="0"
           sodipodi:nodetypes="cccc" />
        <path
           style="fill:#ff8300;fill-opacity:1;fill-rule:evenodd;stroke:none"
           d="m 274.24012,1046.2422 9.08622,4.1762 c 1.45348,-4.1935 6.12934,-7.4433 11.10453,-10.6223 5.99927,-3.6506 12.77268,-6.4976 19.64948,-9.6215 8.77891,-1.7183 17.17807,-4.1508 25.60229,-5.8009 0,0 0,0 1e-5,0 8.01873,-1.4958 16.04989,-2.563 23.54534,-0.8716 16.97563,0.6791 33.89866,1.4053 50.76481,2.472 1e-5,0 1e-5,0 1e-5,0 7.49695,0.4729 14.98138,1.0033 22.43771,1.8224 3.53292,0.3879 7.07524,0.8962 10.64343,1.2186 5.02143,0.4532 10.04989,0.5451 15.07247,0.6139 -5.01217,-0.3305 -10.02777,-0.6846 -14.98149,-1.3943 -3.51934,-0.5037 -7.01565,-1.1936 -10.55282,-1.7698 -7.43767,-1.2119 -14.91984,-2.1369 -22.39517,-3.0009 0,0 0,0 0,0 -16.74852,-1.9348 -33.49818,-3.5187 -50.19908,-5.0409 -8.45726,-2.2681 -17.23048,-1.6642 -25.41587,-0.4047 0,0 -10e-6,0 -10e-6,0 -9.1052,1.3306 -17.94841,3.4041 -26.69675,4.6792 -7.15117,2.7581 -14.61081,5.4412 -21.8844,9.2211 -5.86734,2.8911 -12.0448,7.2265 -15.78071,14.3235 z"
           id="path3888"
           inkscape:path-effect="#path-effect3890"
           inkscape:original-d="m 278.78323,1048.3303 c 4.64794,-10.1125 19.79587,-15.8504 34.20956,-21.8942 17.25063,-2.9462 35.60471,-9.2028 50.63013,-5.4735 93.24057,6.095 68.31398,7.4645 98.5235,8.6664"
           inkscape:connector-curvature="0"
           sodipodi:nodetypes="cccc" />
        <path
           style="fill:#ff8300;fill-opacity:1;fill-rule:evenodd;stroke:none"
           d="m 300.18285,1043.4444 4.63802,8.8594 c 6.65946,-3.7139 12.65826,-7.7985 18.88439,-10.814 7.89884,-3.8776 16.65485,-6.2122 25.62526,-7.3538 9.0186,-0.8982 17.92254,-1.9757 26.80971,-2.4902 0,0 0,0 1e-5,0 7.38717,-0.3619 14.63751,-0.7207 21.3105,1.0937 18.29524,0.4961 36.50907,0.9097 54.64579,1.8885 8.55048,0.3436 17.22023,0.9249 26.00759,1.3931 2.9e-4,0.1478 0.003,0.2978 0.007,0.4498 0.004,-0.152 0.006,-0.3062 0.007,-0.4624 -8.53345,-0.7128 -17.14842,-1.7772 -25.90134,-2.847 -18.0287,-1.9752 -36.06371,-3.3683 -54.00211,-4.8184 -7.33749,-2.3698 -15.01705,-2.4828 -22.24523,-2.4063 -1e-5,0 -1e-5,0 -1e-5,0 -9.16247,0.027 -18.25315,0.6129 -27.2458,1.0098 -9.69885,0.6708 -19.43433,2.7013 -28.63042,6.5431 -7.14627,3.0229 -13.57038,6.8634 -19.90989,9.9547 z"
           id="path3892"
           inkscape:path-effect="#path-effect3894"
           inkscape:original-d="m 302.50186,1047.8741 c 13.08963,-6.8526 23.12774,-15.0614 46.52498,-17.3328 18.23526,-1.3112 37.57021,-3.3554 48.80563,0 64.58546,3.4691 53.51894,3.649 80.27841,5.4735 l 0,0.4561"
           inkscape:connector-curvature="0"
           sodipodi:nodetypes="ccccc" />
        <path
           style="fill:#ff8300;fill-opacity:1;fill-rule:evenodd;stroke:none"
           d="m 209.94375,964.71688 -9.19404,3.93318 c 2.93611,6.5618 5.78783,13.32028 9.09347,19.99836 2.71454,5.58253 5.87953,11.45118 10.5411,16.52918 5.28282,5.6073 10.67555,11.271 16.54371,16.5551 0,0 1e-5,0 1e-5,10e-5 2.46446,2.2701 5.28223,4.7385 8.84207,6.5969 1.97616,0.9403 3.80211,1.3742 5.33106,1.663 1.83055,0.3412 3.68718,1.0962 5.53638,2.0403 10e-6,0 10e-6,0 10e-6,0 4.98288,-0.6251 9.95131,-1.5784 14.77744,-3.0485 0,0 10e-6,0 10e-6,0 3.52523,-1.2405 6.85022,-2.7764 10.05182,-4.3813 0,0 10e-6,0 10e-6,0 3.39126,-1.695 6.69167,-3.4042 10.02205,-4.8893 4.54216,-2.03 9.24941,-3.7422 14.05148,-5.2049 12.47647,-3.7675 25.62808,-5.4482 38.8187,-5.5814 10e-6,0 10e-6,0 10e-6,0 16.09996,1.2514 32.21139,2.5033 48.3343,3.7558 26.19216,1.9995 52.38403,3.9991 78.57563,5.9986 -26.111,-2.8659 -52.22172,-5.7317 -78.33216,-8.5976 -16.1101,-1.7883 -32.23167,-3.5772 -48.36471,-5.3666 0,0 -10e-6,0 -10e-6,0 -13.56357,-0.3225 -27.27255,0.9621 -40.54744,4.4534 -5.04259,1.3533 -10.03405,2.9851 -14.91123,4.9703 -3.59167,1.4657 -7.03572,3.1031 -10.42874,4.6631 -3.14155,1.4384 -6.26047,2.7646 -9.41081,3.7456 0,0 0,0 0,0 -3.61727,1.3396 -7.39375,2.2229 -11.22089,2.8504 0,0 -10e-6,0 -10e-6,0 -1.51129,-1.171 -3.29516,-2.1305 -5.34059,-2.6515 -1.47485,-0.3794 -2.67805,-0.6404 -3.42768,-1.1281 -2.36783,-1.2471 -4.53736,-3.3958 -6.97552,-5.6804 -1e-5,0 -1e-5,0 -1e-5,-10e-5 -5.39575,-5.1804 -10.43004,-10.8447 -15.50979,-16.59532 0,-10e-6 0,-10e-6 0,-10e-6 -3.55732,-3.99367 -6.03384,-9.21034 -8.57731,-14.68217 -2.93149,-6.43478 -5.50322,-13.15759 -8.27832,-19.94612 z"
           id="path3896"
           inkscape:path-effect="#path-effect3898"
           inkscape:original-d="m 205.34673,966.68347 c 5.76047,13.46547 11.32022,27.93454 18.2451,35.57793 28.82034,31.5885 23.75666,20.1635 33.75342,26.4554 21.18273,-3.0116 23.6195,-10.0639 47.43724,-16.8767 12.52734,-3.5312 25.7882,-5.1157 39.68308,-5.0174 l 48.3495,4.5612 78.4539,7.2981"
           inkscape:connector-curvature="0"
           sodipodi:nodetypes="ccccccc" />
        <path
           style="fill:#ff8300;fill-opacity:1;fill-rule:evenodd;stroke:none"
           d="m 35.626032,965.91404 -9.039884,4.27562 c 5.505621,11.05884 11.016458,22.13057 16.532511,33.21514 1.954554,5.7448 4.052591,12.4803 8.843819,18.1385 1.121068,1.2501 2.309319,2.2123 3.450135,2.9754 6e-6,0 1.1e-5,0 1.7e-5,0 1.515978,0.7989 2.880633,1.5037 3.967745,2.2271 7.968348,-1.8983 16.055915,-4.3975 23.244168,-8.7069 3.914175,-2.7103 6.968575,-5.9538 10.019758,-8.7375 6.110919,-3.7585 12.343649,-7.2336 18.929309,-9.74333 4.18691,-1.60704 8.50065,-2.80518 12.87015,-3.2214 3.25463,-0.32607 6.64135,-0.17204 10.10008,0.0375 3.40347,0.21876 6.92077,0.3881 10.49641,0.07 13.98782,2.12213 28.04718,4.25827 42.17809,6.40847 17.09162,7.9969 34.23352,16.0101 51.42569,24.0397 -16.86533,-8.6951 -33.78094,-17.4065 -50.74683,-26.1343 -14.14898,-2.7152 -28.36951,-5.44445 -42.66159,-8.18772 -3.36291,0.16558 -6.81067,-0.14704 -10.33937,-0.49634 0,0 0,0 -1e-5,0 -3.49871,-0.3606 -7.10604,-0.65266 -10.81195,-0.4475 -4.92458,0.29309 -9.73181,1.40613 -14.30754,2.97699 -7.27277,2.51622 -14.123986,5.99787 -20.703503,9.74057 -3.568727,2.9603 -6.69068,6.0353 -10.100544,8.1391 -2e-6,0 -3e-6,0 -5e-6,0 -5.211353,3.841 -11.420292,6.1242 -17.756582,8.1699 -0.462835,-1.0564 -0.968597,-1.8183 -1.378733,-2.3832 0,0 -10e-7,0 -2e-6,0 -0.813976,-0.6211 -1.495981,-1.1837 -1.921831,-1.7623 -10e-7,0 -3e-6,0 -4e-6,0 -3.397218,-4.0219 -4.770283,-10.0411 -6.893098,-16.3017 -5.126919,-11.41773 -10.259054,-22.8483 -15.396406,-34.29176 z"
           id="path3900"
           inkscape:path-effect="#path-effect3902"
           inkscape:original-d="m 31.10609,968.05185 15.964457,33.75345 c 7.174614,21.1249 9.39871,17.4973 13.227693,21.8941 20.403576,-5.6256 24.077253,-11.2512 30.560531,-16.8767 31.948999,-18.88489 39.038619,-11.25299 54.279159,-12.31549 l 42.41984,7.29809 51.08626,25.087"
           inkscape:connector-curvature="0"
           sodipodi:nodetypes="ccccccc" />
        <path
           style="fill:#ff8300;fill-opacity:1;fill-rule:evenodd;stroke:none"
           d="m 227.07969,967.04556 -8.80024,4.74934 c 5.51446,9.33149 11.03495,18.67507 16.56147,28.03073 2.5044,5.00997 5.63429,9.89737 9.71973,14.04387 2.98628,2.9791 6.2783,5.3183 9.4731,7.4932 1.43774,0.9717 3.6809,2.199 6.67419,2.1931 0,0 0,0 0,0 1.68591,-0.2224 3.04253,-0.9749 3.97562,-1.9814 1.39639,-1.8788 2.22266,-3.895 2.79369,-5.754 -7.00007,-10.9773 -13.97516,-21.71473 -20.92525,-32.21233 0,0 0,0 0,0 -4.0742,-4.8205 -7.92709,-9.70354 -11.55867,-14.64912 -0.005,0.15548 -0.004,0.30924 0.002,0.46128 0.006,-0.15204 0.006,-0.30236 0.002,-0.45095 3.66644,5.08921 7.11158,10.24097 10.33541,15.45527 0,0 0,1e-5 1e-5,1e-5 6.12556,10.78833 12.22613,21.33684 18.30171,31.64544 -0.70723,0.9946 -1.36869,1.8167 -2.22371,2.1078 -0.4343,0.3112 -0.83313,0.5447 -1.04177,0.453 0,0 0,0 -10e-6,0 -0.64494,0.2449 -1.66991,-0.8148 -3.36059,-1.7173 -2.90879,-2.3573 -5.69565,-4.6567 -7.85974,-7.2693 -3.22882,-3.7946 -5.61238,-8.356 -7.61311,-13.15741 -4.81237,-9.80166 -9.63077,-19.6154 -14.4552,-29.44123 z"
           id="path3904"
           inkscape:path-effect="#path-effect3906"
           inkscape:original-d="m 222.67957,969.42023 15.50833,28.73598 c 5.77761,12.58259 11.55523,16.69179 17.33284,20.98189 3.34493,2.0039 6.68987,4.2742 10.0348,-3.1929 l -19.61348,-31.92889 -10.94705,-15.0522 0,0.45612"
           inkscape:connector-curvature="0"
           sodipodi:nodetypes="ccccccc" />
        <path
           style="fill:#ff8300;fill-opacity:1;fill-rule:evenodd;stroke:none"
           d="m 313.84149,965.54951 -9.9077,1.35566 c 1.34395,9.28748 4.70569,19.13955 11.97762,26.42723 5.7417,5.29918 12.84909,8.0656 19.74926,9.4451 47.46346,1.6677 94.34048,4.3853 140.63105,8.1528 0,0 0,0 10e-6,0 -0.15157,-0.1578 -0.3054,-0.3106 -0.4615,-0.4586 0.14799,0.1561 0.29825,0.3073 0.45078,0.4536 0,0 -10e-6,0 -10e-6,0 -47.06348,-4.1387 -93.54052,-9.3273 -139.43111,-15.56583 -5.84408,-1.65064 -11.3675,-4.0438 -14.83508,-8.06057 -5.1803,-5.30881 -7.11607,-13.48796 -8.17332,-21.74939 z"
           id="path3908"
           inkscape:path-effect="#path-effect3910"
           inkscape:original-d="m 308.88764,966.22734 c 3.21543,23.49967 14.52995,29.78877 27.36764,32.84117 l 140.03109,11.85929 -0.45613,-0.4561"
           inkscape:connector-curvature="0"
           sodipodi:nodetypes="cccc" />
        <path
           style="fill:#ff8300;fill-opacity:1;fill-rule:evenodd;stroke:none"
           d="m 257.0312,968.63584 -9.4067,3.3933 c 3.4591,8.29986 7.34298,16.48798 11.92647,24.29507 3.70945,5.87819 7.65125,11.34299 11.45801,16.66769 7.52278,1.1623 15.00344,0.4453 21.73524,-1.7861 2.73563,-0.9679 5.48053,-2.2757 7.7977,-4.2222 0,0 0,0 10e-6,0 1.64572,-1.237 3.04375,-3.2207 3.11533,-5.603 3.34281,-1.54206 6.87476,-3.01535 10.69424,-3.05349 2.54813,-0.0659 5.23834,0.90771 6.85159,3.02199 -1.39395,-2.26487 -4.06969,-3.62532 -6.83226,-3.81984 -4.09432,-0.2298 -8.23417,1.17388 -12.11212,2.87614 -0.21386,1.7257 -1.69469,3.2361 -3.30897,4.5151 0,0 0,0 0,0 -2.10112,1.4632 -4.61648,2.3226 -7.21622,2.9924 -6.05011,1.6918 -12.29354,2.0557 -17.94759,0.9507 -2.86194,-5.3854 -5.58082,-10.65059 -7.72508,-15.94893 -3.60444,-7.82622 -6.50037,-15.97804 -9.02965,-24.27883 z"
           id="path3912"
           inkscape:path-effect="#path-effect3914"
           inkscape:original-d="m 252.32785,970.33249 c 7.49489,20.77692 13.75673,30.45651 20.0696,40.59531 12.68751,2.183 30.0361,-2.4873 30.56054,-10.0348 9.1159,-4.09579 15.21087,-3.96239 18.24509,0.4561"
           inkscape:connector-curvature="0"
           sodipodi:nodetypes="cccc" />
        <path
           style="fill:#ff8300;fill-opacity:1;fill-rule:evenodd;stroke:none"
           d="m 44.1046,946.99857 -9.576436,2.87962 c 6.698789,17.79606 13.21192,35.71404 19.899131,53.56211 0.784993,2.1015 1.524055,4.3259 2.625929,6.4008 10e-7,0 10e-7,0 10e-7,0 0.559989,1.0429 1.293309,1.8823 1.966131,2.7117 1.194968,1.471 2.366299,2.9222 3.513993,4.3535 0.324613,0.1409 0.643382,0.2759 0.957786,0.4073 -0.293763,-0.1727 -0.583162,-0.3417 -0.868197,-0.5071 -0.981392,-1.6102 -1.937669,-3.1984 -2.87031,-4.7669 -0.564127,-0.9377 -1.155529,-1.8247 -1.48333,-2.7476 0,0 -10e-7,0 -10e-7,0 -0.764915,-2.0587 -1.163609,-4.2553 -1.678772,-6.499 C 52.379903,984.21938 48.353302,965.60927 44.1046,946.99857 z"
           id="path3916"
           inkscape:path-effect="#path-effect3918"
           inkscape:original-d="m 39.316382,948.43838 c 19.613476,65.22622 16.876712,59.29652 20.069603,63.85782 3.192892,4.5613 3.192892,4.5613 3.192892,4.5613 l 0.912254,0.4561"
           inkscape:connector-curvature="0" />
        <path
           style="fill:#ff8300;fill-opacity:1;fill-rule:evenodd;stroke:none"
           d="m 58.813241,950.18397 -9.801568,1.98234 c 2.933394,10.21274 6.198565,20.01989 7.813059,30.14687 0.243434,1.47915 0.397004,3.09036 0.67465,4.76474 0.477722,2.82096 1.210879,5.50572 1.954303,8.1384 0,0 0,0 10e-7,0 1.277841,4.53635 2.505779,9.15138 4.143972,13.59448 0.187818,0.5116 0.362868,1.0528 0.651633,1.5238 0.02605,0.068 0.118478,0.2035 0.153712,0.138 2.67e-4,-5e-4 3.8e-4,-9e-4 3.83e-4,-9e-4 -3e-6,0 -2.24e-4,3e-4 -6.46e-4,8e-4 -0.04494,0.059 -0.07971,-0.091 -0.120385,-0.1546 -0.205461,-0.5065 -0.281525,-1.0461 -0.38672,-1.5899 0,0 -10e-7,0 -10e-7,0 -0.881674,-4.633 -1.320523,-9.30763 -1.840571,-14.0175 -0.295192,-2.70879 -0.570086,-5.38324 -0.568653,-7.9829 -0.0011,-1.49763 0.11228,-3.07492 0.118743,-4.77117 0.05541,-10.7647 -1.57236,-21.45118 -2.791912,-31.77246 z"
           id="path3920"
           inkscape:path-effect="#path-effect3922"
           inkscape:original-d="m 53.912457,951.17514 c 8.210292,40.59537 3.649019,27.36764 6.84191,43.78827 3.192892,16.42049 3.649019,15.50829 3.649019,15.50829"
           inkscape:connector-curvature="0" />
        <path
           style="fill:#ff8300;fill-opacity:1;fill-rule:evenodd;stroke:none"
           d="m 72.59607,951.12841 -9.999584,0.0935 c 0.435336,12.97238 0.775358,26.00019 1.400137,39.04875 0.148622,3.11106 0.45096,6.10195 0.675662,8.9998 -0.04314,1.31758 0.50764,2.98598 1.845645,4.69938 7e-6,0 1.4e-5,0 2e-5,0 1.388808,1.333 2.899065,1.9888 4.304265,2.0374 3.125101,0.096 5.565032,-0.8051 7.299906,-1.7759 4e-6,0 7e-6,0 1.1e-5,0 2.068496,-0.988 3.975103,-2.1387 5.762333,-3.3444 3e-6,0 6e-6,0 9e-6,0 0.621244,-0.417 1.237253,-0.8467 1.846489,-1.29 3e-6,0 6e-6,0 9e-6,0 0.174212,-0.12676 0.350554,-0.25661 0.528603,-0.39002 -0.128273,0.0499 -0.254802,0.0985 -0.379651,0.14552 -8e-6,0 -1.6e-5,10e-6 -2.4e-5,10e-6 0.01091,-0.008 0.02181,-0.017 0.03269,-0.0255 0.0039,-0.003 0.0079,-0.006 0.01184,-0.009 10.19832,-3.17095 20.475063,-6.36734 30.830273,-9.5892 1e-5,0 1e-5,0 1e-5,0 12.68382,-0.29741 25.43949,-0.59814 38.26702,-0.90218 10.38154,1.68572 20.82636,3.38801 31.33446,5.10688 0,0 1e-5,0 1e-5,0 9.74736,5.18388 19.56517,10.40493 29.45344,15.66323 0.46378,0.4426 0.92924,0.8864 1.3964,1.3315 -0.4451,-0.4672 -0.89189,-0.9356 -1.34037,-1.4053 -9.57317,-5.6888 -19.21679,-11.41479 -28.93086,-17.17796 -1e-5,0 -1e-5,0 -1e-5,0 -10.47375,-2.2342 -21.01078,-4.48498 -31.61108,-6.75233 -13.0197,-0.30403 -26.11125,-0.60476 -39.27465,-0.90217 0,0 -1e-5,0 -1e-5,0 -10.93073,2.85981 -21.939916,5.74509 -33.027566,8.65583 -0.0044,0.003 -0.0088,0.006 -0.01311,0.009 -0.01202,0.008 -0.02406,0.0164 -0.03611,0.0245 -0.212517,0.11068 -0.426979,0.22246 -0.643335,0.33543 -7e-6,0 -1.3e-5,0 -2e-5,10e-6 -0.150953,0.10205 -0.305716,0.20472 -0.463941,0.30855 -10e-7,0 -2e-6,10e-6 -4e-6,10e-6 -10e-7,0 -2e-6,0 -4e-6,0 -0.553154,0.36293 -1.115899,0.71595 -1.686879,1.06042 -10e-7,0 -3e-6,0 -4e-6,0 -1.668134,1.00118 -3.324969,1.9034 -4.997048,2.59409 -10e-7,0 -2e-6,0 -4e-6,0 -10e-7,0 -3e-6,10e-6 -4e-6,10e-6 -1.719642,0.57951 -2.977584,1.18713 -3.620328,0.90816 0.0091,-0.0903 0.120938,0.0284 0.569858,0.31965 10e-7,0 2e-6,0 4e-6,0 0.197006,0.44883 0.34688,0.34421 0.214214,-0.0391 -0.08739,-3.03196 -0.243873,-5.96384 -0.236592,-8.78912 0.0059,-12.94524 0.295535,-25.92142 0.487879,-38.94907 z"
           id="path3924"
           inkscape:path-effect="#path-effect3926"
           inkscape:original-d="m 67.596278,951.17514 c 0.456127,48.80567 0.456127,39.22697 0.912254,47.89337 0.456127,8.66639 15.964457,-2.7368 15.964457,-2.7368 l 31.928911,-9.1225 38.77083,0 31.47278,5.9296 29.19215,16.42059 1.36838,1.3684"
           inkscape:connector-curvature="0"
           sodipodi:nodetypes="cscccccc" />
        <path
           style="fill:#ff8300;fill-opacity:1;fill-rule:evenodd;stroke:none"
           d="m 257.30634,936.45095 -8.13219,5.72992 c 1.1697,1.49737 2.34239,2.99908 3.51807,4.50514 4.49225,7.28842 7.71247,15.69766 10.96994,24.25978 0,0 0,0 0,0 2.78241,7.31946 5.56308,14.6072 8.14656,21.95346 0.70366,2.00609 1.46137,4.01333 2.32474,5.99274 1.2106,3.01211 3.52939,5.86201 6.83786,7.12511 0,0 0,0 0,0 3.83314,1.1636 7.54684,-0.4443 10.00343,-2.836 2.17928,-2.0353 4.02665,-4.22064 6.30461,-5.76156 1.81035,-1.27586 4.21984,-1.70514 6.62198,-1.98964 0,0 0,0 0,0 2.5062,-0.28473 5.01468,-0.54484 7.53006,-0.74948 0,0 0,0 0,0 0.61599,-0.0501 1.23219,-0.0969 1.84913,-0.13664 0.15422,-0.01 0.30846,-0.0194 0.46279,-0.028 0.054,-0.003 0.10747,-0.006 0.16146,-0.009 1.7e-4,-10e-6 2.6e-4,-10e-6 2.6e-4,-10e-6 0,0 -9e-5,-10e-6 -2.6e-4,-3e-5 -0.054,-0.002 -0.10759,-0.004 -0.1616,-0.007 -0.15452,-0.006 -0.3091,-0.0106 -0.46368,-0.0151 -0.61841,-0.0177 -1.23727,-0.0284 -1.85609,-0.0357 0,0 0,0 0,0 -2.52691,-0.0299 -5.05634,-0.004 -7.58427,0.0471 -2.46069,0.0397 -5.05904,0.27441 -7.40395,1.54531 -2.6522,1.48079 -4.82599,3.57159 -7.03711,5.29949 -2.28706,1.6742 -5.23835,2.7447 -7.21536,1.6112 0,0 0,0 0,0 -2.04977,-0.8553 -3.36547,-3.16687 -4.22322,-5.53247 -0.63468,-1.91547 -1.17094,-3.87555 -1.66639,-5.8665 -1.91056,-7.63388 -4.01726,-15.20513 -6.10743,-22.747 0,0 0,0 0,-10e-6 -2.49068,-8.96975 -5.15357,-18.19067 -9.51298,-27.09038 -1.11913,-1.75085 -2.24125,-3.50605 -3.36636,-5.26559 z"
           id="path3932"
           inkscape:path-effect="#path-effect3934"
           inkscape:original-d="m 253.24011,939.31583 c 0,0 4.56127,2.73676 13.68381,30.56053 9.12255,27.82375 6.84191,22.35025 9.12255,28.27985 2.28064,5.92969 7.75417,9.57869 14.13995,4.10519 6.38578,-5.47349 6.84191,-6.84189 13.68382,-7.29799 6.84191,-0.4562 10.0348,-0.4562 10.0348,-0.4562"
           inkscape:connector-curvature="0"
           sodipodi:nodetypes="cssscc" />
        <path
           style="fill:#ff8300;fill-opacity:1;fill-rule:evenodd;stroke:none"
           d="m 80.314121,930.96001 -9.927358,1.20332 c 1.547476,9.86683 3.096096,19.75955 4.645861,29.67814 1.029023,9.88999 1.815357,19.66617 2.359003,29.32855 3.331746,-1.2323 6.588451,-2.51183 9.770153,-3.83863 3e-6,0 6e-6,-1e-5 8e-6,-1e-5 2.171711,-1.21673 4.408778,-2.24699 6.725256,-2.89515 2.361872,-0.65279 4.771317,-0.98835 6.999356,-0.56936 9.35381,1.68787 18.73528,0.72645 27.73756,-0.95266 7.52545,-1.36809 14.97649,-3.23839 22.34828,-2.05434 0,0 1e-5,0 1e-5,0 4.19837,0.66758 8.3924,1.31799 12.55317,2.17193 0.59967,0.12314 1.19853,0.24461 1.78756,0.40879 0.12048,0.0341 0.25048,0.0454 0.34986,0.11897 5.9e-4,4.1e-4 8.2e-4,6.2e-4 8.2e-4,6.2e-4 0,0 -2e-4,-2.4e-4 -7.3e-4,-7.3e-4 -0.0943,-0.0801 -0.22717,-0.10254 -0.34242,-0.14273 -0.57784,-0.20368 -1.17054,-0.36612 -1.76044,-0.52902 -4.09879,-1.13218 -8.25528,-2.06634 -12.39714,-3.013 0,0 -10e-6,-10e-6 -10e-6,-10e-6 -7.54338,-1.70275 -15.4202,-0.36304 -22.91677,0.53491 -8.9619,1.03075 -18.03419,1.36628 -26.43314,-0.80515 -3.067853,-0.73228 -6.206945,-0.58195 -9.105723,0.0681 -2.904135,0.64476 -5.670239,1.69397 -8.273088,2.95312 -2e-6,0 -3e-6,10e-6 -5e-6,10e-6 -1.958791,1.98483 -3.842581,4.01693 -5.651368,6.0963 1.151779,-9.19088 2.546284,-18.26799 4.183476,-27.2313 -0.882916,-10.15101 -1.766976,-20.3279 -2.652181,-30.53066 z"
           id="path3936"
           inkscape:path-effect="#path-effect3938"
           inkscape:original-d="m 75.350442,931.56167 3.649019,30.1044 -0.912255,28.27994 c 0,0 12.771565,-10.49097 23.262494,-8.21034 20.07706,4.36458 35.57793,-4.10514 49.71788,-1.36838 14.13995,2.73677 14.59608,3.19289 14.59608,3.19289"
           inkscape:connector-curvature="0"
           sodipodi:nodetypes="cccssc" />
        <path
           style="fill:#ff8300;fill-opacity:1;fill-rule:evenodd;stroke:none"
           d="m 165.71877,956.1558 -8.32052,5.54702 c 5.61077,7.19711 11.46726,14.86032 18.81292,21.0565 2.13286,1.80379 4.48797,3.43459 7.06701,4.68019 2.28318,1.08843 4.63873,1.81181 6.98012,2.3231 3.7981,0.83257 7.42285,0.78768 10.84818,1.52694 0,0 1e-5,0 1e-5,0 1.4318,0.30336 2.83073,0.85316 4.09311,1.65887 1.76143,1.11926 3.29587,2.66135 4.70842,4.29558 -1.14245,-1.83324 -2.42906,-3.6158 -4.10056,-5.09778 -1.21911,-1.07459 -2.65239,-1.92628 -4.2027,-2.51757 0,0 0,0 0,0 -3.51367,-1.34246 -7.22083,-1.89929 -10.36174,-3.14845 -2.06326,-0.81008 -4.02318,-1.76075 -5.73443,-2.95082 -1.95874,-1.34283 -3.69537,-3.0293 -5.30544,-4.86994 -5.76992,-6.57424 -9.94092,-14.46941 -14.48438,-22.50364 z"
           id="path3940"
           inkscape:path-effect="#path-effect3942"
           inkscape:original-d="m 161.55851,958.92931 c 14.59607,21.89411 20.0696,26.45538 29.19215,29.1921 9.12255,2.7368 12.77156,0.4562 19.15735,9.1226"
           inkscape:connector-curvature="0" />
        <path
           style="fill:#ff8300;fill-opacity:1;fill-rule:evenodd;stroke:none"
           d="m 190.45101,962.7 -8.52324,5.23018 c 5.06135,5.70223 10.43653,11.6156 16.62022,16.22848 0,0 0,0 0,0 1.09172,0.81723 2.2457,1.62321 3.47949,2.21201 0,0 0,0 0,0 0,0 0,0 0,0 0.25488,0.1218 0.5176,0.23604 0.78623,0.3197 0.0626,0.0195 0.12556,0.0374 0.18832,0.0511 0,0 0,0 0,0 0.0163,6.5e-4 0.032,0.003 0.0472,0.007 0.006,0.001 0.0111,0.003 0.0167,0.005 1.1e-4,3e-5 1.7e-4,5e-5 1.7e-4,5e-5 0,0 -6e-5,-2e-5 -1.7e-4,-5e-5 -0.006,-0.002 -0.0108,-0.004 -0.0161,-0.006 -0.0142,-0.007 -0.0274,-0.0159 -0.0399,-0.0273 -0.0538,-0.0347 -0.10434,-0.0723 -0.15364,-0.11096 -0.21687,-0.1688 -0.4111,-0.35872 -0.60102,-0.55567 -0.919,-0.95393 -1.64724,-2.03642 -2.36745,-3.15088 0,0 0,0 0,0 -4.04548,-6.29244 -6.67807,-13.16017 -9.43685,-20.20186 z"
           id="path3944"
           inkscape:path-effect="#path-effect3946"
           inkscape:original-d="m 186.18939,965.31509 c 12.31543,20.0696 16.87671,21.43802 16.87671,21.43802"
           inkscape:connector-curvature="0" />
        <path
           style="fill:#ff8300;fill-opacity:1;fill-rule:evenodd;stroke:none"
           d="m 281.00706,948.72403 -9.92118,1.2532 c 1.67322,8.45752 3.08435,16.97309 4.15468,25.5474 0.60212,4.79631 1.01242,9.72137 1.6494,14.66681 0.16282,1.31539 0.35482,2.74404 0.76181,4.20387 0.1612,0.84666 0.63319,1.93696 1.61957,2.92481 1.06471,0.80156 2.16727,1.02294 3.07787,0.86602 1.23559,-0.15775 2.26778,-0.55843 3.16881,-0.94881 6.5094,-1.6584 13.08291,-3.32863 19.72052,-5.01072 5e-5,0 8e-5,0 8e-5,0 0,0 -3e-5,-1e-5 -8e-5,-2e-5 -6.74207,0.75059 -13.54824,1.51301 -20.41852,2.28729 -10e-6,0 -10e-6,0 -10e-6,0 -1.00077,0.24355 -1.90098,0.47757 -2.66641,0.44096 -0.36104,-0.0799 -0.61815,-0.10914 -0.48027,-0.18165 -0.13238,-0.0672 -0.12172,-0.54677 -0.29225,-1.20171 0,-10e-6 0,-10e-6 0,-10e-6 -0.16141,-1.1132 -0.1385,-2.32803 -0.1344,-3.64294 0.0457,-4.85276 0.31502,-9.74834 0.38079,-14.7534 0.11909,-8.80916 -0.11188,-17.63639 -0.62041,-26.4511 z"
           id="path3948"
           inkscape:path-effect="#path-effect3950"
           inkscape:original-d="m 276.04647,949.35063 c 5.47353,43.33208 -0.45613,49.71788 9.12255,46.52498 9.57867,-3.1929 20.0696,-3.649 20.0696,-3.649"
           inkscape:connector-curvature="0" />
        <path
           style="fill:#ff8300;fill-opacity:1;fill-rule:evenodd;stroke:none"
           d="m 292.90566,927.49249 -9.99976,-0.0719 c 0.71542,12.11936 1.74288,24.35412 3.96104,36.38258 1.08292,5.96644 2.409,12.13875 5.06836,17.77681 0.95009,2.17193 2.32136,4.62215 4.66474,5.9552 0,0 0,0 0,0 0.48536,0.27425 1.06269,0.46628 1.68987,0.49692 0,0 0,0 0,0 0,0 0,0 0,0 0.11685,0.004 0.24693,-0.009 0.38628,-0.0427 10e-6,0 10e-6,0 10e-6,0 0.0325,-0.006 0.0649,-0.0141 0.0968,-0.0236 0,0 1e-5,0 1e-5,0 0.009,-0.003 0.0171,-0.005 0.0256,-0.008 0.003,-0.001 0.006,-0.002 0.01,-0.003 3.6174,0.66128 7.28127,1.32525 10.99169,1.99191 -3.58761,-1.15787 -7.22177,-2.31843 -10.90248,-3.48167 -0.003,8.1e-4 -0.007,0.001 -0.01,0.002 -0.009,0.002 -0.0173,0.003 -0.026,0.005 -0.0325,0.005 -0.0655,0.008 -0.0986,0.0104 -0.1024,-0.002 -0.21755,-0.0146 -0.34371,-0.0307 -0.29118,-0.0445 -0.59042,-0.21591 -0.88959,-0.42491 0,0 0,0 0,-10e-6 -1.62681,-1.11249 -2.30102,-3.28582 -3.07186,-5.44765 0,0 0,0 0,0 -1.77478,-5.52835 -2.17266,-11.40547 -2.48552,-17.37227 0,0 0,0 0,0 -0.57789,-11.87618 0.0448,-23.76586 0.93334,-35.71348 z"
           id="path3952"
           inkscape:path-effect="#path-effect3954"
           inkscape:original-d="m 287.90578,927.45652 c -0.45613,63.40169 10.94706,59.75269 10.94706,59.75269 l 10.94705,2.7368"
           inkscape:connector-curvature="0"
           sodipodi:nodetypes="ccc" />
        <path
           style="fill:#ff8300;fill-opacity:1;fill-rule:evenodd;stroke:none"
           d="m 329.80863,933.64048 -9.91306,1.3159 c 1.77612,10.06996 3.44515,20.19451 5.19174,30.32548 0.95664,5.57698 1.85769,11.35159 3.43104,17.07055 0.43323,1.60957 0.97963,3.32367 1.80994,5.02664 0,10e-6 0,10e-6 0,10e-6 0.54586,1.17717 1.38156,2.40404 2.59406,3.47034 1.10821,0.90023 2.34553,1.45286 3.58365,1.697 0,0 0,0 0,0 1.40676,0.27221 2.70056,0.28698 3.85443,0.22675 5.04059,-0.20238 10.01112,-1.23725 14.65382,-3.04169 3.58379,-1.35785 7.22138,-3.23327 9.97617,-6.17217 1.59332,-1.73782 3.28482,-3.42007 4.97618,-5.12395 2.38282,-2.40053 4.78277,-4.78763 7.18808,-7.17111 3.09115,-3.04699 6.18267,-6.09433 9.27458,-9.14201 2e-5,-2e-5 3e-5,-2e-5 3e-5,-2e-5 0,0 -10e-6,0 -3e-5,10e-6 -3.33877,2.7742 -6.67792,5.54875 -10.01745,8.32364 -2.59988,2.17188 -5.19668,4.3495 -7.78148,6.54527 -1.82364,1.54838 -3.6698,3.09707 -5.46265,4.74543 0,0 -1e-5,1e-5 -1e-5,1e-5 -2.49719,2.31312 -5.85218,3.6123 -9.29521,4.66089 -4.40092,1.2927 -8.99336,1.83599 -13.51203,1.63361 -1.03798,-0.0602 -1.95502,-0.12581 -2.67924,-0.36657 -0.54179,-0.18433 -1.01033,-0.43102 -1.27161,-0.74578 0,0 0,0 0,0 -0.39935,-0.36369 -0.70121,-1.02963 -1.04249,-1.8161 -0.48469,-1.20773 -0.77579,-2.59667 -1.06757,-4.09769 -1.01199,-5.37296 -1.38451,-10.95006 -1.8857,-16.66863 -0.87817,-10.2062 -1.68296,-20.43824 -2.60519,-30.69581 z"
           id="path3956"
           inkscape:path-effect="#path-effect3958"
           inkscape:original-d="m 324.8521,934.29843 c 6.84191,51.54239 5.47352,56.10368 15.50833,56.10368 10.0348,0 19.61347,-3.649 23.71862,-7.75418 4.10514,-4.10515 22.35024,-20.52573 22.35024,-20.52573"
           inkscape:connector-curvature="0" />
        <path
           style="fill:#ff8300;fill-opacity:1;fill-rule:evenodd;stroke:none"
           d="m 409.53449,959.70947 -6.0712,-7.94612 c -7.76499,6.48209 -15.59476,12.91485 -23.42489,19.36352 -4.32308,3.55941 -8.7718,7.13096 -13.02145,11.02088 -1.1247,1.02288 -2.3065,2.1381 -3.4183,3.43339 0,10e-6 0,10e-6 0,10e-6 -0.62771,0.63891 -1.36968,1.65976 -1.89825,3.12628 -0.38437,1.22909 -0.19369,2.55853 0.57304,3.77788 0,10e-6 0,10e-6 1e-5,2e-5 0.86297,1.05794 1.71569,1.63667 2.36451,1.91087 7.22605,3.80236 15.9163,3.58525 22.87865,0.18536 1.89135,-0.90826 3.54149,-2.29715 4.71316,-4.03472 0.97171,-1.39173 1.61169,-3.14244 1.50135,-4.98382 -0.14853,-1.71484 -1.17895,-3.20574 -2.67673,-3.94062 -2.2222,-0.97925 -4.57078,-0.67732 -6.59527,-0.12978 0,0 -10e-6,0 -10e-6,0 -3.92488,0.96837 -8.02459,2.39158 -10.87913,5.28747 -0.61399,0.59008 -1.31107,1.39264 -1.1855,2.28524 0.0506,0.30458 0.25781,0.55374 0.51674,0.6865 0.37424,0.19034 0.79806,0.2116 1.20263,0.19417 -0.40457,-0.0174 -0.82149,-0.0763 -1.15105,-0.28512 -0.22052,-0.13919 -0.38037,-0.37305 -0.39372,-0.61596 -0.071,-0.78872 0.65822,-1.41034 1.28042,-1.97671 0,0 1e-5,0 1e-5,0 2.98811,-2.56986 6.99329,-3.5138 10.90093,-4.17721 0,0 0,0 10e-6,0 1.96913,-0.28446 4.00428,-0.42385 5.40656,0.46889 0.80465,0.4543 1.32182,1.4285 1.28586,2.30262 0,0 0,0 0,0 0.0191,1.13677 -0.59784,2.29179 -1.37795,3.31196 -0.98381,1.2301 -2.34171,2.15973 -3.81071,2.72157 -6.32333,2.41262 -13.78499,1.86553 -19.08505,-1.63903 -0.46682,-0.37659 -0.75069,-0.50804 -0.61991,-0.51408 0.18249,0.37035 0.26991,0.57895 0.20779,0.82911 0,0 0,0 0,0 -4.6e-4,-0.13773 0.4072,-0.43649 0.92226,-1.04121 0,-10e-6 0,-10e-6 0,-10e-6 0.90905,-0.90392 1.99411,-1.74743 3.15456,-2.64769 4.35847,-3.35454 8.98645,-6.44886 13.64774,-9.66165 8.3507,-5.74803 16.71689,-11.4922 25.05289,-17.31201 z"
           id="path3964"
           inkscape:path-effect="#path-effect3966"
           inkscape:original-d="m 406.49889,955.73641 c -40.59533,31.0167 -46.06886,33.2973 -40.59533,36.4902 5.47352,3.1929 13.68382,4.1051 20.98185,0.9122 7.29804,-3.1928 8.66642,-13.22765 -2.28063,-10.94701 -10.94706,2.28064 -14.59608,7.75421 -10.49093,7.75421"
           inkscape:connector-curvature="0" />
        <path
           style="fill:#ff8300;fill-opacity:1;fill-rule:evenodd;stroke:none"
           d="m 431.63408,950.43611 -7.39442,-6.73224 c -8.78971,10.30921 -17.92244,20.95547 -24.80122,33.21478 -1.48501,2.6098 -2.90444,5.50384 -3.77374,8.74048 0,0 0,10e-6 -10e-6,10e-6 -0.50029,1.8577 -0.70443,3.87343 -0.48033,5.93737 0,0 0,0 0,0 0.38841,3.31118 2.00447,6.35203 4.49575,8.50219 2.55004,2.2369 6.16073,3.0438 9.5316,1.8688 1e-5,0 1e-5,0 1e-5,0 3.04276,-1.2102 5.801,-2.53062 8.57967,-3.11889 3.38543,-0.74501 7.05706,-0.48212 10.22669,0.9697 0,0 10e-6,0 10e-6,0 8.06219,3.74699 17.19553,6.14159 26.03634,4.75789 3.55512,-0.5901 7.30097,-0.1567 10.99398,0.5127 5.26359,0.9625 10.50629,2.1976 15.79923,3.1021 -5.21732,-1.27 -10.33912,-2.8605 -15.55951,-4.1959 -3.68348,-0.9474 -7.53215,-1.6583 -11.4703,-1.3117 -8.36606,0.767 -16.68981,-2.1812 -24.13764,-6.1893 0,0 0,0 -10e-6,0 -3.85227,-2.0591 -8.35304,-2.75732 -12.69371,-2.1091 -3.47751,0.53989 -6.6198,1.73447 -9.55139,2.69671 -1.18658,0.48226 -2.88083,-0.19054 -3.92415,-1.2101 -1.26879,-1.25738 -2.04709,-3.09711 -2.11808,-4.8395 0,-10e-6 0,-10e-6 0,-10e-6 -0.0651,-1.11707 0.17703,-2.31953 0.57445,-3.5272 0.75378,-2.30559 2.11108,-4.54717 3.60982,-6.88187 7.13789,-10.96829 16.58276,-20.43576 26.05696,-30.18692 z"
           id="path3968"
           inkscape:path-effect="#path-effect3970"
           inkscape:original-d="m 427.93687,947.06999 c -27.82376,30.56054 -30.1044,39.22696 -29.64827,44.24432 0.45612,5.0174 5.0174,10.03479 10.0348,8.2103 5.0174,-1.8245 12.31544,-5.4735 20.52573,-1.3684 8.21029,4.10519 17.78896,6.38579 25.087,5.47359 7.29804,-0.9123 13.68382,1.8245 26.91151,4.5612"
           inkscape:connector-curvature="0" />
        <path
           style="fill:#ff8300;fill-opacity:1;fill-rule:evenodd;stroke:none"
           d="m 442.5723,955.00707 -7.37674,-6.7516 c -6.27808,8.32008 -13.06339,16.53837 -19.28753,25.18479 -0.96036,1.2941 -2.03422,2.79893 -2.71484,4.60622 0,0 0,0 0,10e-6 -0.4934,1.43294 -0.57321,2.76437 -0.62901,3.95566 -0.0199,1.10583 -0.50812,2.27257 -1.2559,3.28804 -0.72447,0.97923 -1.70257,1.83526 -2.73354,2.65569 0,0 0,0 -1e-5,0 -0.82521,0.65305 -1.75519,1.27428 -2.52688,2.06372 -0.25269,0.25275 -0.50275,0.55234 -0.61357,0.90753 -0.0908,0.30309 -0.0182,0.62135 0.15236,0.85337 -0.12444,-0.2597 -0.12631,-0.56426 -0.003,-0.79298 0.1497,-0.29075 0.41904,-0.49652 0.69601,-0.69607 0.86188,-0.60554 1.84136,-1.01236 2.81836,-1.52832 0,0 0,0 0,-1e-5 1.19554,-0.62381 2.39305,-1.33222 3.46693,-2.30469 1.14249,-1.03597 2.06018,-2.4157 2.46441,-4.06697 0.30959,-1.18376 0.5565,-2.27208 1.05294,-3.02879 0,0 0,0 0,0 0.64798,-1.13174 1.74322,-2.09536 2.90123,-3.23346 7.59065,-7.21502 15.66516,-13.91593 23.58843,-21.11214 z"
           id="path3972"
           inkscape:path-effect="#path-effect3974"
           inkscape:original-d="m 438.88393,951.63127 c -24.63088,26.91151 -24.17475,24.63087 -25.087,30.56053 -0.91226,5.92961 -9.57868,7.29801 -8.2103,9.57871"
           inkscape:connector-curvature="0" />
        <path
           style="fill:#ff8300;fill-opacity:1;fill-rule:evenodd;stroke:none"
           d="m 493.29957,937.76311 -4.83424,-8.75388 c -10.14922,6.04782 -20.26708,12.07381 -30.35357,18.07797 -8.71281,7.97641 -17.39568,15.93223 -26.04868,23.86748 -2.81947,2.54053 -5.75565,5.00521 -8.71128,7.49045 0,0 -1e-5,0 -1e-5,0 -1.64692,1.36274 -3.55069,2.83699 -5.18702,4.83091 0,0 0,0 0,0 -0.49499,0.54266 -0.99847,1.3625 -1.31451,2.47309 0,10e-6 0,10e-6 0,2e-5 -0.21896,1.05239 -0.0626,2.06655 0.41306,2.92592 0.58731,0.97185 1.27132,1.62537 1.88551,2.0565 0.92608,0.70868 1.86609,1.27325 2.76137,1.77817 3.78849,2.15222 7.9477,3.44762 12.15041,4.03528 3.91209,0.54812 7.73991,0.69978 11.40927,1.39473 2.9668,0.56048 5.9271,0.72387 8.83539,0.88698 3.80522,0.21701 7.60553,0.33487 11.4012,0.4389 10e-6,0 10e-6,0 10e-6,0 3.537,0.097 7.07022,0.16937 10.60212,0.29055 1.3102,0.045 2.61916,0.095 3.92673,0.17795 0.8167,0.0521 1.63325,0.0947 2.43682,0.24667 -0.79229,-0.2027 -1.61131,-0.29861 -2.422,-0.40191 -1.30226,-0.1662 -2.60897,-0.29967 -3.91473,-0.42786 -3.52079,-0.34568 -7.0463,-0.64272 -10.56504,-0.9638 -3.77885,-0.34484 -7.55259,-0.70273 -11.30537,-1.15753 -1e-5,0 -1e-5,0 -1e-5,0 -2.89497,-0.35274 -5.7626,-0.69027 -8.48319,-1.39364 -3.84263,-0.97438 -7.72517,-1.38489 -11.3971,-2.14029 0,0 0,0 0,0 -3.82533,-0.7922 -7.49382,-2.19372 -10.65597,-4.2891 -0.81889,-0.54263 -1.57998,-1.05915 -2.2097,-1.62139 -0.41033,-0.40581 -0.72255,-0.6758 -0.75503,-0.87269 0.0167,-0.006 0.0187,-0.0203 0.0389,0.0823 -0.0176,-0.0747 0.21691,-0.28122 0.51356,-0.6699 0,0 0,0 0,0 1.23338,-1.38221 2.9857,-2.51307 4.81927,-3.89253 0,0 0,-10e-6 10e-6,-10e-6 3.11234,-2.2956 6.24951,-4.60746 9.33424,-7.04861 8.9839,-7.26896 17.93792,-14.51736 26.86205,-21.7452 10.28723,-5.24702 20.54306,-10.47218 30.76754,-15.67551 z"
           id="path3980"
           inkscape:path-effect="#path-effect3982"
           inkscape:original-d="m 490.88245,933.38617 -30.56054,16.87672 c 0,0 -11.85931,10.49092 -26.45538,22.80636 -14.59608,12.31544 -19.15735,12.77157 -10.94706,17.78896 8.2103,5.0174 14.59608,4.1052 22.80637,5.9297 8.21029,1.8245 32.84117,2.2806 36.94631,3.1929"
           inkscape:connector-curvature="0"
           sodipodi:nodetypes="ccsssc" />
        <path
           style="fill:#ff8300;fill-opacity:1;fill-rule:evenodd;stroke:none"
           d="m 461.7957,968.97262 -5.68434,-8.22732 c -7.10098,5.41969 -14.2179,10.84258 -21.29834,16.32473 -0.97529,0.75516 -1.96483,1.51928 -2.95691,2.30457 -0.27709,1.00779 -0.55324,2.00787 -0.82848,3.00025 -0.002,0.0748 -0.003,0.14906 -0.004,0.22312 -0.002,0.18488 -0.004,0.36943 -0.006,0.55368 0,10e-6 0,3e-5 0,4e-5 -0.008,0.69254 -0.0168,1.38079 -0.0265,2.06496 0,1e-5 0,2e-5 0,2e-5 0.23216,0.2421 0.46417,0.47433 0.69483,0.69791 0,0 0,0 0,0 0.76493,0.74242 1.56733,1.44962 2.40558,2.11566 0,0 0,0 0,0 0,0 0,0 0,0 2.01232,1.70642 4.64306,3.31407 7.85547,3.93615 0,0 0,0 10e-6,0 5.88702,0.91033 11.96881,0.96419 17.84309,-0.32431 0,0 1e-5,0 1e-5,0 0,0 0,0 0,0 3.48254,-0.78388 6.8942,-1.69346 10.2868,-2.57364 0,0 0,0 0,0 5.00934,-1.29822 10.00963,-2.61909 15.00688,-3.94592 4.52376,-1.2011 9.04529,-2.40872 13.56533,-3.62091 0,0 0,-10e-6 0,-10e-6 1.43446,-0.38469 2.86877,-0.76987 4.30289,-1.15566 0.39734,-0.10689 0.79465,-0.21383 1.19195,-0.32084 0.10455,-0.0282 0.2091,-0.0563 0.31365,-0.0845 0,0 0,0 0,0 0.0267,-0.009 0.0536,-0.0162 0.0807,-0.0228 0.009,-0.002 0.019,-0.005 0.0285,-0.007 1e-5,0 2e-5,0 2e-5,0 0,0 -10e-6,0 -2e-5,0 -0.01,0.002 -0.0191,0.004 -0.0287,0.006 -0.0274,0.005 -0.055,0.01 -0.0828,0.0131 -0.10674,0.0182 -0.21348,0.0363 -0.32022,0.0545 -1e-5,0 -1e-5,0 -1e-5,0 -0.40562,0.069 -0.81125,0.13792 -1.21689,0.20679 0,0 0,0 -1e-5,0 -1.4641,0.24857 -2.92829,0.49649 -4.39255,0.74392 0,0 0,10e-6 -1e-5,10e-6 -4.61395,0.77966 -9.22843,1.55455 -13.84359,2.32257 0,0 0,10e-6 -1e-5,10e-6 -5.09868,0.8485 -10.1971,1.69033 -15.29636,2.50782 -3.47678,0.55757 -6.92631,1.13596 -10.3552,1.57176 0,0 0,0 0,0 0,0 0,0 -10e-6,0 -5.2918,0.68202 -10.67893,0.077 -15.91032,-1.2365 -1.53311,-0.32708 -3.01721,-1.65207 -4.66395,-3.11301 0,0 0,0 0,0 -0.60577,-0.58393 -1.18275,-1.20114 -1.73103,-1.84547 0,0 0,0 0,0 -0.16491,-0.19413 -0.32247,-0.38532 -0.47116,-0.57441 -0.11417,0.56591 -0.22676,1.13532 -0.33753,1.70806 0,10e-6 0,3e-5 0,4e-5 -0.0295,0.15237 -0.0588,0.30497 -0.088,0.45778 0,10e-6 0,10e-6 0,2e-5 -0.0113,0.0622 -0.0227,0.12428 -0.034,0.18651 0.084,0.72781 0.1666,1.46397 0.24825,2.20784 1.00087,-0.64843 2.02256,-1.29245 3.05725,-1.94704 7.53397,-4.76807 15.111,-9.48149 22.69634,-14.20872 z"
           id="path3984"
           inkscape:path-effect="#path-effect3986"
           inkscape:original-d="m 458.95353,964.85896 c -25.087,17.33284 -25.54313,17.78897 -25.54313,17.78897 0,0 4.56127,5.47348 9.12254,6.38578 4.56128,0.9123 9.12255,1.8245 16.87672,0.4561 7.75416,-1.3684 45.1566,-9.57865 45.1566,-9.57865"
           inkscape:connector-curvature="0" />
      </g>
      <text
         sodipodi:linespacing="125%"
         id="text3761"
         y="1020.5387"
         x="103.5957"
         style="font-size:72px;font-style:normal;font-variant:normal;font-weight:normal;font-stretch:normal;text-align:start;line-height:125%;letter-spacing:0px;word-spacing:0px;writing-mode:lr-tb;text-anchor:start;fill:#ffffff;fill-opacity:0.84186047;stroke:none;font-family:Arial;-inkscape-font-specification:Arial"
         xml:space="preserve"><tspan
           style="fill:#ffffff;fill-opacity:0.84186047;stroke:none"
           y="1020.5387"
           x="103.5957"
           id="tspan3763"
           sodipodi:role="line">quickMail</tspan></text>
    </g>
  </g>
</svg>
