<?xml version="1.0" encoding="UTF-8" standalone="no"?>
<svg
   xmlns:dc="http://purl.org/dc/elements/1.1/"
   xmlns:cc="http://creativecommons.org/ns#"
   xmlns:rdf="http://www.w3.org/1999/02/22-rdf-syntax-ns#"
   xmlns:svg="http://www.w3.org/2000/svg"
   xmlns="http://www.w3.org/2000/svg"
   xmlns:xlink="http://www.w3.org/1999/xlink"
   xmlns:sodipodi="http://sodipodi.sourceforge.net/DTD/sodipodi-0.dtd"
   xmlns:inkscape="http://www.inkscape.org/namespaces/inkscape"
   version="1.0"
   width="180"
   height="180"
   id="svg2"
   sodipodi:version="0.32"
   inkscape:version="0.48.3.1 r9886"
   sodipodi:docname="trash_can.svg"
   inkscape:output_extension="org.inkscape.output.svg.inkscape"
   inkscape:export-filename="C:\joanna\Gfx\drawings_vector\admin\thumbs\Andy_-_Trash_Can.png"
   inkscape:export-xdpi="140.625"
   inkscape:export-ydpi="140.625">
  <sodipodi:namedview
     inkscape:window-height="973"
     inkscape:window-width="1680"
     inkscape:pageshadow="2"
     inkscape:pageopacity="0.0"
     guidetolerance="10.0"
     gridtolerance="10.0"
     objecttolerance="10.0"
     borderopacity="1.0"
     bordercolor="#666666"
     pagecolor="#ffffff"
     id="base"
     showgrid="false"
     inkscape:zoom="3.375"
     inkscape:cx="-10.37037"
     inkscape:cy="89.48791"
     inkscape:window-x="0"
     inkscape:window-y="24"
     inkscape:current-layer="svg2"
     inkscape:window-maximized="1" />
  <defs
     id="defs4">
    <linearGradient
       x1="76"
       y1="105.3"
       x2="76"
       y2="86"
       id="linearGradient2299"
       xlink:href="#BlackTransparent"
       gradientUnits="userSpaceOnUse"
       gradientTransform="matrix(0.9,0,0,0.9,3.5,9)" />
    <linearGradient
       id="BlackTransparent">
      <stop
         style="stop-color:black;stop-opacity:1"
         offset="0"
         id="stop8" />
      <stop
         style="stop-color:black;stop-opacity:0"
         offset="1"
         id="stop10" />
    </linearGradient>
    <linearGradient
       id="WhiteTransparent">
      <stop
         style="stop-color:white;stop-opacity:1"
         offset="0"
         id="stop13" />
      <stop
         style="stop-color:white;stop-opacity:0"
         offset="1"
         id="stop15" />
    </linearGradient>
    <linearGradient
       id="linearGradient6182"
       x1="0"
       y1="21"
       x2="0"
       y2="30"
       xlink:href="#WhiteTransparent"
       gradientUnits="userSpaceOnUse" />
    <linearGradient
       id="linearGradient6185"
       x1="0"
       y1="71"
       x2="0"
       y2="59"
       xlink:href="#WhiteTransparent"
       gradientUnits="userSpaceOnUse" />
    <linearGradient
       id="linearGradient6188"
       x1="0"
       y1="52"
       x2="0"
       y2="16"
       xlink:href="#WhiteTransparent"
       gradientUnits="userSpaceOnUse" />
    <linearGradient
       id="linearGradient6192"
       x1="0"
       y1="35"
       x2="0"
       y2="48"
       xlink:href="#BlackTransparent"
       gradientUnits="userSpaceOnUse" />
    <linearGradient
       id="linearGradient6197"
       x1="13"
       y1="56"
       x2="13"
       y2="102"
       xlink:href="#BlackTransparent"
       gradientUnits="userSpaceOnUse" />
    <linearGradient
       id="linearGradient6200"
       x1="0"
       y1="78"
       x2="0"
       y2="13.5"
       xlink:href="#WhiteTransparent"
       gradientUnits="userSpaceOnUse" />
    <linearGradient
       id="linearGradient6206"
       x1="0"
       y1="66"
       x2="0"
       y2="58"
       xlink:href="#WhiteTransparent"
       gradientUnits="userSpaceOnUse" />
    <linearGradient
       id="linearGradient6213"
       x1="22"
       y1="0"
       x2="46"
       y2="0"
       xlink:href="#WhiteTransparent"
       gradientUnits="userSpaceOnUse" />
    <linearGradient
       id="linearGradient6216"
       x1="96"
       y1="0"
       x2="60"
       y2="0"
       xlink:href="#WhiteTransparent"
       gradientUnits="userSpaceOnUse" />
    <clipPath
       clipPathUnits="userSpaceOnUse"
       id="clipoutline1">
      <path
         id="outline1"
         d="M 60.3,27.4 C 40.4,27.4 24.4,35 24.4,44 l 0,56.8 c 0,9.2 16,16.5 35.9,16.5 C 80,117.3 96,110 96,100.8 L 96,44 C 96,35 80,27.4 60.3,27.4 z"
         inkscape:connector-curvature="0" />
    </clipPath>
    <clipPath
       clipPathUnits="userSpaceOnUse"
       id="clipoutline2">
      <path
         id="outline2"
         d="M 59.6,18 C 36.3,18 17.6,27.8 17,39.7 l 0,9.8 C 17,62 36.5,72 60.7,72 85,72 104.4,62 104.4,49.5 l 0,-9.7 C 104.4,27.6 84.6,18 60.7,18 60.4,18 60,18 59.6,18 z"
         inkscape:connector-curvature="0" />
    </clipPath>
    <filter
       id="ShadowBlur"
       filterUnits="userSpaceOnUse"
       x="0"
       y="0"
       color-interpolation-filters="sRGB">
      <feGaussianBlur
         in="SourceAlpha"
         stdDeviation="3"
         result="blur"
         id="feGaussianBlur31" />
    </filter>
    <linearGradient
       inkscape:collect="always"
       xlink:href="#WhiteTransparent"
       id="linearGradient3071"
       gradientUnits="userSpaceOnUse"
       x1="96"
       y1="0"
       x2="60"
       y2="0" />
    <linearGradient
       inkscape:collect="always"
       xlink:href="#WhiteTransparent"
       id="linearGradient3073"
       gradientUnits="userSpaceOnUse"
       x1="22"
       y1="0"
       x2="46"
       y2="0" />
    <linearGradient
       inkscape:collect="always"
       xlink:href="#BlackTransparent"
       id="linearGradient3075"
       gradientUnits="userSpaceOnUse"
       x1="13"
       y1="56"
       x2="13"
       y2="102" />
    <linearGradient
       inkscape:collect="always"
       xlink:href="#BlackTransparent"
       id="linearGradient3077"
       gradientUnits="userSpaceOnUse"
       gradientTransform="matrix(0.9,0,0,0.9,3.5,9)"
       x1="76"
       y1="105.3"
       x2="76"
       y2="86" />
    <linearGradient
       inkscape:collect="always"
       xlink:href="#WhiteTransparent"
       id="linearGradient3079"
       gradientUnits="userSpaceOnUse"
       x1="0"
       y1="52"
       x2="0"
       y2="16" />
    <linearGradient
       inkscape:collect="always"
       xlink:href="#WhiteTransparent"
       id="linearGradient3081"
       gradientUnits="userSpaceOnUse"
       x1="0"
       y1="71"
       x2="0"
       y2="59" />
    <linearGradient
       inkscape:collect="always"
       xlink:href="#BlackTransparent"
       id="linearGradient3083"
       gradientUnits="userSpaceOnUse"
       x1="0"
       y1="35"
       x2="0"
       y2="48" />
    <linearGradient
       inkscape:collect="always"
       xlink:href="#WhiteTransparent"
       id="linearGradient3085"
       gradientUnits="userSpaceOnUse"
       x1="0"
       y1="21"
       x2="0"
       y2="30" />
    <linearGradient
       inkscape:collect="always"
       xlink:href="#WhiteTransparent"
       id="linearGradient3115"
       gradientUnits="userSpaceOnUse"
       x1="96"
       y1="0"
       x2="60"
       y2="0" />
    <linearGradient
       inkscape:collect="always"
       xlink:href="#WhiteTransparent"
       id="linearGradient3117"
       gradientUnits="userSpaceOnUse"
       x1="22"
       y1="0"
       x2="46"
       y2="0" />
    <linearGradient
       inkscape:collect="always"
       xlink:href="#BlackTransparent"
       id="linearGradient3119"
       gradientUnits="userSpaceOnUse"
       x1="13"
       y1="56"
       x2="13"
       y2="102" />
    <linearGradient
       inkscape:collect="always"
       xlink:href="#WhiteTransparent"
       id="linearGradient3121"
       gradientUnits="userSpaceOnUse"
       x1="0"
       y1="52"
       x2="0"
       y2="16" />
    <linearGradient
       inkscape:collect="always"
       xlink:href="#WhiteTransparent"
       id="linearGradient3123"
       gradientUnits="userSpaceOnUse"
       x1="0"
       y1="71"
       x2="0"
       y2="59" />
    <linearGradient
       inkscape:collect="always"
       xlink:href="#BlackTransparent"
       id="linearGradient3125"
       gradientUnits="userSpaceOnUse"
       x1="0"
       y1="35"
       x2="0"
       y2="48" />
    <linearGradient
       inkscape:collect="always"
       xlink:href="#WhiteTransparent"
       id="linearGradient3127"
       gradientUnits="userSpaceOnUse"
       x1="0"
       y1="21"
       x2="0"
       y2="30" />
    <linearGradient
       inkscape:collect="always"
       xlink:href="#BlackTransparent"
       id="linearGradient3129"
       gradientUnits="userSpaceOnUse"
       gradientTransform="matrix(0.9,0,0,0.9,3.5,9)"
       x1="76"
       y1="105.3"
       x2="76"
       y2="86" />
  </defs>
  <style
     type="text/css"
     id="style33">
	.specularity {opacity:0.5;}
	.high-specularity {opacity:0.75;}
	.low-specularity {opacity:0.25;}
	.full-specularity {opacity:1;}
	.shade{opacity:0.5;}
	.black {fill:#000000;}
	.white {fill:#ffffff;}
	.outline-big {stroke-width:16;stroke:none;opacity:0.;fill:none;}
	.outline-small {stroke-width:8px;stroke:black;opacity:1;fill:none;}
	.stroke-highlight {fill:none;stroke:white;opacity:0.3;stroke-width:9px;stroke-linejoin:round;}
				.base-shadow 	{fill:black;opacity:0.4;}
	.stroke-aluminium5	{stroke:#555753;}
	.aluminium1	{fill:#eeeeec;}
	.aluminium2	{fill:#d3d7cf;}
	.aluminium3	{fill:#babdb6;}
	.aluminium4	{fill:#888a85;}
	.aluminium5	{fill:#555753;}
	.aluminium6	{fill:#2e3436;}
	</style>
  <g
     id="g3087"
     transform="translate(26,6.7350523)">
    <g
       transform="matrix(1,0,0,1.4216307,2.8203365,-15.552681)"
       id="g37">
      <path
         class="filter base-shadow"
         d="m 105.87119,105.00339 c 0,10.75675 -20.021808,19.48686 -44.691528,19.48686 -24.669722,0 -44.691525,-8.73011 -44.691525,-19.48686 0,-10.756745 20.021803,-19.486855 44.691525,-19.486855 24.66972,0 44.691528,8.73011 44.691528,19.486855 z"
         id="path39"
         inkscape:connector-curvature="0"
         style="opacity:0.4;fill:#000000;filter:url(#ShadowBlur)" />
      <g
         id="g41">
        <use
           class="outline-big"
           xlink:href="#outline1"
           id="use43"
           x="0"
           y="0"
           width="128"
           height="128" />
        <use
           class="outline-small stroke-aluminium5"
           xlink:href="#outline1"
           id="use45"
           style="fill:#555753;stroke:#555753;stroke-width:8px"
           x="0"
           y="0"
           width="128"
           height="128" />
      </g>
      <path
         d="M 60.4,30 C 40.6,30 24.7,37.6 24.7,46.7 l 0,54 c 0,9.1 15.9,16.3 35.7,16.3 C 80,117 96,109.8 96,100.7 l 0,-54 C 96,37.6 80,30 60.4,30 z"
         style="fill:#888a85"
         id="path47"
         inkscape:connector-curvature="0" />
      <path
         d="M 60.4,27.6 C 40.5,27.6 40.5,117 60.4,117 80,117 96,109.9 96,100.7 L 96,44 C 96,35 80,27.6 60.4,27.6 z"
         class="specularity"
         style="opacity:0.5;fill:url(#linearGradient3115)"
         id="path49"
         inkscape:connector-curvature="0" />
      <path
         class="high-specularity"
         d="m 42.4,58 -17.7,-8.3 0,51.3 c 0,5 7.3,11.7 17.8,13.7 L 42.4,58 z"
         style="opacity:0.75;fill:url(#linearGradient3117)"
         id="path51"
         inkscape:connector-curvature="0" />
      <path
         d="m 24.6,57.7 0,17.7 C 45.5,90.5 75.5,91 96,75.4 L 96,57.7 C 76,74 45,72.5 24.6,57.7 z"
         class="shade"
         style="opacity:0.5;fill:url(#linearGradient3119)"
         id="path53"
         inkscape:connector-curvature="0" />
      <use
         class="stroke-highlight"
         clip-path="url(#clipoutline1)"
         xlink:href="#outline1"
         id="use55"
         style="opacity:0.3;fill:none;stroke:#ffffff;stroke-width:9px;stroke-linejoin:round"
         x="0"
         y="0"
         width="128"
         height="128" />
    </g>
    <g
       transform="matrix(1,0,0,1.2463826,2.8203365,-8.4348865)"
       id="g57">
      <g
         id="g59">
        <use
           class="outline-big"
           xlink:href="#outline2"
           id="use61"
           x="0"
           y="0"
           width="128"
           height="128" />
        <use
           class="outline-small stroke-aluminium5"
           xlink:href="#outline2"
           id="use63"
           style="fill:#555753;stroke:#555753;stroke-width:8px"
           x="0"
           y="0"
           width="128"
           height="128" />
      </g>
      <path
         d="m 60.7,18 c 24.3,0 43.7,10 43.7,22 l 0,3.5 C 104.4,56 85,66 60.7,66 36.5,66 17,56 17,43.5 L 17,40 C 17,28 36.5,18 60.7,18 z"
         class="aluminium2"
         id="path65"
         inkscape:connector-curvature="0"
         style="fill:#d3d7cf" />
      <path
         d="m 60.7,59 c 24.3,0 43.7,-6.4 43.7,-19.6 l 0,10.1 C 104.4,62 85,72 60.7,72 36.5,72 17,62 17,49.5 L 17,39.4 C 17,47.3 36.5,59 60.7,59 z"
         class="aluminium4"
         id="path67"
         inkscape:connector-curvature="0"
         style="fill:#888a85" />
      <path
         d="m 16.473476,36.525126 c 0,11.4 27.281281,17.544544 44.226524,17.544544 17.652349,0 43.69619,-3.744544 43.69619,-17.544544 l 0.004,3.358757 c 0,16.050487 -29.399999,19.25 -43.699999,19.25 -13.8,0 -44.318719,-8.338388 -44.318719,-20.338388"
         style="opacity:0.5;fill:url(#linearGradient3121)"
         id="path69"
         inkscape:connector-curvature="0" />
      <path
         d="M 61,59 C 33.7,59 4.5,46.6 26.5,62.7 c 8.2,6 20.2,9 34.5,9 14.4,0 26,-3 34.7,-9 C 117,47.5 88,59 61,59 z"
         class="specularity"
         style="opacity:0.5;fill:url(#linearGradient3123)"
         id="path71"
         inkscape:connector-curvature="0" />
      <use
         class="stroke-highlight"
         clip-path="url(#clipoutline2)"
         xlink:href="#outline2"
         id="use73"
         style="opacity:0.3;fill:none;stroke:#ffffff;stroke-width:9px;stroke-linejoin:round"
         x="0"
         y="0"
         width="128"
         height="128" />
      <g
         id="g75">
        <path
           d="m 41.4,35.6 40.1,0 c 4.5,0 4.5,6.9 0,6.9 l -40.1,0 c -4.4,0 -4.6,-6.9 0,-6.9 z"
           class="shade"
           style="opacity:0.5;fill:url(#linearGradient3125)"
           id="path77"
           inkscape:connector-curvature="0" />
        <path
           d="m 61.6,19.3 c -18.6,0 -20.1,6 -20.1,12.3 l 0,6.8 c 0,2.9 7.5,2.3 7.5,0 L 49,36 c 0,-4.4 4.5,-5.5 12.6,-5.5 8.1,0 12.4,1.1 12.4,5.5 l 0,2.4 c 0,2.3 7.6,2.3 7.6,0 l 0,-6.8 c 0,-6.3 -1.6,-12.3 -20,-12.3 z"
           style="fill:#000000"
           id="path79"
           inkscape:connector-curvature="0" />
        <path
           class="specularity"
           d="M 61.6,21.3 C 53.4,21.3 47,22.5 47,27.4 l 29,0 c 0,-4.9 -6.3,-6.1 -14.4,-6.1 z"
           style="opacity:0.5;fill:url(#linearGradient3127)"
           id="path81"
           inkscape:connector-curvature="0" />
      </g>
    </g>
    <g
       transform="matrix(1,0,0,1.4216307,2.8203365,-15.552681)"
       id="g83">
      <path
         d="M 32,83.6 32,99 c 0,6.9 8,7 8,0 l 0,-15.4 c 0,-5.3 -8,-5.7 -8,0 z m 48,0 0,15.4 c 1.9,5.9 7.5,4.7 8,0 l 0,-15.4 c 0,-5 -7.8,-4.9 -8,0 z m -32.6,4.1 0,18.3 c 0,6.3 8.5,5.7 8.6,0 l 0,-18.3 c 0,-5.4 -8.5,-5.7 -8.6,0 z m 16.6,0 0,18.3 c 0,6.5 8.9,5.8 9,0 l 0,-18.3 c -1.4,-6.1 -8.2,-5.5 -9,0 z"
         style="opacity:0.5;fill:#000000"
         id="path85"
         inkscape:connector-curvature="0" />
      <path
         d="m 88,91 c 0,4.2 -8,4 -8,0 l 0,7.4 c 0,5.6 8,6.3 8,0 L 88,91 z m -56,0 0,7.4 c 0,8 8,7.6 8,0 L 40,91 c 0,4.9 -8,4.6 -8,0 z m 24,6.8 c 0,5.1 -8.6,4.2 -8.6,0 l 0,7.9 c 0,6.9 8.5,5.9 8.6,0 l 0,-7.9 z m 17,0 c 0,5.8 -9,4.9 -9,0 l 0,7.9 c 0,7.1 9,6.3 9,0 l 0,-7.9 z"
         style="opacity:0.5;fill:url(#linearGradient3129)"
         id="path87"
         inkscape:connector-curvature="0" />
    </g>
  </g>
  <metadata
     id="metadata55">
    <rdf:RDF>
      <cc:Work>
        <dc:format>image/svg+xml</dc:format>
        <dc:type
           rdf:resource="http://purl.org/dc/dcmitype/StillImage" />
        <cc:license
           rdf:resource="http://creativecommons.org/licenses/publicdomain/" />
        <dc:publisher>
          <cc:Agent
             rdf:about="http://openclipart.org/">
            <dc:title>Open Clip Art Library</dc:title>
          </cc:Agent>
        </dc:publisher>
        <dc:title>Trash Can</dc:title>
        <dc:date>2006-08-29T17:30:49</dc:date>
        <dc:description>Trans can. Not as clean as it could be ( pun intended ) but clean enough to publish and make useful.
\n
\n[b]This illustration uses clean SVG with a separated  area to theme elements in the design. Open it up in a plain text editor before loading into your favorite SVG editor for a world of fun[/b]</dc:description>
        <dc:source>http://openclipart.org/detail/68/trash-can-by-andy</dc:source>
        <dc:creator>
          <cc:Agent>
            <dc:title>Andy</dc:title>
          </cc:Agent>
        </dc:creator>
        <dc:subject>
          <rdf:Bag>
            <rdf:li>bin</rdf:li>
            <rdf:li>can</rdf:li>
            <rdf:li>clip art</rdf:li>
            <rdf:li>clipart</rdf:li>
            <rdf:li>colour</rdf:li>
            <rdf:li>contour</rdf:li>
            <rdf:li>desktop</rdf:li>
            <rdf:li>garbage</rdf:li>
            <rdf:li>grey</rdf:li>
            <rdf:li>icon</rdf:li>
            <rdf:li>logo</rdf:li>
            <rdf:li>metal</rdf:li>
            <rdf:li>metallic</rdf:li>
            <rdf:li>recycle</rdf:li>
            <rdf:li>shiny</rdf:li>
            <rdf:li>trash</rdf:li>
            <rdf:li>waste</rdf:li>
          </rdf:Bag>
        </dc:subject>
      </cc:Work>
      <cc:License
         rdf:about="http://creativecommons.org/licenses/publicdomain/">
        <cc:permits
           rdf:resource="http://creativecommons.org/ns#Reproduction" />
        <cc:permits
           rdf:resource="http://creativecommons.org/ns#Distribution" />
        <cc:permits
           rdf:resource="http://creativecommons.org/ns#DerivativeWorks" />
      </cc:License>
    </rdf:RDF>
  </metadata>
</svg>
